<svg data-v-423bf9ae="" xmlns="http://www.w3.org/2000/svg" viewBox="0 0 655 90" class="iconLeftSlogan"><!----><!----><!----><g data-v-423bf9ae="" id="8a928285-3694-4fcd-af95-df32ec30b7c8" fill="black" transform="matrix(4.608294768854844,0,0,4.608294768854844,104.33179410795117,0)"><path d="M5.16 13.02C7.46 13.02 9.12 11.50 9.12 9.43L9.12 2.38L8.00 2.38L8.00 9.26C8.00 10.78 6.79 11.90 5.16 11.90C3.54 11.90 2.35 10.78 2.35 9.26L2.35 2.38L1.23 2.38L1.23 9.43C1.23 11.50 2.89 13.02 5.16 13.02ZM14.40 5.74C13.76 5.74 13.16 6.00 12.71 6.44L12.71 5.88L11.62 5.88L11.62 12.88L12.71 12.88L12.71 8.42C12.71 7.53 13.42 6.83 14.32 6.83C15.21 6.83 15.91 7.53 15.91 8.42L15.91 12.88L16.99 12.88L16.99 8.42C16.99 6.93 15.75 5.74 14.40 5.74ZM22.87 5.74C21.88 5.74 21.07 6.18 20.55 6.88L20.55 5.88L19.46 5.88L19.46 12.88L20.55 12.88L20.55 9.08C20.55 7.81 21.60 6.83 22.87 6.83C23.08 6.83 23.26 6.84 23.42 6.90L23.42 5.79C23.26 5.76 23.08 5.74 22.87 5.74ZM31.57 9.31C31.52 7.30 29.93 5.74 27.93 5.74C25.92 5.74 24.29 7.37 24.29 9.38C24.29 11.39 25.92 13.02 27.93 13.02C29.59 13.02 30.98 11.92 31.43 10.41L30.28 10.41C29.89 11.32 28.98 11.94 27.93 11.94C26.55 11.94 25.45 10.89 25.38 9.54L31.55 9.54ZM27.93 6.83C29.05 6.83 30.00 7.54 30.33 8.56L25.52 8.56C25.87 7.54 26.81 6.83 27.93 6.83ZM35.30 13.02C36.52 13.02 37.54 12.20 37.54 10.99C37.54 9.73 36.49 9.24 35.58 8.87C34.72 8.51 34.28 8.31 34.28 7.70C34.28 7.11 34.69 6.83 35.26 6.83C35.72 6.83 36.12 7.02 36.31 7.39L37.26 6.90C37.00 6.27 36.10 5.74 35.21 5.74C34.18 5.74 33.18 6.46 33.18 7.74C33.18 8.84 33.91 9.40 35.16 9.87C36.00 10.20 36.45 10.43 36.45 10.99C36.45 11.60 35.93 11.95 35.30 11.95C34.65 11.95 34.02 11.59 33.91 11.08L32.87 11.50C33.13 12.34 34.18 13.02 35.30 13.02ZM42.51 13.02C44.52 13.02 46.15 11.39 46.15 9.38C46.15 7.37 44.52 5.74 42.51 5.74C40.49 5.74 38.87 7.37 38.87 9.38C38.87 11.39 40.49 13.02 42.51 13.02ZM42.51 11.94C41.09 11.94 39.95 10.80 39.95 9.38C39.95 7.96 41.09 6.83 42.51 6.83C43.91 6.83 45.06 7.96 45.06 9.38C45.06 10.80 43.91 11.94 42.51 11.94ZM48.21 12.88L49.30 12.88L49.30 0L48.21 0ZM56.23 5.88L54.08 11.62L51.91 5.88L50.73 5.88L53.53 12.88L54.58 12.88L57.40 5.88ZM65.63 9.31C65.57 7.30 63.98 5.74 61.99 5.74C59.97 5.74 58.35 7.37 58.35 9.38C58.35 11.39 59.97 13.02 61.99 13.02C63.65 13.02 65.03 11.92 65.48 10.41L64.33 10.41C63.95 11.32 63.04 11.94 61.99 11.94C60.60 11.94 59.50 10.89 59.43 9.54L65.61 9.54ZM61.99 6.83C63.11 6.83 64.05 7.54 64.38 8.56L59.57 8.56C59.92 7.54 60.87 6.83 61.99 6.83ZM73.33 0L73.33 6.79C72.66 6.14 71.77 5.74 70.77 5.74C68.76 5.74 67.13 7.37 67.13 9.38C67.13 11.39 68.76 13.02 70.77 13.02C71.77 13.02 72.66 12.62 73.33 11.97L73.33 12.88L74.41 12.88L74.41 0ZM70.77 11.94C69.35 11.94 68.22 10.80 68.22 9.38C68.22 7.96 69.35 6.83 70.77 6.83C72.17 6.83 73.33 7.96 73.33 9.38C73.33 10.80 72.17 11.94 70.77 11.94ZM87.01 3.46L87.01 2.38L81.27 2.38L81.27 12.88L82.39 12.88L82.39 8.17L86.42 8.17L86.42 7.09L82.39 7.09L82.39 3.46ZM91.75 13.02C93.77 13.02 95.39 11.39 95.39 9.38C95.39 7.37 93.77 5.74 91.75 5.74C89.74 5.74 88.11 7.37 88.11 9.38C88.11 11.39 89.74 13.02 91.75 13.02ZM91.75 11.94C90.34 11.94 89.20 10.80 89.20 9.38C89.20 7.96 90.34 6.83 91.75 6.83C93.15 6.83 94.31 7.96 94.31 9.38C94.31 10.80 93.15 11.94 91.75 11.94ZM100.87 5.74C99.87 5.74 99.07 6.18 98.54 6.88L98.54 5.88L97.46 5.88L97.46 12.88L98.54 12.88L98.54 9.08C98.54 7.81 99.59 6.83 100.87 6.83C101.08 6.83 101.26 6.84 101.41 6.90L101.41 5.79C101.26 5.76 101.08 5.74 100.87 5.74ZM105.17 13.02C106.73 13.02 107.80 11.99 107.80 10.36L107.80 5.88L106.73 5.88L106.73 10.24C106.73 11.29 106.09 11.94 105.17 11.94C104.28 11.94 103.62 11.29 103.62 10.24L103.62 5.88L102.55 5.88L102.55 10.36C102.55 11.99 103.60 13.02 105.17 13.02ZM116.81 5.74C115.97 5.74 115.24 6.14 114.77 6.79C114.29 6.14 113.56 5.74 112.82 5.74C112.19 5.74 111.61 6.05 111.19 6.53L111.19 5.88L110.11 5.88L110.11 12.88L111.19 12.88L111.19 8.40C111.19 7.53 111.86 6.83 112.72 6.83C113.54 6.83 114.22 7.53 114.22 8.40L114.22 12.88L115.31 12.88L115.31 8.40C115.31 7.53 115.99 6.83 116.81 6.83C117.65 6.83 118.33 7.53 118.33 8.40L118.33 12.88L119.42 12.88L119.42 8.40C119.42 6.93 118.27 5.74 116.81 5.74Z"></path></g><!----><g data-v-423bf9ae="" id="51912c48-9ac7-44c1-9ecd-c749916c48d7" transform="matrix(2.8125,0,0,2.8125,0,0)" stroke="none" fill="black"><path d="M29.625 1l-3.099 3.172H4.054v23.657h22.472L29.625 31H1V1h28.625M32 0H0v32h32l-5.054-5.172H5.054V5.172h21.893L32 0z"></path><path d="M21.038 10.962v10.076H10.962V10.962h10.076m1-1H9.962v12.076h12.076V9.962z"></path></g><!----><g data-v-423bf9ae="" id="745c831a-746b-4d85-8b91-31b561fc1cbf" fill="black" transform="matrix(0.6329326264130319,0,0,0.6329326264130319,109.20250511932602,58.44931689592943)"><path d="M1.68 7.64L5.60 7.64L5.60 7.24L1.68 7.24L1.68 3.21L5.74 3.21L5.74 2.80L1.26 2.80L1.26 12.60L1.68 12.60ZM14.77 2.80L14.77 12.60L15.19 12.60L15.19 2.80ZM31.57 2.80L31.57 11.79L24.08 2.45L24.08 12.60L24.50 12.60L24.50 3.61L31.99 12.95L31.99 2.80ZM40.95 2.80L40.95 12.60L43.33 12.60C44.75 12.60 45.88 12.15 46.74 11.25C47.59 10.35 48.02 9.17 48.02 7.70C48.02 6.23 47.59 5.05 46.74 4.15C45.88 3.25 44.75 2.80 43.33 2.80ZM41.37 3.22L43.33 3.22C44.63 3.22 45.66 3.63 46.42 4.46C47.19 5.28 47.57 6.37 47.57 7.70C47.57 9.09 47.19 10.18 46.44 10.98C45.68 11.78 44.65 12.18 43.33 12.18L41.37 12.18ZM71.40 2.45L67.13 12.60L67.62 12.60L68.89 9.52L73.91 9.52L75.18 12.60L75.67 12.60ZM71.40 3.50L73.71 9.07L69.09 9.07ZM91.07 2.80L91.07 11.79L83.58 2.45L83.58 12.60L84 12.60L84 3.61L91.49 12.95L91.49 2.80ZM100.13 9.74L99.75 9.90C100.38 11.77 101.43 12.71 102.90 12.71C103.81 12.71 104.51 12.45 104.97 11.93C105.44 11.41 105.67 10.77 105.67 10.01C105.67 9.66 105.61 9.35 105.50 9.06C105.38 8.78 105.25 8.55 105.11 8.37C104.96 8.19 104.76 8.02 104.50 7.86C104.23 7.70 104.02 7.58 103.86 7.50C103.70 7.43 103.47 7.34 103.19 7.22C103.16 7.21 103.04 7.16 102.84 7.08C102.65 7.01 102.53 6.96 102.48 6.94C102.43 6.91 102.33 6.87 102.16 6.80C101.99 6.73 101.88 6.67 101.83 6.64C101.78 6.60 101.69 6.54 101.56 6.45C101.43 6.37 101.34 6.30 101.29 6.24C101.24 6.18 101.18 6.10 101.09 6.00C101.01 5.90 100.95 5.80 100.92 5.70C100.89 5.61 100.86 5.50 100.83 5.38C100.80 5.25 100.79 5.12 100.79 4.98C100.79 4.41 100.98 3.95 101.38 3.62C101.78 3.29 102.27 3.12 102.86 3.12C103.99 3.12 104.77 3.77 105.21 5.07L105.62 4.90C105.41 4.23 105.07 3.69 104.61 3.29C104.14 2.89 103.56 2.69 102.87 2.69C102.18 2.69 101.58 2.90 101.07 3.33C100.56 3.76 100.31 4.33 100.31 5.04C100.31 5.39 100.38 5.71 100.53 5.99C100.67 6.27 100.89 6.51 101.17 6.71C101.46 6.91 101.71 7.07 101.94 7.17C102.17 7.28 102.47 7.41 102.83 7.55C103.11 7.65 103.30 7.72 103.40 7.77C103.51 7.82 103.68 7.90 103.92 8.02C104.16 8.13 104.34 8.24 104.45 8.34C104.55 8.45 104.68 8.58 104.83 8.75C104.97 8.92 105.07 9.11 105.13 9.32C105.18 9.54 105.21 9.78 105.21 10.05C105.21 10.72 105.02 11.27 104.64 11.68C104.27 12.09 103.70 12.29 102.94 12.29C101.71 12.29 100.77 11.44 100.13 9.74ZM117.40 11.69L114.17 2.80L113.72 2.80L117.43 12.95L120.37 3.79L123.31 12.95L127.02 2.80L126.57 2.80L123.34 11.69L120.37 2.45ZM135.98 7.48L140.32 7.48L140.32 7.08L135.98 7.08L135.98 3.21L140.60 3.21L140.60 2.80L135.56 2.80L135.56 12.60L140.60 12.60L140.60 12.19L135.98 12.19ZM150.40 2.80ZM149.98 2.80L149.98 12.60L150.40 12.60L150.40 8.48L151.96 8.48L155.08 12.60L155.62 12.60L152.43 8.47C153.33 8.41 154.04 8.15 154.58 7.67C155.12 7.20 155.39 6.52 155.39 5.64C155.39 4.71 155.08 4.00 154.48 3.52C153.87 3.04 153.07 2.80 152.08 2.80ZM150.40 3.21L152.08 3.21C152.95 3.21 153.65 3.41 154.17 3.83C154.69 4.24 154.95 4.85 154.95 5.64C154.95 6.44 154.69 7.04 154.17 7.45C153.65 7.87 152.95 8.08 152.08 8.08L150.40 8.08ZM163.70 9.74L163.32 9.90C163.95 11.77 165.00 12.71 166.47 12.71C167.39 12.71 168.08 12.45 168.55 11.93C169.01 11.41 169.25 10.77 169.25 10.01C169.25 9.66 169.19 9.35 169.07 9.06C168.95 8.78 168.82 8.55 168.68 8.37C168.53 8.19 168.33 8.02 168.07 7.86C167.81 7.70 167.60 7.58 167.43 7.50C167.27 7.43 167.05 7.34 166.77 7.22C166.73 7.21 166.61 7.16 166.42 7.08C166.22 7.01 166.10 6.96 166.05 6.94C166.01 6.91 165.90 6.87 165.73 6.80C165.56 6.73 165.45 6.67 165.40 6.64C165.35 6.60 165.26 6.54 165.13 6.45C165.00 6.37 164.91 6.30 164.86 6.24C164.82 6.18 164.75 6.10 164.67 6.00C164.58 5.90 164.53 5.80 164.49 5.70C164.46 5.61 164.43 5.50 164.40 5.38C164.37 5.25 164.36 5.12 164.36 4.98C164.36 4.41 164.56 3.95 164.95 3.62C165.35 3.29 165.84 3.12 166.43 3.12C167.56 3.12 168.35 3.77 168.78 5.07L169.19 4.90C168.98 4.23 168.65 3.69 168.18 3.29C167.72 2.89 167.14 2.69 166.45 2.69C165.76 2.69 165.16 2.90 164.65 3.33C164.14 3.76 163.88 4.33 163.88 5.04C163.88 5.39 163.96 5.71 164.10 5.99C164.25 6.27 164.46 6.51 164.74 6.71C165.03 6.91 165.29 7.07 165.51 7.17C165.74 7.28 166.04 7.41 166.40 7.55C166.68 7.65 166.88 7.72 166.98 7.77C167.08 7.82 167.25 7.90 167.50 8.02C167.74 8.13 167.91 8.24 168.02 8.34C168.13 8.45 168.25 8.58 168.40 8.75C168.54 8.92 168.64 9.11 168.70 9.32C168.76 9.54 168.78 9.78 168.78 10.05C168.78 10.72 168.59 11.27 168.22 11.68C167.84 12.09 167.27 12.29 166.52 12.29C165.28 12.29 164.35 11.44 163.70 9.74ZM188.50 3.21L191.02 3.21L191.02 12.60L191.44 12.60L191.44 3.21L193.96 3.21L193.96 2.80L188.50 2.80ZM201.80 7.70C201.80 6.38 202.20 5.29 203.01 4.41C203.83 3.53 204.85 3.09 206.09 3.09C207.34 3.09 208.36 3.53 209.17 4.41C209.99 5.29 210.39 6.38 210.39 7.70C210.39 9.02 209.99 10.11 209.17 10.99C208.36 11.87 207.34 12.31 206.09 12.31C204.85 12.31 203.83 11.87 203.01 10.99C202.20 10.11 201.80 9.02 201.80 7.70ZM201.38 7.70C201.38 9.16 201.82 10.36 202.71 11.30C203.60 12.24 204.73 12.71 206.09 12.71C207.46 12.71 208.58 12.24 209.47 11.30C210.37 10.36 210.81 9.16 210.81 7.70C210.81 6.24 210.37 5.04 209.47 4.10C208.58 3.16 207.46 2.69 206.09 2.69C204.73 2.69 203.60 3.16 202.71 4.10C201.82 5.04 201.38 6.24 201.38 7.70ZM236.35 2.80L233.34 8.16L230.45 2.80L229.92 2.80L233.11 8.62L233.11 12.60L233.56 12.60L233.56 8.61L236.88 2.80ZM245.21 7.70C245.21 6.38 245.62 5.29 246.43 4.41C247.24 3.53 248.27 3.09 249.51 3.09C250.75 3.09 251.78 3.53 252.59 4.41C253.40 5.29 253.81 6.38 253.81 7.70C253.81 9.02 253.40 10.11 252.59 10.99C251.78 11.87 250.75 12.31 249.51 12.31C248.27 12.31 247.24 11.87 246.43 10.99C245.62 10.11 245.21 9.02 245.21 7.70ZM244.79 7.70C244.79 9.16 245.24 10.36 246.13 11.30C247.02 12.24 248.15 12.71 249.51 12.71C250.87 12.71 252.00 12.24 252.89 11.30C253.78 10.36 254.23 9.16 254.23 7.70C254.23 6.24 253.78 5.04 252.89 4.10C252.00 3.16 250.87 2.69 249.51 2.69C248.15 2.69 247.02 3.16 246.13 4.10C245.24 5.04 244.79 6.24 244.79 7.70ZM263.12 2.80L263.12 9.24C263.12 10.29 263.40 11.13 263.97 11.77C264.54 12.42 265.30 12.74 266.24 12.74C267.18 12.74 267.94 12.42 268.51 11.77C269.08 11.13 269.36 10.29 269.36 9.24L269.36 2.80L268.94 2.80L268.94 9.24C268.94 10.17 268.69 10.92 268.18 11.47C267.67 12.02 267.02 12.29 266.24 12.29C265.45 12.29 264.81 12.02 264.30 11.47C263.79 10.92 263.54 10.17 263.54 9.24L263.54 2.80ZM279.23 2.80ZM278.81 2.80L278.81 12.60L279.23 12.60L279.23 8.48L280.78 8.48L283.91 12.60L284.45 12.60L281.26 8.47C282.16 8.41 282.87 8.15 283.41 7.67C283.95 7.20 284.21 6.52 284.21 5.64C284.21 4.71 283.91 4.00 283.30 3.52C282.70 3.04 281.90 2.80 280.91 2.80ZM279.23 3.21L280.91 3.21C281.78 3.21 282.47 3.41 283.00 3.83C283.52 4.24 283.78 4.85 283.78 5.64C283.78 6.44 283.52 7.04 283.00 7.45C282.47 7.87 281.78 8.08 280.91 8.08L279.23 8.08ZM303.98 2.80L303.98 9.24C303.98 10.29 304.27 11.13 304.84 11.77C305.41 12.42 306.16 12.74 307.10 12.74C308.05 12.74 308.80 12.42 309.37 11.77C309.94 11.13 310.23 10.29 310.23 9.24L310.23 2.80L309.81 2.80L309.81 9.24C309.81 10.17 309.55 10.92 309.04 11.47C308.53 12.02 307.89 12.29 307.10 12.29C306.32 12.29 305.67 12.02 305.16 11.47C304.66 10.92 304.40 10.17 304.40 9.24L304.40 2.80ZM326.61 2.80L326.61 11.79L319.12 2.45L319.12 12.60L319.54 12.60L319.54 3.61L327.03 12.95L327.03 2.80ZM335.99 2.80L335.99 12.60L338.37 12.60C339.78 12.60 340.92 12.15 341.77 11.25C342.63 10.35 343.06 9.17 343.06 7.70C343.06 6.23 342.63 5.05 341.77 4.15C340.92 3.25 339.78 2.80 338.37 2.80ZM336.41 3.22L338.37 3.22C339.66 3.22 340.69 3.63 341.46 4.46C342.23 5.28 342.61 6.37 342.61 7.70C342.61 9.09 342.23 10.18 341.47 10.98C340.72 11.78 339.68 12.18 338.37 12.18L336.41 12.18ZM351.88 7.70C351.88 6.38 352.28 5.29 353.09 4.41C353.91 3.53 354.93 3.09 356.17 3.09C357.42 3.09 358.44 3.53 359.25 4.41C360.07 5.29 360.47 6.38 360.47 7.70C360.47 9.02 360.07 10.11 359.25 10.99C358.44 11.87 357.42 12.31 356.17 12.31C354.93 12.31 353.91 11.87 353.09 10.99C352.28 10.11 351.88 9.02 351.88 7.70ZM351.46 7.70C351.46 9.16 351.90 10.36 352.79 11.30C353.68 12.24 354.81 12.71 356.17 12.71C357.54 12.71 358.66 12.24 359.55 11.30C360.45 10.36 360.89 9.16 360.89 7.70C360.89 6.24 360.45 5.04 359.55 4.10C358.66 3.16 357.54 2.69 356.17 2.69C354.81 2.69 353.68 3.16 352.79 4.10C351.90 5.04 351.46 6.24 351.46 7.70ZM369.75 7.70C369.75 6.33 370.13 5.22 370.89 4.38C371.66 3.53 372.66 3.11 373.91 3.11C375.11 3.11 376.16 3.54 377.06 4.41L377.06 3.81C376.21 3.06 375.16 2.69 373.91 2.69C372.56 2.69 371.45 3.16 370.59 4.09C369.72 5.03 369.29 6.23 369.29 7.70C369.29 9.17 369.72 10.37 370.59 11.30C371.45 12.24 372.56 12.71 373.91 12.71C375.16 12.71 376.21 12.34 377.06 11.59L377.06 11.03C376.19 11.87 375.14 12.29 373.91 12.29C372.66 12.29 371.66 11.87 370.89 11.03C370.13 10.18 369.75 9.07 369.75 7.70ZM386.37 2.80L386.37 9.24C386.37 10.29 386.66 11.13 387.23 11.77C387.80 12.42 388.55 12.74 389.49 12.74C390.44 12.74 391.19 12.42 391.76 11.77C392.33 11.13 392.62 10.29 392.62 9.24L392.62 2.80L392.20 2.80L392.20 9.24C392.20 10.17 391.94 10.92 391.43 11.47C390.92 12.02 390.28 12.29 389.49 12.29C388.71 12.29 388.06 12.02 387.55 11.47C387.05 10.92 386.79 10.17 386.79 9.24L386.79 2.80ZM410.31 3.86L411.17 12.60L411.59 12.60L410.54 2.45L406.62 10.70L402.70 2.45L401.65 12.60L402.07 12.60L402.92 3.86L406.62 11.69ZM421.11 7.48L425.45 7.48L425.45 7.08L421.11 7.08L421.11 3.21L425.73 3.21L425.73 2.80L420.69 2.80L420.69 12.60L425.73 12.60L425.73 12.19L421.11 12.19ZM442.04 2.80L442.04 11.79L434.55 2.45L434.55 12.60L434.97 12.60L434.97 3.61L442.46 12.95L442.46 2.80ZM450.44 3.21L452.96 3.21L452.96 12.60L453.38 12.60L453.38 3.21L455.90 3.21L455.90 2.80L450.44 2.80ZM464.86 7.48L469.20 7.48L469.20 7.08L464.86 7.08L464.86 3.21L469.48 3.21L469.48 2.80L464.44 2.80L464.44 12.60L469.48 12.60L469.48 12.19L464.86 12.19ZM478.86 2.80L478.86 12.60L481.24 12.60C482.65 12.60 483.79 12.15 484.64 11.25C485.50 10.35 485.93 9.17 485.93 7.70C485.93 6.23 485.50 5.05 484.64 4.15C483.79 3.25 482.65 2.80 481.24 2.80ZM479.28 3.22L481.24 3.22C482.53 3.22 483.56 3.63 484.33 4.46C485.10 5.28 485.48 6.37 485.48 7.70C485.48 9.09 485.10 10.18 484.34 10.98C483.59 11.78 482.55 12.18 481.24 12.18L479.28 12.18ZM505.11 3.21L507.63 3.21L507.63 12.60L508.05 12.60L508.05 3.21L510.57 3.21L510.57 2.80L505.11 2.80ZM519.53 7.48L523.87 7.48L523.87 7.08L519.53 7.08L519.53 3.21L524.15 3.21L524.15 2.80L519.11 2.80L519.11 12.60L524.15 12.60L524.15 12.19L519.53 12.19ZM533.43 7.70C533.43 6.33 533.81 5.22 534.57 4.38C535.33 3.53 536.34 3.11 537.59 3.11C538.78 3.11 539.83 3.54 540.74 4.41L540.74 3.81C539.89 3.06 538.84 2.69 537.59 2.69C536.23 2.69 535.12 3.16 534.26 4.09C533.40 5.03 532.97 6.23 532.97 7.70C532.97 9.17 533.40 10.37 534.26 11.30C535.12 12.24 536.23 12.71 537.59 12.71C538.84 12.71 539.89 12.34 540.74 11.59L540.74 11.03C539.87 11.87 538.82 12.29 537.59 12.29C536.34 12.29 535.33 11.87 534.57 11.03C533.81 10.18 533.43 9.07 533.43 7.70ZM550.12 2.80L550.12 12.60L550.54 12.60L550.54 7.62L556.77 7.62L556.77 12.60L557.19 12.60L557.19 2.80L556.77 2.80L556.77 7.18L550.54 7.18L550.54 2.80ZM577.91 2.80L577.91 12.60L578.33 12.60L578.33 8.48L580.01 8.48C580.97 8.48 581.74 8.23 582.31 7.73C582.88 7.22 583.17 6.53 583.17 5.64C583.17 4.76 582.88 4.06 582.31 3.56C581.74 3.05 580.97 2.80 580.01 2.80ZM578.33 3.21L580.01 3.21C580.86 3.21 581.53 3.41 582.02 3.83C582.50 4.24 582.74 4.85 582.74 5.64C582.74 6.44 582.50 7.04 582.02 7.45C581.53 7.87 580.86 8.08 580.01 8.08L578.33 8.08ZM592.55 2.80ZM592.13 2.80L592.13 12.60L592.55 12.60L592.55 8.48L594.10 8.48L597.23 12.60L597.77 12.60L594.58 8.47C595.48 8.41 596.19 8.15 596.73 7.67C597.27 7.20 597.53 6.52 597.53 5.64C597.53 4.71 597.23 4.00 596.62 3.52C596.02 3.04 595.22 2.80 594.23 2.80ZM592.55 3.21L594.23 3.21C595.10 3.21 595.79 3.41 596.32 3.83C596.84 4.24 597.10 4.85 597.10 5.64C597.10 6.44 596.84 7.04 596.32 7.45C595.79 7.87 595.10 8.08 594.23 8.08L592.55 8.08ZM606.03 7.70C606.03 6.38 606.44 5.29 607.25 4.41C608.06 3.53 609.09 3.09 610.33 3.09C611.57 3.09 612.60 3.53 613.41 4.41C614.22 5.29 614.63 6.38 614.63 7.70C614.63 9.02 614.22 10.11 613.41 10.99C612.60 11.87 611.57 12.31 610.33 12.31C609.09 12.31 608.06 11.87 607.25 10.99C606.44 10.11 606.03 9.02 606.03 7.70ZM605.61 7.70C605.61 9.16 606.06 10.36 606.95 11.30C607.84 12.24 608.97 12.71 610.33 12.71C611.69 12.71 612.82 12.24 613.71 11.30C614.60 10.36 615.05 9.16 615.05 7.70C615.05 6.24 614.60 5.04 613.71 4.10C612.82 3.16 611.69 2.69 610.33 2.69C608.97 2.69 607.84 3.16 606.95 4.10C606.06 5.04 605.61 6.24 605.61 7.70ZM624.01 2.80L624.01 12.60L626.11 12.60C628.24 12.60 629.30 11.69 629.30 9.87C629.30 9.19 629.06 8.62 628.59 8.17C628.12 7.72 627.55 7.41 626.89 7.25C628.12 7.02 628.74 6.30 628.74 5.11C628.74 4.40 628.49 3.84 627.98 3.42C627.47 3.01 626.75 2.80 625.83 2.80ZM624.43 7.08L624.43 3.21L625.83 3.21C626.60 3.21 627.21 3.37 627.66 3.71C628.10 4.05 628.32 4.51 628.32 5.11C628.32 5.60 628.18 5.99 627.91 6.31C627.64 6.62 627.33 6.83 626.98 6.93C626.63 7.03 626.25 7.08 625.83 7.08ZM624.43 7.48L626.11 7.48C626.51 7.48 626.91 7.56 627.31 7.72C627.71 7.88 628.07 8.16 628.38 8.54C628.68 8.92 628.84 9.37 628.84 9.87C628.84 11.42 627.93 12.19 626.11 12.19L624.43 12.19ZM638.40 2.80L638.40 12.60L642.88 12.60L642.88 12.19L638.82 12.19L638.82 2.80ZM651.84 7.48L656.18 7.48L656.18 7.08L651.84 7.08L651.84 3.21L656.46 3.21L656.46 2.80L651.42 2.80L651.42 12.60L656.46 12.60L656.46 12.19L651.84 12.19ZM674.09 3.86L674.94 12.60L675.36 12.60L674.31 2.45L670.39 10.70L666.47 2.45L665.42 12.60L665.84 12.60L666.69 3.86L670.39 11.69ZM684.14 9.74L683.76 9.90C684.39 11.77 685.44 12.71 686.91 12.71C687.82 12.71 688.52 12.45 688.98 11.93C689.45 11.41 689.68 10.77 689.68 10.01C689.68 9.66 689.62 9.35 689.51 9.06C689.39 8.78 689.26 8.55 689.12 8.37C688.97 8.19 688.77 8.02 688.51 7.86C688.24 7.70 688.03 7.58 687.87 7.50C687.71 7.43 687.48 7.34 687.20 7.22C687.17 7.21 687.05 7.16 686.85 7.08C686.66 7.01 686.54 6.96 686.49 6.94C686.44 6.91 686.34 6.87 686.17 6.80C686.00 6.73 685.89 6.67 685.84 6.64C685.79 6.60 685.70 6.54 685.57 6.45C685.44 6.37 685.35 6.30 685.30 6.24C685.25 6.18 685.19 6.10 685.10 6.00C685.02 5.90 684.96 5.80 684.93 5.70C684.90 5.61 684.87 5.50 684.84 5.38C684.81 5.25 684.80 5.12 684.80 4.98C684.80 4.41 684.99 3.95 685.39 3.62C685.79 3.29 686.28 3.12 686.87 3.12C688.00 3.12 688.78 3.77 689.22 5.07L689.63 4.90C689.42 4.23 689.08 3.69 688.62 3.29C688.15 2.89 687.57 2.69 686.88 2.69C686.19 2.69 685.59 2.90 685.08 3.33C684.57 3.76 684.32 4.33 684.32 5.04C684.32 5.39 684.39 5.71 684.54 5.99C684.68 6.27 684.90 6.51 685.18 6.71C685.47 6.91 685.72 7.07 685.95 7.17C686.18 7.28 686.48 7.41 686.84 7.55C687.12 7.65 687.31 7.72 687.41 7.77C687.52 7.82 687.69 7.90 687.93 8.02C688.17 8.13 688.35 8.24 688.46 8.34C688.56 8.45 688.69 8.58 688.84 8.75C688.98 8.92 689.08 9.11 689.14 9.32C689.19 9.54 689.22 9.78 689.22 10.05C689.22 10.72 689.03 11.27 688.65 11.68C688.28 12.09 687.71 12.29 686.95 12.29C685.72 12.29 684.78 11.44 684.14 9.74Z"></path></g></svg>