<svg data-v-423bf9ae="" xmlns="http://www.w3.org/2000/svg" viewBox="0 0 1224 90" class="iconLeftSlogan"><!----><!----><!----><g data-v-423bf9ae="" id="6e52e920-9cbe-4d6d-bda1-ee8eca35a918" fill="black" transform="matrix(6.08519290965367,0,0,6.08519290965367,100.87222541783365,-6.085193386490829)"><path d="M10.98 7.68L10.98 7.68Q10.98 8.39 10.68 8.97Q10.38 9.54 9.79 9.96Q9.20 10.37 8.31 10.60Q7.42 10.82 6.24 10.82L6.24 10.82Q5.06 10.82 4.17 10.60Q3.28 10.37 2.69 9.96Q2.09 9.54 1.79 8.97Q1.50 8.39 1.50 7.68L1.50 7.68L1.50 1.24L2.35 1.24L2.35 7.75Q2.35 8.22 2.60 8.64Q2.85 9.06 3.34 9.38Q3.83 9.69 4.56 9.88Q5.28 10.06 6.24 10.06L6.24 10.06Q7.19 10.06 7.92 9.88Q8.64 9.69 9.13 9.38Q9.63 9.06 9.87 8.64Q10.12 8.22 10.12 7.75L10.12 7.75L10.12 1.24L10.98 1.24L10.98 7.68ZM24.00 10.64L23.15 10.64L23.15 4.44Q23.15 3.66 22.94 3.15Q22.73 2.65 22.34 2.36Q21.96 2.06 21.40 1.95Q20.85 1.83 20.16 1.83L20.16 1.83Q19.36 1.83 18.59 2.03Q17.82 2.22 17.14 2.52Q16.45 2.82 15.88 3.18Q15.31 3.54 14.91 3.88L14.91 3.88L14.91 10.64L14.05 10.64L14.05 1.24L14.91 1.24L14.91 2.89Q15.39 2.59 15.97 2.26Q16.54 1.93 17.21 1.65Q17.88 1.37 18.63 1.20Q19.39 1.02 20.23 1.02L20.23 1.02Q21.18 1.02 21.89 1.25Q22.60 1.48 23.07 1.90Q23.54 2.32 23.77 2.92Q24.00 3.51 24.00 4.25L24.00 4.25L24.00 10.64ZM34.08 1.97L34.08 1.97Q33.88 1.91 33.53 1.84Q33.17 1.76 32.62 1.76L32.62 1.76Q31.86 1.76 31.18 1.95Q30.51 2.14 29.93 2.46Q29.35 2.78 28.86 3.21Q28.37 3.64 27.97 4.12L27.97 4.12L27.97 10.64L27.12 10.64L27.12 1.24L27.97 1.24L27.97 3.16Q28.43 2.69 28.97 2.29Q29.50 1.89 30.10 1.61Q30.69 1.33 31.35 1.17Q32.00 1.00 32.70 1.00L32.70 1.00Q32.94 1.00 33.13 1.02Q33.32 1.03 33.48 1.04Q33.64 1.06 33.78 1.08Q33.93 1.10 34.08 1.13L34.08 1.13L34.08 1.97ZM45.12 9.15L45.12 10.14Q44.55 10.32 44.06 10.45Q43.57 10.58 43.09 10.65Q42.61 10.73 42.11 10.77Q41.62 10.81 41.02 10.81L41.02 10.81Q39.64 10.81 38.53 10.47Q37.41 10.14 36.63 9.51Q35.85 8.89 35.42 8.00Q35 7.11 35 6.00L35 6.00Q35 4.93 35.41 4.03Q35.81 3.14 36.54 2.50Q37.28 1.85 38.29 1.50Q39.31 1.14 40.54 1.14L40.54 1.14Q41.82 1.14 42.82 1.48Q43.82 1.83 44.50 2.46Q45.19 3.10 45.54 4.00Q45.90 4.91 45.90 6.04L45.90 6.04L45.90 6.25L35.88 6.25Q35.96 7.13 36.32 7.83Q36.68 8.54 37.35 9.03Q38.01 9.52 38.99 9.79Q39.96 10.05 41.26 10.05L41.26 10.05Q41.82 10.05 42.38 9.97Q42.95 9.90 43.47 9.77Q43.99 9.65 44.42 9.48Q44.85 9.32 45.12 9.15L45.12 9.15ZM35.88 5.51L45.06 5.51Q45.01 4.79 44.73 4.14Q44.46 3.49 43.92 2.99Q43.37 2.49 42.54 2.19Q41.70 1.90 40.53 1.90L40.53 1.90Q39.43 1.90 38.60 2.19Q37.78 2.49 37.20 2.98Q36.63 3.48 36.30 4.13Q35.97 4.79 35.88 5.51L35.88 5.51ZM55.99 1.65L55.99 2.63Q55.72 2.50 55.37 2.35Q55.02 2.21 54.57 2.09Q54.13 1.98 53.57 1.90Q53.01 1.82 52.32 1.82L52.32 1.82Q51.50 1.82 50.85 1.91Q50.20 2.01 49.76 2.21Q49.31 2.41 49.07 2.72Q48.84 3.03 48.84 3.45L48.84 3.45Q48.84 3.81 49.06 4.07Q49.28 4.34 49.66 4.55Q50.04 4.75 50.55 4.92Q51.06 5.09 51.63 5.23Q52.20 5.38 52.80 5.53Q53.41 5.68 53.98 5.85Q54.55 6.03 55.06 6.24Q55.57 6.46 55.95 6.75Q56.33 7.03 56.55 7.40Q56.77 7.77 56.77 8.26L56.77 8.26Q56.77 8.78 56.57 9.18Q56.38 9.57 56.04 9.85Q55.70 10.14 55.24 10.33Q54.79 10.51 54.27 10.62Q53.76 10.73 53.21 10.78Q52.66 10.82 52.12 10.82L52.12 10.82Q50.90 10.82 49.91 10.64Q48.91 10.47 48.01 10.16L48.01 10.16L48.01 9.11Q48.94 9.67 49.97 9.87Q51.01 10.08 52.15 10.08L52.15 10.08Q52.96 10.08 53.64 9.98Q54.33 9.88 54.82 9.68Q55.32 9.47 55.60 9.13Q55.88 8.80 55.88 8.31L55.88 8.31Q55.88 7.92 55.65 7.63Q55.43 7.33 55.05 7.11Q54.67 6.89 54.16 6.72Q53.66 6.55 53.09 6.40Q52.52 6.25 51.92 6.11Q51.31 5.97 50.74 5.81Q50.18 5.65 49.67 5.44Q49.16 5.24 48.78 4.96Q48.40 4.68 48.18 4.32Q47.95 3.96 47.95 3.48L47.95 3.48Q47.95 3.01 48.13 2.64Q48.31 2.28 48.62 2.01Q48.93 1.74 49.35 1.56Q49.77 1.38 50.24 1.27Q50.72 1.17 51.23 1.12Q51.74 1.07 52.24 1.07L52.24 1.07Q52.79 1.07 53.28 1.12Q53.76 1.17 54.22 1.25Q54.67 1.33 55.11 1.43Q55.54 1.53 55.99 1.65L55.99 1.65ZM70.69 5.95L70.69 5.95Q70.69 7.21 70.23 8.13Q69.77 9.05 68.97 9.65Q68.17 10.25 67.09 10.53Q66.00 10.82 64.74 10.82L64.74 10.82Q63.48 10.82 62.38 10.53Q61.29 10.25 60.48 9.65Q59.68 9.05 59.22 8.13Q58.76 7.21 58.76 5.95L58.76 5.95Q58.76 5.11 58.97 4.42Q59.19 3.73 59.57 3.19Q59.95 2.65 60.49 2.25Q61.04 1.85 61.70 1.59Q62.37 1.33 63.14 1.20Q63.90 1.07 64.74 1.07L64.74 1.07Q66.00 1.07 67.09 1.36Q68.17 1.65 68.97 2.25Q69.77 2.84 70.23 3.76Q70.69 4.68 70.69 5.95ZM69.81 5.95L69.81 5.95Q69.81 4.95 69.48 4.18Q69.16 3.42 68.52 2.90Q67.89 2.37 66.94 2.10Q65.99 1.83 64.74 1.83L64.74 1.83Q63.49 1.83 62.54 2.11Q61.58 2.38 60.94 2.90Q60.30 3.42 59.97 4.19Q59.64 4.96 59.64 5.95L59.64 5.95Q59.64 6.95 59.97 7.71Q60.30 8.48 60.94 9.00Q61.58 9.52 62.54 9.79Q63.49 10.06 64.74 10.06L64.74 10.06Q65.99 10.06 66.94 9.79Q67.89 9.52 68.52 9.00Q69.16 8.48 69.48 7.71Q69.81 6.95 69.81 5.95ZM74.05 1.24L74.05 7.39Q74.05 8.03 74.15 8.48Q74.25 8.94 74.58 9.24Q74.91 9.53 75.53 9.67Q76.15 9.81 77.17 9.81L77.17 9.81L81.42 9.81L81.42 10.64L77 10.64Q75.87 10.64 75.14 10.46Q74.40 10.27 73.97 9.90Q73.53 9.52 73.36 8.93Q73.19 8.35 73.19 7.55L73.19 7.55L73.19 1.24L74.05 1.24ZM92.63 1.24L87.90 10.64L86.62 10.64L81.93 1.24L82.89 1.24L87.28 10.05L91.68 1.24L92.63 1.24ZM104.05 9.15L104.05 10.14Q103.48 10.32 102.98 10.45Q102.49 10.58 102.01 10.65Q101.53 10.73 101.04 10.77Q100.54 10.81 99.95 10.81L99.95 10.81Q98.57 10.81 97.45 10.47Q96.34 10.14 95.56 9.51Q94.77 8.89 94.35 8.00Q93.93 7.11 93.93 6.00L93.93 6.00Q93.93 4.93 94.33 4.03Q94.74 3.14 95.47 2.50Q96.20 1.85 97.22 1.50Q98.24 1.14 99.47 1.14L99.47 1.14Q100.75 1.14 101.75 1.48Q102.74 1.83 103.43 2.46Q104.11 3.10 104.47 4.00Q104.82 4.91 104.82 6.04L104.82 6.04L104.82 6.25L94.81 6.25Q94.88 7.13 95.25 7.83Q95.61 8.54 96.27 9.03Q96.94 9.52 97.91 9.79Q98.89 10.05 100.19 10.05L100.19 10.05Q100.74 10.05 101.31 9.97Q101.88 9.90 102.40 9.77Q102.92 9.65 103.35 9.48Q103.78 9.32 104.05 9.15L104.05 9.15ZM94.81 5.51L103.98 5.51Q103.93 4.79 103.66 4.14Q103.39 3.49 102.84 2.99Q102.30 2.49 101.46 2.19Q100.63 1.90 99.46 1.90L99.46 1.90Q98.36 1.90 97.53 2.19Q96.70 2.49 96.13 2.98Q95.55 3.48 95.22 4.13Q94.90 4.79 94.81 5.51L94.81 5.51ZM117.58 5.93L117.58 5.93Q117.58 6.84 117.39 7.54Q117.20 8.24 116.86 8.76Q116.52 9.28 116.03 9.64Q115.54 10.00 114.94 10.22Q114.34 10.44 113.64 10.54Q112.94 10.64 112.17 10.64L112.17 10.64L107.32 10.64L107.32 1.24L112.16 1.24Q113.31 1.24 114.30 1.47Q115.29 1.70 116.02 2.24Q116.75 2.78 117.16 3.68Q117.58 4.59 117.58 5.93ZM116.70 5.93L116.70 5.93Q116.70 5.17 116.55 4.58Q116.40 3.99 116.12 3.56Q115.83 3.12 115.43 2.83Q115.03 2.54 114.52 2.35Q114.02 2.17 113.42 2.10Q112.83 2.02 112.16 2.02L112.16 2.02L108.18 2.02L108.18 9.85L112.16 9.85Q113.16 9.85 114.00 9.67Q114.83 9.49 115.43 9.04Q116.03 8.59 116.36 7.84Q116.70 7.08 116.70 5.93ZM132.77 2.04L126.18 2.04L126.18 5.28L132.43 5.28L132.43 6.07L126.18 6.07L126.18 10.64L125.33 10.64L125.33 1.24L132.77 1.24L132.77 2.04ZM146.10 5.95L146.10 5.95Q146.10 7.21 145.64 8.13Q145.18 9.05 144.38 9.65Q143.58 10.25 142.50 10.53Q141.41 10.82 140.15 10.82L140.15 10.82Q138.89 10.82 137.79 10.53Q136.70 10.25 135.89 9.65Q135.08 9.05 134.63 8.13Q134.17 7.21 134.17 5.95L134.17 5.95Q134.17 5.11 134.38 4.42Q134.59 3.73 134.98 3.19Q135.36 2.65 135.90 2.25Q136.45 1.85 137.11 1.59Q137.78 1.33 138.54 1.20Q139.31 1.07 140.15 1.07L140.15 1.07Q141.41 1.07 142.50 1.36Q143.58 1.65 144.38 2.25Q145.18 2.84 145.64 3.76Q146.10 4.68 146.10 5.95ZM145.22 5.95L145.22 5.95Q145.22 4.95 144.89 4.18Q144.57 3.42 143.93 2.90Q143.29 2.37 142.35 2.10Q141.40 1.83 140.15 1.83L140.15 1.83Q138.90 1.83 137.95 2.11Q136.99 2.38 136.35 2.90Q135.71 3.42 135.38 4.19Q135.05 4.96 135.05 5.95L135.05 5.95Q135.05 6.95 135.38 7.71Q135.71 8.48 136.35 9.00Q136.99 9.52 137.95 9.79Q138.90 10.06 140.15 10.06L140.15 10.06Q141.40 10.06 142.35 9.79Q143.29 9.52 143.93 9.00Q144.57 8.48 144.89 7.71Q145.22 6.95 145.22 5.95ZM155.56 1.97L155.56 1.97Q155.36 1.91 155.01 1.84Q154.66 1.76 154.10 1.76L154.10 1.76Q153.34 1.76 152.66 1.95Q151.99 2.14 151.41 2.46Q150.83 2.78 150.34 3.21Q149.85 3.64 149.45 4.12L149.45 4.12L149.45 10.64L148.60 10.64L148.60 1.24L149.45 1.24L149.45 3.16Q149.91 2.69 150.45 2.29Q150.99 1.89 151.58 1.61Q152.17 1.33 152.83 1.17Q153.48 1.00 154.18 1.00L154.18 1.00Q154.42 1.00 154.61 1.02Q154.80 1.03 154.96 1.04Q155.12 1.06 155.26 1.08Q155.41 1.10 155.56 1.13L155.56 1.13L155.56 1.97ZM157.10 1.24L157.96 1.24L157.96 7.44Q157.96 8.23 158.16 8.74Q158.37 9.24 158.75 9.53Q159.14 9.82 159.69 9.94Q160.24 10.05 160.93 10.05L160.93 10.05Q161.73 10.05 162.50 9.85Q163.26 9.66 163.94 9.36Q164.62 9.06 165.18 8.70Q165.74 8.34 166.14 8.00L166.14 8.00L166.14 1.24L167.01 1.24L167.01 10.64L166.14 10.64L166.14 8.98Q165.66 9.29 165.09 9.62Q164.53 9.95 163.87 10.23Q163.21 10.51 162.46 10.68Q161.70 10.86 160.86 10.86L160.86 10.86Q159.91 10.86 159.21 10.62Q158.50 10.38 158.03 9.95Q157.56 9.52 157.33 8.93Q157.10 8.34 157.10 7.63L157.10 7.63L157.10 1.24ZM170.17 1.24L171.03 1.24L171.03 2.69Q171.33 2.43 171.70 2.13Q172.07 1.84 172.51 1.59Q172.96 1.35 173.48 1.18Q174.00 1.02 174.59 1.02L174.59 1.02Q175.54 1.02 176.27 1.45Q177.00 1.87 177.45 2.77L177.45 2.77Q177.89 2.37 178.36 2.04Q178.82 1.72 179.31 1.49Q179.80 1.26 180.32 1.14Q180.84 1.02 181.39 1.02L181.39 1.02Q182.10 1.02 182.67 1.26Q183.25 1.50 183.65 1.91Q184.06 2.33 184.28 2.90Q184.50 3.46 184.50 4.10L184.50 4.10L184.50 10.64L183.65 10.64L183.65 4.32Q183.65 3.73 183.51 3.27Q183.37 2.81 183.07 2.49Q182.77 2.17 182.31 2.00Q181.85 1.83 181.21 1.83L181.21 1.83Q180.69 1.83 180.19 1.98Q179.69 2.13 179.23 2.37Q178.77 2.61 178.38 2.92Q177.98 3.23 177.68 3.55L177.68 3.55Q177.71 3.75 177.72 3.88Q177.72 4.02 177.72 4.21L177.72 4.21L177.72 10.64L176.87 10.64L176.87 4.32Q176.87 3.62 176.68 3.15Q176.50 2.67 176.17 2.38Q175.84 2.08 175.39 1.96Q174.95 1.83 174.42 1.83L174.42 1.83Q173.92 1.83 173.43 2.00Q172.94 2.17 172.50 2.45Q172.05 2.72 171.68 3.06Q171.30 3.40 171.03 3.73L171.03 3.73L171.03 10.64L170.17 10.64L170.17 1.24Z"></path></g><!----><g data-v-423bf9ae="" id="cf2fa361-f5a4-4cfa-b07d-835602c24d0c" transform="matrix(2.8125,0,0,2.8125,0,0)" stroke="none" fill="black"><path d="M16 32c8.837 0 16-7.163 16-16S24.837 0 16 0 0 7.163 0 16s7.163 16 16 16zM14.817 6.421h2v8.886h8.887v2H14.817V6.421zm-5.959.437h2v14.283h14.283v2H8.858V6.858z"></path></g><!----><g data-v-423bf9ae="" id="955d02a4-abdc-4e24-a90e-e43864fe6eb4" fill="black" transform="matrix(1.2374084684606064,0,0,1.2374084684606064,108.60172927129474,57.401443599798995)"><path d="M7.83 3.22L7.83 2.21L1.13 2.21L1.13 11.48L2.18 11.48L2.18 7.46L7.21 7.46L7.21 6.44L2.18 6.44L2.18 3.22ZM17.35 2.21L16.30 2.21L16.30 11.48L17.35 11.48ZM33.56 2.21L33.56 10.01L27.83 2.21L26.61 2.21L26.61 11.48L27.66 11.48L27.66 3.65L33.39 11.48L34.61 11.48L34.61 2.21ZM47.78 2.21L43.88 2.21L43.88 11.48L47.78 11.48C49.99 11.48 52.04 9.74 52.04 6.85C52.04 3.95 49.99 2.21 47.78 2.21ZM47.74 10.49L44.93 10.49L44.93 3.21L47.74 3.21C49.71 3.21 50.99 4.86 50.99 6.85C50.99 8.83 49.71 10.49 47.74 10.49ZM74.87 2.21L73.56 2.21L69.62 11.48L70.78 11.48L71.92 8.79L76.51 8.79L77.64 11.48L78.81 11.48ZM72.32 7.83L74.21 3.30L76.10 7.83ZM93.93 2.21L93.93 10.01L88.20 2.21L86.98 2.21L86.98 11.48L88.03 11.48L88.03 3.65L93.76 11.48L94.98 11.48L94.98 2.21ZM104.86 4.65C104.86 4.03 105.22 3.08 107.32 3.08C109.02 3.08 109.80 3.82 109.91 4.75L110.99 4.75C110.91 3.36 109.79 2.10 107.32 2.10C105.00 2.10 103.84 3.15 103.84 4.66C103.84 7.84 110.18 6.69 110.18 8.96C110.18 10.05 109.20 10.60 107.63 10.60C106.02 10.60 104.72 10.05 104.65 8.71L103.56 8.71C103.70 10.37 104.82 11.59 107.56 11.59C109.84 11.59 111.23 10.64 111.23 8.92C111.23 5.68 104.86 6.80 104.86 4.65ZM125.43 3.70L127.93 11.48L129.12 11.48L132.01 2.21L130.90 2.21L128.52 10.00L126.03 2.21L124.82 2.21L122.33 10.00L119.95 2.21L118.85 2.21L121.73 11.48L122.92 11.48ZM147.08 3.22L147.08 2.21L140.27 2.21L140.27 11.48L147.08 11.48L147.08 10.47L141.32 10.47L141.32 7.35L146.47 7.35L146.47 6.33L141.32 6.33L141.32 3.22ZM156.83 7.92L160.05 7.92L162.29 11.48L163.53 11.48L161.10 7.74C162.13 7.50 163.34 6.90 163.34 5.11C163.34 3.35 162.12 2.21 160.22 2.21L155.78 2.21L155.78 11.48L156.83 11.48ZM156.83 3.21L160.09 3.21C161.41 3.21 162.29 3.93 162.29 5.11C162.29 6.55 161.03 6.93 160.03 6.93L156.83 6.93ZM172.76 4.65C172.76 4.03 173.12 3.08 175.22 3.08C176.92 3.08 177.70 3.82 177.81 4.75L178.89 4.75C178.81 3.36 177.69 2.10 175.22 2.10C172.90 2.10 171.74 3.15 171.74 4.66C171.74 7.84 178.08 6.69 178.08 8.96C178.08 10.05 177.10 10.60 175.53 10.60C173.92 10.60 172.62 10.05 172.55 8.71L171.46 8.71C171.60 10.37 172.72 11.59 175.46 11.59C177.74 11.59 179.13 10.64 179.13 8.92C179.13 5.68 172.76 6.80 172.76 4.65ZM204.32 2.21L196.80 2.21L196.80 3.22L200.03 3.22L200.03 11.48L201.08 11.48L201.08 3.22L204.32 3.22ZM216.37 2.10C213.56 2.10 211.67 4.21 211.67 6.85C211.67 9.48 213.56 11.59 216.37 11.59C219.18 11.59 221.07 9.48 221.07 6.85C221.07 4.21 219.18 2.10 216.37 2.10ZM216.37 10.57C214.12 10.57 212.72 8.93 212.72 6.85C212.72 4.76 214.12 3.12 216.37 3.12C218.62 3.12 220.02 4.76 220.02 6.85C220.02 8.93 218.62 10.57 216.37 10.57ZM243.53 7.81L247.41 2.21L246.13 2.21L243.00 6.72L239.86 2.21L238.59 2.21L242.48 7.81L242.48 11.48L243.53 11.48ZM259.15 2.10C256.34 2.10 254.45 4.21 254.45 6.85C254.45 9.48 256.34 11.59 259.15 11.59C261.97 11.59 263.86 9.48 263.86 6.85C263.86 4.21 261.97 2.10 259.15 2.10ZM259.15 10.57C256.90 10.57 255.50 8.93 255.50 6.85C255.50 4.76 256.90 3.12 259.15 3.12C261.41 3.12 262.81 4.76 262.81 6.85C262.81 8.93 261.41 10.57 259.15 10.57ZM279.26 2.21L279.26 7.52C279.26 9.67 277.83 10.57 276.36 10.57C274.89 10.57 273.48 9.67 273.48 7.52L273.48 2.21L272.43 2.21L272.43 7.49C272.43 9.95 274.05 11.59 276.36 11.59C278.68 11.59 280.31 9.94 280.31 7.49L280.31 2.21ZM290.51 7.92L293.73 7.92L295.97 11.48L297.22 11.48L294.78 7.74C295.82 7.50 297.02 6.90 297.02 5.11C297.02 3.35 295.81 2.21 293.90 2.21L289.46 2.21L289.46 11.48L290.51 11.48ZM290.51 3.21L293.78 3.21C295.09 3.21 295.97 3.93 295.97 5.11C295.97 6.55 294.71 6.93 293.72 6.93L290.51 6.93ZM322.53 2.21L322.53 7.52C322.53 9.67 321.10 10.57 319.63 10.57C318.16 10.57 316.75 9.67 316.75 7.52L316.75 2.21L315.70 2.21L315.70 7.49C315.70 9.95 317.32 11.59 319.63 11.59C321.96 11.59 323.58 9.94 323.58 7.49L323.58 2.21ZM339.68 2.21L339.68 10.01L333.96 2.21L332.74 2.21L332.74 11.48L333.79 11.48L333.79 3.65L339.51 11.48L340.73 11.48L340.73 2.21ZM353.91 2.21L350 2.21L350 11.48L353.91 11.48C356.12 11.48 358.16 9.74 358.16 6.85C358.16 3.95 356.12 2.21 353.91 2.21ZM353.86 10.49L351.05 10.49L351.05 3.21L353.86 3.21C355.84 3.21 357.11 4.86 357.11 6.85C357.11 8.83 355.84 10.49 353.86 10.49ZM370.97 2.10C368.16 2.10 366.27 4.21 366.27 6.85C366.27 9.48 368.16 11.59 370.97 11.59C373.79 11.59 375.68 9.48 375.68 6.85C375.68 4.21 373.79 2.10 370.97 2.10ZM370.97 10.57C368.72 10.57 367.32 8.93 367.32 6.85C367.32 4.76 368.72 3.12 370.97 3.12C373.23 3.12 374.63 4.76 374.63 6.85C374.63 8.93 373.23 10.57 370.97 10.57ZM388.33 10.57C386.08 10.57 384.82 8.93 384.82 6.85C384.82 4.76 386.08 3.12 388.33 3.12C389.86 3.12 390.87 3.85 391.34 4.98L392.45 4.98C391.86 3.29 390.35 2.10 388.25 2.10C385.46 2.10 383.77 4.21 383.77 6.85C383.77 9.48 385.46 11.59 388.25 11.59C390.35 11.59 391.86 10.40 392.45 8.71L391.34 8.71C390.87 9.84 389.86 10.57 388.33 10.57ZM407.74 2.21L407.74 7.52C407.74 9.67 406.31 10.57 404.84 10.57C403.37 10.57 401.95 9.67 401.95 7.52L401.95 2.21L400.90 2.21L400.90 7.49C400.90 9.95 402.53 11.59 404.84 11.59C407.16 11.59 408.79 9.94 408.79 7.49L408.79 2.21ZM425.74 2.21L422.48 6.61L419.16 2.21L417.94 2.21L417.94 11.48L418.99 11.48L418.99 3.81L422.48 8.22L425.91 3.81L425.91 11.48L426.96 11.48L426.96 2.21ZM443.04 3.22L443.04 2.21L436.23 2.21L436.23 11.48L443.04 11.48L443.04 10.47L437.28 10.47L437.28 7.35L442.43 7.35L442.43 6.33L437.28 6.33L437.28 3.22ZM458.68 2.21L458.68 10.01L452.96 2.21L451.74 2.21L451.74 11.48L452.79 11.48L452.79 3.65L458.51 11.48L459.73 11.48L459.73 2.21ZM475.58 2.21L468.06 2.21L468.06 3.22L471.30 3.22L471.30 11.48L472.35 11.48L472.35 3.22L475.58 3.22ZM490.73 3.22L490.73 2.21L483.91 2.21L483.91 11.48L490.73 11.48L490.73 10.47L484.96 10.47L484.96 7.35L490.11 7.35L490.11 6.33L484.96 6.33L484.96 3.22ZM503.33 2.21L499.42 2.21L499.42 11.48L503.33 11.48C505.54 11.48 507.58 9.74 507.58 6.85C507.58 3.95 505.54 2.21 503.33 2.21ZM503.29 10.49L500.47 10.49L500.47 3.21L503.29 3.21C505.26 3.21 506.53 4.86 506.53 6.85C506.53 8.83 505.26 10.49 503.29 10.49ZM532.84 2.21L525.32 2.21L525.32 3.22L528.56 3.22L528.56 11.48L529.61 11.48L529.61 3.22L532.84 3.22ZM547.99 3.22L547.99 2.21L541.17 2.21L541.17 11.48L547.99 11.48L547.99 10.47L542.22 10.47L542.22 7.35L547.37 7.35L547.37 6.33L542.22 6.33L542.22 3.22ZM560.49 10.57C558.24 10.57 556.98 8.93 556.98 6.85C556.98 4.76 558.24 3.12 560.49 3.12C562.02 3.12 563.02 3.85 563.50 4.98L564.61 4.98C564.02 3.29 562.51 2.10 560.41 2.10C557.62 2.10 555.93 4.21 555.93 6.85C555.93 9.48 557.62 11.59 560.41 11.59C562.51 11.59 564.02 10.40 564.61 8.71L563.50 8.71C563.02 9.84 562.02 10.57 560.49 10.57ZM579.61 2.21L579.61 6.33L574.22 6.33L574.22 2.21L573.17 2.21L573.17 11.48L574.22 11.48L574.22 7.35L579.61 7.35L579.61 11.48L580.66 11.48L580.66 2.21ZM600.96 8.18L604.09 8.18C606.06 8.18 607.28 7.03 607.28 5.19C607.28 3.37 606.06 2.21 604.09 2.21L599.91 2.21L599.91 11.48L600.96 11.48ZM604.02 3.21C605.47 3.21 606.23 3.96 606.23 5.19C606.23 6.44 605.47 7.20 604.02 7.20L600.96 7.20L600.96 3.21ZM616.76 7.92L619.98 7.92L622.22 11.48L623.46 11.48L621.03 7.74C622.06 7.50 623.27 6.90 623.27 5.11C623.27 3.35 622.05 2.21 620.14 2.21L615.71 2.21L615.71 11.48L616.76 11.48ZM616.76 3.21L620.02 3.21C621.33 3.21 622.22 3.93 622.22 5.11C622.22 6.55 620.96 6.93 619.96 6.93L616.76 6.93ZM636.19 2.10C633.37 2.10 631.48 4.21 631.48 6.85C631.48 9.48 633.37 11.59 636.19 11.59C639.00 11.59 640.89 9.48 640.89 6.85C640.89 4.21 639.00 2.10 636.19 2.10ZM636.19 10.57C633.93 10.57 632.53 8.93 632.53 6.85C632.53 4.76 633.93 3.12 636.19 3.12C638.44 3.12 639.84 4.76 639.84 6.85C639.84 8.93 638.44 10.57 636.19 10.57ZM655.41 6.75C656.07 6.45 656.66 5.85 656.66 4.66C656.66 3.54 655.91 2.21 653.73 2.21L649.57 2.21L649.57 11.48L653.97 11.48C656.08 11.48 657.13 10.43 657.13 9.04C657.13 7.66 656.19 7 655.41 6.75ZM650.62 3.21L653.84 3.21C655.12 3.21 655.61 3.98 655.61 4.75C655.61 5.88 654.70 6.36 653.73 6.36L650.62 6.36ZM654.08 10.49L650.62 10.49L650.62 7.31L653.97 7.31C655.44 7.31 656.08 8.09 656.08 8.96C656.08 9.93 655.35 10.49 654.08 10.49ZM665.84 2.21L665.84 11.48L671.94 11.48L671.94 10.47L666.89 10.47L666.89 2.21ZM687.12 3.22L687.12 2.21L680.30 2.21L680.30 11.48L687.12 11.48L687.12 10.47L681.35 10.47L681.35 7.35L686.50 7.35L686.50 6.33L681.35 6.33L681.35 3.22ZM703.61 2.21L700.35 6.61L697.03 2.21L695.81 2.21L695.81 11.48L696.86 11.48L696.86 3.81L700.35 8.22L703.78 3.81L703.78 11.48L704.83 11.48L704.83 2.21ZM714.71 4.65C714.71 4.03 715.08 3.08 717.18 3.08C718.87 3.08 719.66 3.82 719.77 4.75L720.85 4.75C720.76 3.36 719.64 2.10 717.18 2.10C714.85 2.10 713.69 3.15 713.69 4.66C713.69 7.84 720.03 6.69 720.03 8.96C720.03 10.05 719.05 10.60 717.49 10.60C715.88 10.60 714.57 10.05 714.50 8.71L713.41 8.71C713.55 10.37 714.67 11.59 717.42 11.59C719.70 11.59 721.08 10.64 721.08 8.92C721.08 5.68 714.71 6.80 714.71 4.65Z"></path></g></svg>