<svg data-v-423bf9ae="" xmlns="http://www.w3.org/2000/svg" viewBox="0 0 772 107" class="iconLeftSlogan"><!----><!----><!----><g data-v-423bf9ae="" id="2a037a70-64f2-4d87-ad69-74ccdf884a32" fill="white" transform="matrix(5.714285714285714,0,0,5.714285714285714,96.42780746732439,-1.1999991238117218)"><path d="M7.42 6.15C7.42 8.08 6.69 8.93 5.22 8.93C3.75 8.93 2.98 8.08 2.98 6.15L2.98 0.42L1.02 0.42L1.02 6.27C1.02 8.96 2.48 10.71 5.21 10.71C7.97 10.71 9.39 8.96 9.39 6.27L9.39 0.42L7.42 0.42ZM13.08 10.50L13.08 6.54C13.08 5.24 13.73 4.56 14.59 4.56C15.48 4.56 15.82 5.12 15.82 6.09L15.82 10.50L17.67 10.50L17.67 6.03C17.67 4.30 17.08 3.01 15.06 3.01C14.15 3.01 13.48 3.37 12.95 4.27L12.95 3.22L11.23 3.22L11.23 10.50ZM21.14 10.50L21.14 7.06C21.14 5.64 21.74 4.75 22.95 4.75C23.38 4.75 23.67 4.87 23.95 5.03L24.29 3.39C23.95 3.12 23.56 3.01 23.00 3.01C21.99 3.01 21.48 3.50 21.01 4.48L21.01 3.22L19.29 3.22L19.29 10.50ZM31.61 7.38C31.61 7.34 31.63 6.93 31.63 6.61C31.63 4.27 30.13 3.01 28.18 3.01C26.28 3.01 24.65 4.26 24.65 6.86C24.65 9.46 26.26 10.71 28.18 10.71C29.88 10.71 31.00 9.95 31.50 8.46L29.78 8.09C29.58 8.75 29.02 9.17 28.29 9.17C27.33 9.17 26.57 8.61 26.50 7.38ZM28.14 4.55C29.06 4.55 29.68 5.17 29.74 6.08L26.53 6.08C26.66 5.07 27.40 4.55 28.14 4.55ZM32.41 8.40C32.54 9.77 33.66 10.71 35.43 10.71C37.09 10.71 38.43 9.98 38.43 8.37C38.43 6.92 37.38 6.41 36.55 6.22L34.79 5.81C34.41 5.73 34.16 5.52 34.16 5.21C34.16 4.69 34.65 4.45 35.36 4.45C36.01 4.45 36.53 4.72 36.64 5.38L38.23 5.11C38.16 3.96 37.16 3.01 35.42 3.01C33.92 3.01 32.56 3.65 32.56 5.28C32.56 6.48 33.39 7.10 34.34 7.32L36.09 7.73C36.51 7.84 36.78 8.04 36.78 8.44C36.78 9.10 36.09 9.27 35.48 9.27C34.57 9.27 34.09 8.81 34.01 8.13L32.41 8.40ZM39.21 6.86C39.21 9.46 40.80 10.71 42.76 10.71C44.73 10.71 46.31 9.46 46.31 6.86C46.31 4.26 44.73 3.01 42.76 3.01C40.80 3.01 39.21 4.26 39.21 6.86ZM41.06 6.86C41.06 5.32 41.75 4.55 42.76 4.55C43.76 4.55 44.46 5.32 44.46 6.86C44.46 8.41 43.76 9.17 42.76 9.17C41.75 9.17 41.06 8.41 41.06 6.86ZM49.36 10.50L49.36 0.21L47.52 0.77L47.52 10.50ZM54.85 10.50L57.75 3.22L55.90 3.22L54.03 8.26L52.19 3.22L50.32 3.22L53.21 10.50ZM65.14 7.38C65.14 7.34 65.16 6.93 65.16 6.61C65.16 4.27 63.66 3.01 61.71 3.01C59.81 3.01 58.18 4.26 58.18 6.86C58.18 9.46 59.79 10.71 61.71 10.71C63.41 10.71 64.53 9.95 65.03 8.46L63.31 8.09C63.11 8.75 62.55 9.17 61.82 9.17C60.86 9.17 60.10 8.61 60.03 7.38ZM61.67 4.55C62.59 4.55 63.21 5.17 63.27 6.08L60.06 6.08C60.19 5.07 60.93 4.55 61.67 4.55ZM70.88 0.42L70.88 3.89C70.46 3.26 69.79 3.01 69.12 3.01C67.30 3.01 65.94 4.40 65.94 6.86C65.94 9.32 67.26 10.71 69.08 10.71C69.94 10.71 70.60 10.30 71.02 9.60L71.02 10.50L72.73 10.50L72.73 0.42ZM71.04 6.86C71.04 8.41 70.27 9.17 69.40 9.17C68.49 9.17 67.79 8.41 67.79 6.86C67.79 5.31 68.45 4.55 69.41 4.55C70.36 4.55 71.04 5.31 71.04 6.86ZM80.42 10.50L80.42 6.24L84.55 6.24L84.55 4.47L80.42 4.47L80.42 2.20L85.54 2.20L85.54 0.42L78.46 0.42L78.46 10.50ZM85.58 6.86C85.58 9.46 87.16 10.71 89.12 10.71C91.10 10.71 92.68 9.46 92.68 6.86C92.68 4.26 91.10 3.01 89.12 3.01C87.16 3.01 85.58 4.26 85.58 6.86ZM87.43 6.86C87.43 5.32 88.12 4.55 89.12 4.55C90.13 4.55 90.83 5.32 90.83 6.86C90.83 8.41 90.13 9.17 89.12 9.17C88.12 9.17 87.43 8.41 87.43 6.86ZM95.73 10.50L95.73 7.06C95.73 5.64 96.33 4.75 97.54 4.75C97.97 4.75 98.27 4.87 98.55 5.03L98.88 3.39C98.55 3.12 98.15 3.01 97.59 3.01C96.59 3.01 96.07 3.50 95.61 4.48L95.61 3.22L93.88 3.22L93.88 10.50ZM104.40 3.22L104.40 7.18C104.40 8.48 103.74 9.16 102.89 9.16C101.99 9.16 101.65 8.60 101.65 7.63L101.65 3.22L99.81 3.22L99.81 7.69C99.81 9.42 100.39 10.71 102.41 10.71C103.32 10.71 103.99 10.32 104.52 9.45L104.52 10.50L106.25 10.50L106.25 3.22ZM109.72 10.50L109.72 6.73C109.72 5.50 110.11 4.56 111.12 4.56C111.72 4.56 112.11 4.98 112.11 5.98L112.11 10.50L113.96 10.50L113.96 6.38C113.96 5.29 114.46 4.56 115.35 4.56C116.13 4.56 116.34 5.21 116.34 6.02L116.34 10.50L118.19 10.50L118.19 5.52C118.19 3.89 117.31 3.01 115.91 3.01C115.00 3.01 114.23 3.39 113.76 4.35C113.47 3.50 112.76 3.01 111.69 3.01C110.73 3.01 110.10 3.36 109.59 4.26L109.59 3.22L107.87 3.22L107.87 10.50Z"></path></g><!----><g data-v-423bf9ae="" id="c54b467f-253c-43f7-bda2-b99b04ba884d" transform="matrix(1.0868111504448785,0,0,1.0868111504448785,-13.255261890115804,-0.23894260335429607)" stroke="none" fill="white"><g clip-rule="evenodd"><path d="M12.983 10.59l17.018 88.223-5.872-59.049 29.021-1.892-.054-9.883L64.549 1 53.622 18.977z"></path><path d="M59.389 54.548l5.16-53.541-8.74 39.716-19.612 1.045 1.57 20.462-7.766 36.583 12.057-39.899z"></path><path d="M62.8 67.182l.549-10.453-15.979 3.755-.032 11.797-17.337 26.532 21.68-27.616zM65.711 62.394l14.841-4.731 1.509-12.532-15.899 2.095zM72.07 44.502l10.988-1.417 1.581-10.278-8.079-.373L64.549 1l8.43 30.967z"></path><path d="M87.413 31.294l1.256-9.506-9.544-2.694L64.549 1l14.483 22.437-.422 7z"></path></g></g><!----><g data-v-423bf9ae="" id="ab6c1060-b997-4a8a-a439-ca28aea6f840" fill="white" transform="matrix(0.7065483834199956,0,0,0.7065483834199956,102.05855225076527,57.66838850837229)"><path d="M0.28 3.68L0.28 3.68Q0.28 3.64 0.30 3.60Q0.32 3.56 0.41 3.50Q0.50 3.44 0.64 3.44L0.64 3.44L1.02 3.44Q1.36 3.44 2.11 3.49Q2.86 3.53 4.06 3.53L4.06 3.53Q5.05 3.53 5.82 3.49Q6.59 3.46 7.24 3.46L7.24 3.46Q7.48 3.46 7.48 3.79L7.48 3.79Q7.48 3.92 7.45 4.11Q7.42 4.30 7.36 4.61Q7.31 4.93 7.28 5.22L7.28 5.22Q7.25 5.50 7.07 5.50L7.07 5.50Q6.87 5.50 6.87 5.22L6.87 5.22Q6.87 4.30 6.23 4.26L6.23 4.26Q4.12 4.09 3.71 4.09L3.71 4.09Q3.08 4.09 2.93 4.24Q2.79 4.40 2.77 4.87L2.77 4.87Q2.77 4.94 2.77 4.98L2.77 4.98Q2.73 5.74 2.73 7.32L2.73 7.32Q2.73 8.01 2.98 8.02L2.98 8.02Q3.05 8.02 3.17 8.03Q3.29 8.04 3.33 8.04L3.33 8.04Q3.43 8.04 3.63 8.03Q3.82 8.02 3.93 8.02L3.93 8.02L4.37 8.02Q5.21 8.02 5.48 7.97Q5.75 7.92 5.98 7.77L5.98 7.77Q6.10 7.69 6.17 7.57Q6.24 7.46 6.27 7.31Q6.30 7.15 6.34 7.08Q6.38 7.01 6.51 7.01Q6.64 7.01 6.66 7.06Q6.69 7.10 6.69 7.24L6.69 7.24Q6.69 7.34 6.63 7.73Q6.57 8.12 6.57 8.40L6.57 8.40Q6.57 8.67 6.62 9.05Q6.66 9.44 6.66 9.55L6.66 9.55Q6.66 9.77 6.62 9.83Q6.57 9.90 6.47 9.90L6.47 9.90Q6.23 9.90 6.17 9.55L6.17 9.55Q6.17 9.52 6.16 9.42Q6.15 9.32 6.14 9.28Q6.13 9.24 6.10 9.16Q6.08 9.09 6.05 9.04Q6.02 9.00 5.98 8.95Q5.94 8.90 5.87 8.88L5.87 8.88Q5.67 8.79 5.17 8.74Q4.66 8.68 4.51 8.68L4.51 8.68L3.29 8.68Q2.72 8.68 2.72 8.95L2.72 8.95Q2.72 9.35 2.70 9.96Q2.69 10.57 2.69 10.96L2.69 10.96Q2.69 11.06 2.68 11.25Q2.67 11.44 2.67 11.52L2.67 11.52Q2.67 11.80 2.73 12.08Q2.79 12.36 3.06 12.67Q3.33 12.98 3.79 12.98L3.79 12.98Q4.21 12.98 4.21 13.23L4.21 13.23Q4.21 13.27 4.19 13.33Q4.16 13.38 4.05 13.44Q3.95 13.50 3.78 13.50L3.78 13.50Q3.56 13.50 3.07 13.44Q2.59 13.38 2.42 13.38L2.42 13.38Q2.03 13.38 1.55 13.43Q1.06 13.47 0.73 13.47L0.73 13.47Q0.45 13.47 0.45 13.31L0.45 13.31Q0.45 13.13 0.51 13.09Q0.57 13.05 1.05 12.88L1.05 12.88Q1.41 12.75 1.50 12.13Q1.58 11.51 1.60 9.60L1.60 9.60Q1.60 8.86 1.60 8.44L1.60 8.44Q1.60 8.06 1.62 7.26Q1.64 6.45 1.64 6.01L1.64 6.01L1.64 5.19Q1.64 4.27 0.98 3.96L0.98 3.96Q0.88 3.92 0.74 3.90Q0.60 3.88 0.51 3.88Q0.42 3.88 0.35 3.83Q0.28 3.78 0.28 3.68ZM15.04 3.71L15.04 3.71Q15.04 3.50 15.43 3.50L15.43 3.50Q15.57 3.50 16.07 3.53Q16.58 3.56 17.01 3.56L17.01 3.56Q17.28 3.56 17.52 3.54Q17.77 3.53 18.24 3.53L18.24 3.53Q18.62 3.53 18.62 3.72L18.62 3.72Q18.62 3.84 17.98 4.10L17.98 4.10Q17.53 4.28 17.53 5.71L17.53 5.71Q17.53 7.60 17.51 9.05Q17.49 10.50 17.49 10.89L17.49 10.89Q17.49 12.07 17.84 12.59L17.84 12.59Q18.14 13.02 18.51 13.02L18.51 13.02Q18.54 13.02 18.65 13.03Q18.76 13.03 18.79 13.03L18.79 13.03Q18.89 13.03 18.98 13.08Q19.08 13.13 19.08 13.19L19.08 13.19Q19.08 13.34 19.00 13.39Q18.93 13.44 18.73 13.44L18.73 13.44Q18.31 13.44 17.96 13.41Q17.60 13.38 17.40 13.38L17.40 13.38Q17.01 13.38 16.55 13.42Q16.09 13.45 15.86 13.45L15.86 13.45Q15.23 13.45 15.23 13.24L15.23 13.24Q15.23 13.12 15.37 13.07Q15.50 13.02 15.67 13.00Q15.83 12.98 16.02 12.82Q16.20 12.66 16.27 12.35L16.27 12.35Q16.30 12.25 16.36 10.76Q16.42 9.27 16.42 8.61L16.42 8.61L16.42 7.81Q16.42 7.63 16.43 7.12Q16.44 6.61 16.44 6.30L16.44 6.30L16.44 5.66Q16.44 5.04 16.38 4.63L16.38 4.63Q16.34 4.30 16.01 4.12Q15.68 3.93 15.33 3.92L15.33 3.92Q15.04 3.91 15.04 3.71ZM26.63 3.77L26.63 3.77Q26.63 3.68 26.73 3.60Q26.82 3.53 26.98 3.53L26.98 3.53Q27.06 3.53 27.26 3.54Q27.45 3.54 27.51 3.54L27.51 3.54Q27.72 3.54 27.90 3.53Q28.08 3.51 28.20 3.51L28.20 3.51Q28.32 3.51 28.49 3.59Q28.66 3.67 28.69 3.75L28.69 3.75Q28.71 3.79 28.84 3.94Q28.97 4.09 29.18 4.33Q29.39 4.56 29.55 4.79L29.55 4.79Q31.46 7.27 34.65 10.77L34.65 10.77Q34.73 10.86 34.85 10.99Q34.97 11.12 35.02 11.18Q35.07 11.24 35.13 11.30Q35.18 11.35 35.22 11.38Q35.25 11.40 35.28 11.40L35.28 11.40Q35.42 11.40 35.42 10.53L35.42 10.53L35.42 8.89Q35.42 7.95 35.41 7.31Q35.41 6.66 35.40 6.38Q35.39 6.09 35.39 6.02L35.39 6.02L35.39 5.92Q35.39 5.45 35.33 5.11Q35.27 4.77 35.18 4.59Q35.10 4.41 34.94 4.28Q34.78 4.16 34.66 4.12Q34.55 4.09 34.34 4.05Q34.13 4.00 34.05 3.98L34.05 3.98Q33.77 3.89 33.77 3.74L33.77 3.74Q33.77 3.53 34.03 3.53L34.03 3.53Q34.12 3.53 34.71 3.54Q35.29 3.54 35.36 3.54L35.36 3.54Q35.70 3.54 36.11 3.53Q36.53 3.51 36.62 3.51L36.62 3.51Q36.86 3.51 36.95 3.56Q37.04 3.61 37.04 3.75L37.04 3.75Q37.04 3.81 36.97 3.86Q36.89 3.91 36.81 3.94Q36.72 3.98 36.64 4.00L36.64 4.00L36.55 4.03Q36.09 4.28 36.09 5.61L36.09 5.61L36.09 6.15Q36.09 7.21 36.02 9.83Q35.94 12.46 35.94 13.08L35.94 13.08L35.94 13.36Q35.94 13.68 35.74 13.68L35.74 13.68Q35.62 13.68 35.52 13.58L35.52 13.58Q30.87 8.19 29.97 7.17Q29.06 6.16 28.97 6.16L28.97 6.16Q28.83 6.16 28.83 7.11L28.83 7.11Q28.83 8.44 28.77 9.97Q28.71 11.51 28.71 11.65L28.71 11.65Q28.71 12.28 28.93 12.61Q29.15 12.94 29.40 12.98Q29.65 13.02 29.87 13.07Q30.09 13.12 30.09 13.26L30.09 13.26Q30.09 13.41 30.04 13.45Q29.99 13.50 29.86 13.50L29.86 13.50Q29.76 13.50 29.42 13.48Q29.08 13.47 28.36 13.47L28.36 13.47Q28.24 13.47 27.85 13.48Q27.45 13.50 27.17 13.50L27.17 13.50Q26.87 13.50 26.87 13.27L26.87 13.27Q26.87 13.15 27.05 13.11Q27.23 13.08 27.50 12.89Q27.76 12.71 27.90 12.21L27.90 12.21Q27.99 11.89 28.11 9.60Q28.24 7.32 28.24 6.45L28.24 6.45Q28.24 5.25 27.90 4.65Q27.57 4.06 26.81 3.98L26.81 3.98Q26.63 3.96 26.63 3.77ZM44.80 3.64L44.80 3.64Q44.80 3.51 44.92 3.49Q45.04 3.47 45.51 3.47L45.51 3.47L46.73 3.47Q47.08 3.47 48.02 3.44Q48.96 3.42 49.46 3.42L49.46 3.42Q50.43 3.42 51.39 3.71Q52.36 4.00 53.17 4.56Q53.98 5.11 54.49 6.00Q54.99 6.89 54.99 7.98L54.99 7.98Q54.99 8.96 54.86 9.68Q54.73 10.40 54.42 10.93Q54.11 11.45 53.80 11.78Q53.49 12.11 52.96 12.56L52.96 12.56Q52.54 12.89 51.74 13.19Q50.95 13.48 50.11 13.48L50.11 13.48Q50.02 13.48 48.68 13.45Q47.33 13.41 46.75 13.41L46.75 13.41Q46.26 13.41 45.84 13.45Q45.42 13.48 45.35 13.48L45.35 13.48Q45.01 13.48 45.01 13.30L45.01 13.30Q45.01 13.19 45.06 13.14Q45.11 13.09 45.27 13.05Q45.43 13.01 45.50 12.98L45.50 12.98Q45.72 12.88 45.91 12.61Q46.10 12.33 46.10 12.07L46.10 12.07Q46.10 11.28 46.11 10.07Q46.12 8.85 46.12 8.27L46.12 8.27Q46.12 7.77 46.11 6.70Q46.10 5.63 46.10 4.72L46.10 4.72Q46.10 4.48 45.87 4.23Q45.64 3.99 45.36 3.98L45.36 3.98Q45.16 3.96 45.07 3.95Q44.98 3.93 44.89 3.86Q44.80 3.78 44.80 3.64ZM47.28 11.47L47.28 11.47Q47.28 11.73 47.28 11.90Q47.29 12.07 47.34 12.21Q47.39 12.35 47.42 12.40Q47.45 12.46 47.59 12.53Q47.73 12.60 47.80 12.62Q47.88 12.64 48.13 12.71Q48.38 12.78 48.55 12.82L48.55 12.82Q49.04 12.96 49.57 12.96L49.57 12.96L49.85 12.96Q50.81 12.96 51.48 12.69Q52.15 12.42 52.77 11.83L52.77 11.83Q53.80 10.84 53.80 8.61L53.80 8.61Q53.80 7.49 53.36 6.58Q52.92 5.67 52.21 5.13Q51.49 4.59 50.67 4.30Q49.84 4.02 49 4.02L49 4.02Q48.62 4.02 48.45 4.02Q48.27 4.02 48.04 4.05Q47.81 4.09 47.73 4.11Q47.66 4.13 47.54 4.25Q47.43 4.37 47.41 4.45Q47.39 4.54 47.35 4.78Q47.32 5.03 47.32 5.21Q47.32 5.39 47.32 5.80L47.32 5.80Q47.32 6.10 47.31 7.24Q47.29 8.39 47.29 8.48L47.29 8.48Q47.29 9.32 47.28 10.30Q47.28 11.28 47.28 11.47ZM72.87 13.33L72.87 13.33Q72.87 13.13 73.08 13.06L73.08 13.06Q73.53 12.89 73.86 12.31Q74.20 11.73 75.53 8.83L75.53 8.83Q76.90 5.87 77.95 3.63L77.95 3.63Q78.05 3.42 78.13 3.36Q78.20 3.30 78.37 3.30L78.37 3.30Q78.50 3.30 78.54 3.36Q78.58 3.42 78.72 3.82L78.72 3.82Q78.81 4.06 78.87 4.23Q78.93 4.40 79.07 4.77Q79.21 5.15 79.38 5.56L79.38 5.56Q79.83 6.66 80.93 9.22Q82.03 11.77 82.12 11.98L82.12 11.98Q82.36 12.46 82.66 12.71Q82.95 12.95 83.17 12.97Q83.38 12.99 83.53 13.04Q83.68 13.09 83.68 13.26L83.68 13.26Q83.68 13.47 83.30 13.47L83.30 13.47Q83.15 13.47 82.70 13.43Q82.25 13.38 82.04 13.38L82.04 13.38Q81.77 13.38 81.35 13.41Q80.93 13.44 80.74 13.44L80.74 13.44Q80.30 13.44 80.19 13.40Q80.07 13.37 80.07 13.24L80.07 13.24Q80.07 13.15 80.18 13.08Q80.29 13.02 80.42 13.00Q80.54 12.98 80.65 12.87Q80.77 12.77 80.77 12.59L80.77 12.59Q80.77 12.28 80.42 11.33Q80.07 10.37 79.83 9.93L79.83 9.93Q79.70 9.69 79.25 9.69L79.25 9.69Q79.18 9.69 78.64 9.70Q78.09 9.72 77.56 9.72L77.56 9.72L76.82 9.72Q76.19 9.72 76.03 9.79Q75.87 9.86 75.74 10.12L75.74 10.12Q75.66 10.30 75.46 10.70Q75.26 11.10 75.19 11.26Q75.12 11.41 75.02 11.65Q74.91 11.90 74.88 12.05Q74.84 12.19 74.84 12.31L74.84 12.31Q74.84 12.63 75.01 12.80Q75.17 12.96 75.36 12.98Q75.56 13.01 75.72 13.06Q75.88 13.12 75.88 13.26L75.88 13.26Q75.88 13.36 75.84 13.40Q75.80 13.45 75.64 13.45L75.64 13.45Q75.56 13.45 75.16 13.45Q74.76 13.44 74.48 13.44L74.48 13.44Q74.17 13.44 73.79 13.47Q73.40 13.50 73.28 13.50L73.28 13.50Q72.87 13.50 72.87 13.33ZM76.38 8.71L76.38 8.71Q76.38 8.89 76.51 8.93Q76.64 8.97 77.10 8.97L77.10 8.97L77.53 8.97L78.86 8.96Q79.41 8.96 79.41 8.74L79.41 8.74Q79.41 8.55 78.72 7.01Q78.04 5.46 77.85 5.46L77.85 5.46Q77.73 5.46 77.06 7.01Q76.38 8.55 76.38 8.71ZM91.24 3.77L91.24 3.77Q91.24 3.68 91.34 3.60Q91.43 3.53 91.59 3.53L91.59 3.53Q91.67 3.53 91.87 3.54Q92.06 3.54 92.12 3.54L92.12 3.54Q92.33 3.54 92.51 3.53Q92.69 3.51 92.81 3.51L92.81 3.51Q92.93 3.51 93.10 3.59Q93.27 3.67 93.30 3.75L93.30 3.75Q93.32 3.79 93.45 3.94Q93.58 4.09 93.79 4.33Q94.00 4.56 94.16 4.79L94.16 4.79Q96.07 7.27 99.26 10.77L99.26 10.77Q99.34 10.86 99.46 10.99Q99.58 11.12 99.63 11.18Q99.68 11.24 99.74 11.30Q99.79 11.35 99.83 11.38Q99.86 11.40 99.89 11.40L99.89 11.40Q100.03 11.40 100.03 10.53L100.03 10.53L100.03 8.89Q100.03 7.95 100.02 7.31Q100.02 6.66 100.01 6.38Q100.00 6.09 100.00 6.02L100.00 6.02L100.00 5.92Q100.00 5.45 99.94 5.11Q99.88 4.77 99.79 4.59Q99.71 4.41 99.55 4.28Q99.39 4.16 99.27 4.12Q99.16 4.09 98.95 4.05Q98.74 4.00 98.66 3.98L98.66 3.98Q98.38 3.89 98.38 3.74L98.38 3.74Q98.38 3.53 98.64 3.53L98.64 3.53Q98.73 3.53 99.32 3.54Q99.90 3.54 99.97 3.54L99.97 3.54Q100.31 3.54 100.72 3.53Q101.14 3.51 101.23 3.51L101.23 3.51Q101.47 3.51 101.56 3.56Q101.65 3.61 101.65 3.75L101.65 3.75Q101.65 3.81 101.58 3.86Q101.50 3.91 101.42 3.94Q101.33 3.98 101.25 4.00L101.25 4.00L101.16 4.03Q100.70 4.28 100.70 5.61L100.70 5.61L100.70 6.15Q100.70 7.21 100.63 9.83Q100.55 12.46 100.55 13.08L100.55 13.08L100.55 13.36Q100.55 13.68 100.35 13.68L100.35 13.68Q100.23 13.68 100.13 13.58L100.13 13.58Q95.48 8.19 94.58 7.17Q93.67 6.16 93.58 6.16L93.58 6.16Q93.44 6.16 93.44 7.11L93.44 7.11Q93.44 8.44 93.38 9.97Q93.32 11.51 93.32 11.65L93.32 11.65Q93.32 12.28 93.54 12.61Q93.76 12.94 94.01 12.98Q94.26 13.02 94.48 13.07Q94.70 13.12 94.70 13.26L94.70 13.26Q94.70 13.41 94.65 13.45Q94.60 13.50 94.47 13.50L94.47 13.50Q94.37 13.50 94.03 13.48Q93.69 13.47 92.97 13.47L92.97 13.47Q92.85 13.47 92.46 13.48Q92.06 13.50 91.78 13.50L91.78 13.50Q91.48 13.50 91.48 13.27L91.48 13.27Q91.48 13.15 91.66 13.11Q91.84 13.08 92.11 12.89Q92.37 12.71 92.51 12.21L92.51 12.21Q92.60 11.89 92.72 9.60Q92.85 7.32 92.85 6.45L92.85 6.45Q92.85 5.25 92.51 4.65Q92.18 4.06 91.42 3.98L91.42 3.98Q91.24 3.96 91.24 3.77ZM109.96 10.82L109.96 10.82Q109.96 10.53 110.15 10.53L110.15 10.53Q110.33 10.53 110.38 10.67L110.38 10.67Q110.52 11.00 110.63 11.25Q110.75 11.49 111.02 11.85Q111.29 12.21 111.59 12.44Q111.90 12.67 112.38 12.84Q112.87 13.01 113.44 13.01L113.44 13.01Q114.49 13.01 115.13 12.45Q115.77 11.90 115.77 11.00L115.77 11.00Q115.77 10.35 115.33 9.90Q114.90 9.46 114.34 9.27Q113.78 9.09 112.92 8.77Q112.06 8.46 111.51 8.13L111.51 8.13Q110.24 7.38 110.24 6.08L110.24 6.08Q110.24 4.83 111.14 4.08Q112.04 3.33 113.48 3.33L113.48 3.33Q114.02 3.33 114.75 3.56Q115.49 3.79 115.50 3.79L115.50 3.79Q115.54 3.79 115.65 3.74Q115.77 3.68 115.82 3.68L115.82 3.68Q116.00 3.68 116.03 3.79L116.03 3.79Q116.33 5.49 116.33 5.70L116.33 5.70Q116.33 6.09 116.13 6.09L116.13 6.09Q116.00 6.09 115.93 5.89L115.93 5.89Q115.77 5.49 115.60 5.24Q115.44 4.98 115.37 4.91Q115.30 4.84 115.01 4.58L115.01 4.58Q114.25 3.91 113.18 3.91L113.18 3.91Q112.31 3.91 111.72 4.33Q111.13 4.75 111.13 5.46L111.13 5.46Q111.13 6.09 111.47 6.50Q111.82 6.90 112.39 7.13Q112.97 7.35 113.60 7.55Q114.23 7.74 114.93 8.09Q115.64 8.44 116.10 8.93L116.10 8.93Q116.66 9.53 116.66 10.43L116.66 10.43Q116.66 11.90 115.72 12.76Q114.79 13.62 113.40 13.62L113.40 13.62Q112.43 13.62 111.85 13.52Q111.26 13.41 110.64 13.09L110.64 13.09Q110.46 12.98 110.21 12.00Q109.96 11.02 109.96 10.82ZM124.56 3.71L124.56 3.71Q124.56 3.51 124.94 3.51L124.94 3.51Q125.02 3.51 125.47 3.54Q125.93 3.56 126.48 3.56L126.48 3.56Q126.87 3.56 127.26 3.54Q127.65 3.51 127.68 3.51L127.68 3.51Q127.81 3.51 127.84 3.55Q127.88 3.58 127.88 3.68L127.88 3.68Q127.88 3.77 127.57 3.92Q127.27 4.07 127.27 4.34L127.27 4.34Q127.27 4.47 127.33 4.65Q127.39 4.83 127.55 5.22Q127.72 5.61 127.91 6.03Q128.10 6.45 128.49 7.33Q128.88 8.20 129.26 9.07L129.26 9.07Q129.36 9.30 129.55 9.74Q129.74 10.18 129.86 10.46Q129.98 10.74 130.12 11.05Q130.26 11.37 130.35 11.52Q130.44 11.68 130.48 11.68L130.48 11.68Q130.54 11.68 130.93 10.81Q131.32 9.94 131.63 9.17L131.63 9.17Q131.68 9.04 131.76 8.89Q131.84 8.74 131.87 8.63Q131.91 8.53 131.91 8.41L131.91 8.41Q131.91 8.25 131.07 6.36Q130.23 4.48 129.99 4.21L129.99 4.21Q129.93 4.14 129.88 4.10Q129.82 4.06 129.77 4.02Q129.72 3.99 129.69 3.97Q129.65 3.95 129.60 3.94Q129.54 3.93 129.52 3.93Q129.50 3.93 129.44 3.93Q129.37 3.92 129.36 3.92L129.36 3.92Q128.97 3.88 128.88 3.84Q128.80 3.81 128.80 3.70L128.80 3.70Q128.80 3.50 129.21 3.50L129.21 3.50Q129.29 3.50 129.75 3.53Q130.21 3.56 130.75 3.56L130.75 3.56Q130.77 3.56 131.12 3.53Q131.47 3.50 131.67 3.50L131.67 3.50Q132.09 3.50 132.09 3.61L132.09 3.61Q132.09 3.70 131.94 3.78Q131.78 3.86 131.63 4.00Q131.49 4.13 131.49 4.33L131.49 4.33Q131.49 4.59 131.92 5.57L131.92 5.57Q131.95 5.63 132.11 6.03Q132.27 6.44 132.40 6.71Q132.52 6.99 132.58 6.99L132.58 6.99Q132.69 6.99 133.14 5.76Q133.59 4.54 133.59 4.31L133.59 4.31Q133.59 4.06 133.38 3.96Q133.17 3.85 132.96 3.80Q132.75 3.75 132.75 3.64L132.75 3.64Q132.75 3.49 133.06 3.49L133.06 3.49Q133.14 3.49 133.48 3.50Q133.81 3.51 133.95 3.51L133.95 3.51L134.19 3.51Q134.39 3.51 134.93 3.47L134.93 3.47L135.06 3.47Q135.24 3.47 135.24 3.61Q135.24 3.75 134.97 3.84Q134.71 3.92 134.61 4.02L134.61 4.02Q134.39 4.24 134.22 4.66L134.22 4.66Q133.92 5.38 133.52 6.33L133.52 6.33Q133.10 7.31 133.03 7.50Q132.96 7.70 132.96 7.85L132.96 7.85Q132.96 7.97 133.81 9.87Q134.67 11.77 134.82 11.77L134.82 11.77Q134.99 11.77 136.45 8.24Q137.91 4.70 137.91 4.35L137.91 4.35Q137.91 4.13 137.75 4.01Q137.59 3.89 137.40 3.87Q137.20 3.85 137.04 3.80Q136.88 3.75 136.88 3.64L136.88 3.64Q136.88 3.54 136.92 3.52Q136.96 3.50 137.14 3.50L137.14 3.50Q137.19 3.50 137.47 3.51Q137.75 3.51 138.03 3.51L138.03 3.51Q138.28 3.51 138.59 3.50Q138.91 3.49 139.27 3.49L139.27 3.49Q139.55 3.49 139.55 3.68L139.55 3.68Q139.55 3.78 139.47 3.84Q139.40 3.89 139.24 3.98Q139.09 4.06 138.98 4.17L138.98 4.17Q138.91 4.24 138.86 4.31Q138.81 4.38 138.75 4.49Q138.70 4.59 138.66 4.66Q138.63 4.73 138.55 4.91Q138.47 5.08 138.43 5.18L138.43 5.18Q137.35 7.59 136.02 10.58L136.02 10.58Q134.96 13.01 134.76 13.41Q134.57 13.82 134.46 13.82L134.46 13.82Q134.39 13.82 134.29 13.64Q134.19 13.47 134.01 13.05Q133.84 12.64 133.81 12.57L133.81 12.57Q133.67 12.26 133.44 11.72Q133.21 11.17 133.05 10.79Q132.89 10.42 132.72 10.02Q132.55 9.63 132.44 9.43Q132.33 9.23 132.29 9.23L132.29 9.23Q132.15 9.23 131.34 11.16Q130.54 13.09 130.48 13.31L130.48 13.31Q130.47 13.37 130.44 13.43Q130.42 13.48 130.41 13.52Q130.40 13.57 130.38 13.61Q130.37 13.65 130.35 13.68Q130.34 13.71 130.33 13.73Q130.33 13.76 130.31 13.78Q130.30 13.80 130.28 13.82Q130.27 13.83 130.26 13.84Q130.24 13.85 130.23 13.85Q130.21 13.86 130.19 13.86L130.19 13.86Q130.06 13.86 129.88 13.46Q129.70 13.06 129.22 11.89Q128.74 10.72 128.25 9.65L128.25 9.65Q127.44 7.87 126.53 5.63L126.53 5.63Q126.27 4.96 125.96 4.57Q125.65 4.19 125.41 4.09Q125.17 3.99 124.98 3.98Q124.78 3.96 124.67 3.92Q124.56 3.88 124.56 3.71ZM147.10 3.65L147.10 3.65Q147.10 3.46 147.49 3.46L147.49 3.46Q147.55 3.46 147.67 3.47Q147.80 3.49 147.87 3.49L147.87 3.49Q147.91 3.49 149.18 3.52Q150.46 3.56 151.28 3.56L151.28 3.56Q151.58 3.56 152.73 3.53Q153.89 3.50 154.08 3.50L154.08 3.50Q154.35 3.50 154.35 3.82L154.35 3.82Q154.35 3.91 154.27 4.38Q154.18 4.84 154.18 5.25L154.18 5.25Q154.18 5.38 154.11 5.47Q154.04 5.56 153.96 5.56L153.96 5.56Q153.75 5.56 153.75 5.26L153.75 5.26Q153.75 4.89 153.51 4.58Q153.27 4.27 152.92 4.26L152.92 4.26Q151.66 4.16 150.99 4.16L150.99 4.16L150.63 4.16Q149.90 4.16 149.78 4.26Q149.66 4.37 149.63 5.01L149.63 5.01Q149.58 6.02 149.58 7.35L149.58 7.35Q149.58 8.05 149.84 8.06L149.84 8.06L150.19 8.06L150.78 8.06L151.21 8.06Q152.05 8.06 152.33 8.01Q152.61 7.95 152.84 7.80L152.84 7.80Q153.10 7.62 153.16 7.28L153.16 7.28Q153.20 7.04 153.36 7.04L153.36 7.04Q153.48 7.04 153.51 7.08Q153.54 7.13 153.54 7.27L153.54 7.27Q153.54 7.36 153.48 7.91Q153.43 8.46 153.43 8.74L153.43 8.74Q153.43 9.00 153.45 9.24Q153.47 9.48 153.47 9.59L153.47 9.59Q153.47 9.94 153.37 9.94L153.37 9.94Q153.16 9.94 153.06 9.60L153.06 9.60Q152.87 9.02 152.71 8.92L152.71 8.92Q152.42 8.72 151.37 8.72L151.37 8.72Q150.95 8.72 150.69 8.72Q150.43 8.72 150.35 8.71Q150.28 8.71 150.23 8.71Q150.18 8.71 150.14 8.71L150.14 8.71Q149.56 8.71 149.56 8.97L149.56 8.97Q149.56 9.38 149.55 9.99Q149.53 10.60 149.53 10.99L149.53 10.99L149.53 11.55Q149.53 12.56 149.87 12.66L149.87 12.66Q150.22 12.77 150.47 12.77L150.47 12.77Q151.52 12.77 152.31 12.67Q153.10 12.57 153.50 12.42Q153.90 12.28 154.17 12.10Q154.43 11.93 154.51 11.78Q154.59 11.63 154.66 11.54Q154.74 11.44 154.83 11.44L154.83 11.44Q154.99 11.44 154.99 11.68L154.99 11.68Q154.99 12.28 154.39 12.89Q153.79 13.51 153.34 13.51L153.34 13.51Q152.33 13.51 151.07 13.44Q149.80 13.37 149.49 13.37L149.49 13.37Q149.10 13.37 148.51 13.43Q147.92 13.50 147.59 13.50L147.59 13.50Q147.29 13.50 147.29 13.36L147.29 13.36Q147.29 13.23 147.29 13.19Q147.29 13.15 147.34 13.12Q147.38 13.09 147.43 13.08Q147.48 13.08 147.61 13.03Q147.74 12.99 147.90 12.92L147.90 12.92Q148.23 12.75 148.34 12.26Q148.44 11.77 148.44 10.21L148.44 10.21L148.44 8.47Q148.44 8.09 148.46 7.29Q148.48 6.50 148.48 6.05L148.48 6.05Q148.48 5.67 148.46 4.77L148.46 4.77Q148.44 4.37 148.11 4.14Q147.77 3.92 147.32 3.91L147.32 3.91Q147.10 3.91 147.10 3.65ZM162.55 3.70L162.55 3.70Q162.55 3.47 162.96 3.47L162.96 3.47L165.28 3.47Q165.61 3.47 166.03 3.45Q166.45 3.43 166.68 3.43L166.68 3.43Q167.94 3.43 168.84 4.07Q169.74 4.70 169.74 5.78L169.74 5.78Q169.74 6.50 169.46 7.03Q169.19 7.57 168.86 7.81Q168.53 8.05 168.26 8.22Q167.99 8.40 167.99 8.46L167.99 8.46Q167.99 8.62 169.16 10.27Q170.34 11.91 170.77 12.38L170.77 12.38Q171.30 13.03 172.06 13.03L172.06 13.03Q172.26 13.03 172.26 13.20L172.26 13.20Q172.26 13.41 172.09 13.48Q171.92 13.55 171.22 13.55L171.22 13.55Q170.56 13.55 170.02 13.23L170.02 13.23Q169.32 12.82 167.65 10.09L167.65 10.09Q167.55 9.94 167.51 9.87L167.51 9.87Q166.84 8.78 166.47 8.78L166.47 8.78L166.18 8.78L165.33 8.78Q165.16 8.78 165.12 8.92Q165.09 9.06 165.09 9.77L165.09 9.77Q165.09 10.44 165.09 10.88Q165.09 11.31 165.09 11.43Q165.10 11.55 165.10 11.63Q165.10 11.70 165.10 11.75L165.10 11.75Q165.10 12.32 165.37 12.63Q165.63 12.95 165.96 13.00Q166.29 13.05 166.56 13.11Q166.82 13.17 166.82 13.31L166.82 13.31Q166.82 13.54 166.57 13.54L166.57 13.54Q166.56 13.54 165.61 13.49Q164.65 13.44 164.57 13.44L164.57 13.44Q164.16 13.44 163.60 13.47Q163.04 13.50 163.03 13.50L163.03 13.50Q162.74 13.50 162.74 13.27L162.74 13.27Q162.74 13.12 162.92 13.05Q163.10 12.99 163.32 12.96Q163.55 12.94 163.73 12.66Q163.91 12.38 163.91 11.86L163.91 11.86Q163.91 11.49 163.92 9.90Q163.93 8.30 163.93 7.45L163.93 7.45Q163.93 6.58 163.92 5.86Q163.91 5.14 163.91 5.08L163.91 5.08Q163.91 4.56 163.70 4.29Q163.49 4.02 163.23 3.98Q162.97 3.95 162.76 3.89Q162.55 3.84 162.55 3.70ZM165.09 5.54L165.09 5.94Q165.09 7.38 165.10 7.72Q165.12 8.06 165.20 8.12L165.20 8.12Q165.41 8.25 165.80 8.25L165.80 8.25L165.94 8.25L166.35 8.25Q167.54 8.25 168.05 7.70Q168.56 7.15 168.56 6.30L168.56 6.30Q168.56 5.43 167.88 4.72Q167.20 4.00 165.83 4.00L165.83 4.00Q165.31 4.00 165.20 4.28Q165.09 4.55 165.09 5.54L165.09 5.54ZM179.94 10.82L179.94 10.82Q179.94 10.53 180.14 10.53L180.14 10.53Q180.32 10.53 180.36 10.67L180.36 10.67Q180.50 11.00 180.62 11.25Q180.74 11.49 181.01 11.85Q181.27 12.21 181.58 12.44Q181.89 12.67 182.37 12.84Q182.85 13.01 183.43 13.01L183.43 13.01Q184.48 13.01 185.11 12.45Q185.75 11.90 185.75 11.00L185.75 11.00Q185.75 10.35 185.32 9.90Q184.88 9.46 184.32 9.27Q183.76 9.09 182.90 8.77Q182.04 8.46 181.50 8.13L181.50 8.13Q180.22 7.38 180.22 6.08L180.22 6.08Q180.22 4.83 181.12 4.08Q182.03 3.33 183.47 3.33L183.47 3.33Q184.00 3.33 184.74 3.56Q185.47 3.79 185.49 3.79L185.49 3.79Q185.53 3.79 185.64 3.74Q185.75 3.68 185.81 3.68L185.81 3.68Q185.99 3.68 186.02 3.79L186.02 3.79Q186.31 5.49 186.31 5.70L186.31 5.70Q186.31 6.09 186.12 6.09L186.12 6.09Q185.99 6.09 185.92 5.89L185.92 5.89Q185.75 5.49 185.59 5.24Q185.43 4.98 185.36 4.91Q185.29 4.84 185.00 4.58L185.00 4.58Q184.24 3.91 183.16 3.91L183.16 3.91Q182.29 3.91 181.71 4.33Q181.12 4.75 181.12 5.46L181.12 5.46Q181.12 6.09 181.46 6.50Q181.80 6.90 182.38 7.13Q182.95 7.35 183.58 7.55Q184.21 7.74 184.92 8.09Q185.63 8.44 186.09 8.93L186.09 8.93Q186.65 9.53 186.65 10.43L186.65 10.43Q186.65 11.90 185.71 12.76Q184.77 13.62 183.39 13.62L183.39 13.62Q182.42 13.62 181.83 13.52Q181.24 13.41 180.63 13.09L180.63 13.09Q180.45 12.98 180.19 12.00Q179.94 11.02 179.94 10.82ZM204.72 5.32L204.72 5.32Q204.72 4.76 204.86 3.88L204.86 3.88Q204.86 3.85 204.87 3.78Q204.88 3.71 204.88 3.69Q204.89 3.67 204.90 3.62Q204.90 3.57 204.92 3.55Q204.93 3.53 204.95 3.49Q204.97 3.46 205.00 3.44Q205.03 3.43 205.07 3.42Q205.11 3.40 205.17 3.39Q205.23 3.39 205.30 3.39L205.30 3.39Q205.52 3.39 206.48 3.44Q207.44 3.50 209.24 3.50L209.24 3.50Q212.32 3.50 213.56 3.43L213.56 3.43Q213.57 3.43 213.60 3.42Q213.64 3.42 213.65 3.42L213.65 3.42Q213.81 3.42 213.86 3.50Q213.92 3.58 213.92 3.65L213.92 3.65Q213.92 3.75 213.96 4.24Q214.00 4.73 214.00 4.79L214.00 4.79Q214.00 5.14 213.96 5.23Q213.92 5.32 213.78 5.32L213.78 5.32Q213.67 5.32 213.63 5.15L213.63 5.15Q213.51 4.75 213.43 4.60Q213.35 4.45 213.07 4.34Q212.79 4.23 212.21 4.23L212.21 4.23L210.39 4.23Q210.06 4.23 209.98 4.36Q209.90 4.49 209.90 5.12L209.90 5.12L209.90 5.81Q209.90 7.69 209.88 9.11Q209.86 10.54 209.86 10.93L209.86 10.93Q209.86 11.13 209.85 11.43Q209.85 11.73 209.85 11.84L209.85 11.84Q209.85 12.45 210.04 12.64L210.04 12.64Q210.22 12.81 210.45 12.90Q210.67 12.99 210.83 13.01Q210.99 13.02 211.11 13.08Q211.22 13.13 211.22 13.26L211.22 13.26Q211.22 13.41 211.15 13.45Q211.08 13.50 210.88 13.50L210.88 13.50Q210.71 13.50 210.14 13.44Q209.57 13.38 209.33 13.38L209.33 13.38Q209.16 13.38 208.65 13.43Q208.14 13.48 207.90 13.48L207.90 13.48Q207.38 13.48 207.38 13.26L207.38 13.26Q207.38 13.12 207.47 13.07Q207.55 13.02 207.79 12.98Q208.04 12.95 208.11 12.94L208.11 12.94Q208.59 12.82 208.64 12.38L208.64 12.38Q208.78 11.14 208.78 7.08L208.78 7.08L208.77 4.58Q208.77 4.31 208.61 4.25Q208.46 4.19 207.70 4.19L207.70 4.19Q206.72 4.19 206.23 4.24Q205.73 4.30 205.65 4.35Q205.56 4.40 205.45 4.54L205.45 4.54Q205.32 4.70 205.25 4.91Q205.17 5.11 205.15 5.24Q205.13 5.38 205.06 5.47Q205.00 5.56 204.88 5.56L204.88 5.56Q204.72 5.56 204.72 5.32ZM221.90 8.69L221.90 8.69Q221.90 6.34 223.31 4.84Q224.73 3.33 227.32 3.33L227.32 3.33Q228.52 3.33 229.49 3.68Q230.45 4.03 231.01 4.54Q231.57 5.05 231.95 5.71Q232.33 6.37 232.47 6.92Q232.61 7.48 232.61 7.95L232.61 7.95Q232.61 9.86 231.87 11.16Q231.13 12.47 229.91 13.07Q228.70 13.66 227.12 13.66L227.12 13.66Q225.46 13.66 224.24 12.94Q223.03 12.21 222.47 11.10Q221.90 10.00 221.90 8.69ZM223.13 7.98L223.13 7.98Q223.13 8.54 223.29 9.19Q223.44 9.84 223.79 10.54Q224.14 11.23 224.64 11.78Q225.13 12.33 225.90 12.69Q226.66 13.05 227.57 13.05L227.57 13.05Q228.05 13.05 228.57 12.90Q229.10 12.75 229.61 12.45Q230.13 12.14 230.54 11.70Q230.94 11.26 231.20 10.62Q231.46 9.98 231.46 9.24L231.46 9.24Q231.46 6.71 230.13 5.30Q228.80 3.89 226.84 3.89L226.84 3.89Q225.30 3.89 224.22 4.93Q223.13 5.96 223.13 7.98ZM250.49 3.81L250.49 3.81Q250.49 3.65 250.65 3.61Q250.81 3.57 251.36 3.57L251.36 3.57Q251.44 3.57 251.74 3.58Q252.04 3.60 252.17 3.60L252.17 3.60Q252.32 3.60 252.73 3.59Q253.15 3.58 253.36 3.58L253.36 3.58Q254.06 3.58 254.06 3.75L254.06 3.75Q254.06 3.91 253.76 4.01Q253.47 4.12 253.47 4.24L253.47 4.24Q253.47 4.38 253.56 4.61Q253.65 4.83 253.74 4.97Q253.83 5.11 254.02 5.38Q254.20 5.64 254.23 5.70L254.23 5.70Q254.70 6.45 255.21 7.14Q255.72 7.83 255.79 7.83L255.79 7.83Q255.88 7.83 256.00 7.66Q256.13 7.50 256.35 7.13Q256.58 6.75 256.73 6.52L256.73 6.52Q256.77 6.45 256.93 6.22Q257.10 5.98 257.16 5.88Q257.22 5.78 257.35 5.58Q257.47 5.38 257.53 5.27Q257.59 5.17 257.66 5.02Q257.74 4.87 257.77 4.77Q257.80 4.68 257.80 4.59L257.80 4.59Q257.80 4.14 257.32 4.03L257.32 4.03Q257.26 4.02 257.16 4.00Q257.05 3.99 257.00 3.98Q256.96 3.96 256.89 3.93Q256.82 3.91 256.79 3.86Q256.76 3.81 256.76 3.74L256.76 3.74Q256.76 3.57 257.15 3.57L257.15 3.57Q257.22 3.57 257.41 3.58Q257.60 3.58 257.73 3.58L257.73 3.58Q258.05 3.58 258.50 3.59Q258.96 3.60 259.21 3.60L259.21 3.60Q259.90 3.60 259.90 3.81L259.90 3.81Q259.90 3.86 259.81 3.91Q259.73 3.95 259.57 4.02Q259.42 4.09 259.29 4.19L259.29 4.19Q258.72 4.63 257.61 6.31Q256.49 7.99 256.34 8.19L256.34 8.19Q256.12 8.47 256.06 8.81Q256.00 9.14 256.00 9.95L256.00 9.95Q256.00 10.14 256.01 10.73Q256.02 11.33 256.02 11.58L256.02 11.58L256.02 11.91Q256.02 12.38 256.18 12.64Q256.34 12.91 256.48 12.96Q256.62 13.01 256.76 13.01L256.76 13.01Q256.79 13.01 256.90 13.01Q257.01 13.02 257.04 13.02L257.04 13.02Q257.14 13.02 257.19 13.08Q257.25 13.15 257.25 13.22L257.25 13.22Q257.25 13.36 257.18 13.40Q257.11 13.44 256.91 13.44L256.91 13.44Q256.84 13.44 256.30 13.43Q255.77 13.43 255.51 13.43L255.51 13.43Q255.02 13.43 254.62 13.45Q254.21 13.48 253.97 13.48L253.97 13.48Q253.58 13.48 253.58 13.33L253.58 13.33Q253.58 13.20 253.66 13.15Q253.74 13.10 253.92 13.09Q254.10 13.08 254.18 13.05L254.18 13.05Q254.77 12.87 254.77 12.19L254.77 12.19Q254.77 12.11 254.78 11.92Q254.79 11.73 254.79 11.12Q254.80 10.50 254.80 9.35L254.80 9.35Q254.80 9.13 254.76 8.97Q254.73 8.81 254.68 8.65Q254.63 8.50 254.44 8.20Q254.25 7.91 254.07 7.64Q253.89 7.36 253.45 6.72Q253.01 6.08 252.60 5.46L252.60 5.46Q252.17 4.80 251.82 4.46Q251.47 4.12 251.28 4.05Q251.09 3.99 250.84 3.99L250.84 3.99Q250.49 3.99 250.49 3.81ZM267.39 8.69L267.39 8.69Q267.39 6.34 268.80 4.84Q270.21 3.33 272.80 3.33L272.80 3.33Q274.01 3.33 274.97 3.68Q275.94 4.03 276.50 4.54Q277.06 5.05 277.44 5.71Q277.82 6.37 277.96 6.92Q278.10 7.48 278.10 7.95L278.10 7.95Q278.10 9.86 277.35 11.16Q276.61 12.47 275.40 13.07Q274.19 13.66 272.61 13.66L272.61 13.66Q270.94 13.66 269.73 12.94Q268.52 12.21 267.95 11.10Q267.39 10.00 267.39 8.69ZM268.62 7.98L268.62 7.98Q268.62 8.54 268.77 9.19Q268.93 9.84 269.28 10.54Q269.63 11.23 270.12 11.78Q270.62 12.33 271.38 12.69Q272.15 13.05 273.06 13.05L273.06 13.05Q273.53 13.05 274.06 12.90Q274.58 12.75 275.10 12.45Q275.62 12.14 276.02 11.70Q276.43 11.26 276.69 10.62Q276.95 9.98 276.95 9.24L276.95 9.24Q276.95 6.71 275.62 5.30Q274.29 3.89 272.33 3.89L272.33 3.89Q270.79 3.89 269.70 4.93Q268.62 5.96 268.62 7.98ZM285.99 3.68L285.99 3.68Q285.99 3.61 286.01 3.58Q286.02 3.56 286.09 3.53Q286.16 3.50 286.31 3.50Q286.47 3.50 286.96 3.53Q287.45 3.56 287.90 3.56L287.90 3.56Q288.18 3.56 288.41 3.54Q288.64 3.53 289.21 3.53L289.21 3.53Q289.51 3.53 289.51 3.72L289.51 3.72Q289.51 3.85 289.41 3.88Q289.31 3.91 289.16 3.92Q289.02 3.93 288.87 4.02Q288.72 4.10 288.62 4.43Q288.53 4.76 288.53 5.32L288.53 5.32L288.53 5.71Q288.53 6.37 288.52 7.37Q288.51 8.37 288.51 8.74L288.51 8.74Q288.51 9.17 288.52 9.39Q288.53 9.62 288.55 10.04Q288.58 10.47 288.63 10.72Q288.68 10.96 288.79 11.32Q288.90 11.68 289.06 11.89Q289.23 12.10 289.47 12.35Q289.72 12.60 290.04 12.73Q290.36 12.87 290.79 12.96Q291.23 13.05 291.76 13.05L291.76 13.05Q292.21 13.05 292.46 13.03Q292.71 13.02 293.15 12.94Q293.59 12.87 293.85 12.72Q294.11 12.57 294.44 12.27Q294.77 11.97 294.95 11.54Q295.13 11.10 295.26 10.43Q295.39 9.76 295.39 8.90L295.39 8.90Q295.39 7.49 295.38 6.75Q295.37 6.01 295.37 5.94L295.37 5.94Q295.37 5.45 295.35 5.17Q295.33 4.89 295.21 4.55Q295.09 4.21 294.87 4.06L294.87 4.06Q294.73 3.96 294.50 3.93Q294.28 3.89 294.14 3.87Q294 3.85 294 3.75L294 3.75Q294 3.53 294.28 3.53L294.28 3.53Q294.36 3.53 294.83 3.54Q295.29 3.56 295.36 3.56L295.36 3.56Q295.69 3.56 296.07 3.54Q296.45 3.51 296.55 3.51L296.55 3.51Q296.84 3.51 296.84 3.70L296.84 3.70Q296.84 3.81 296.54 3.98Q296.24 4.16 296.17 4.30L296.17 4.30Q296.02 4.59 296.02 5.22L296.02 5.22Q296.02 5.32 296.02 5.62Q296.03 5.92 296.03 6.16L296.03 6.16Q296.03 8.85 295.81 10.28Q295.58 11.70 295.13 12.36Q294.67 13.01 293.76 13.40L293.76 13.40Q293.02 13.71 291.76 13.71L291.76 13.71Q289.42 13.71 288.44 12.81L288.44 12.81Q287.67 12.10 287.49 11.09Q287.31 10.09 287.31 7.64L287.31 7.64L287.31 7.41Q287.31 6.86 287.32 6.20Q287.34 5.54 287.34 5.39L287.34 5.39Q287.34 4.62 287.15 4.33Q286.97 4.05 286.30 3.95L286.30 3.95Q285.99 3.91 285.99 3.68ZM304.40 3.70L304.40 3.70Q304.40 3.47 304.81 3.47L304.81 3.47L307.13 3.47Q307.45 3.47 307.87 3.45Q308.29 3.43 308.53 3.43L308.53 3.43Q309.79 3.43 310.69 4.07Q311.58 4.70 311.58 5.78L311.58 5.78Q311.58 6.50 311.31 7.03Q311.04 7.57 310.71 7.81Q310.38 8.05 310.11 8.22Q309.83 8.40 309.83 8.46L309.83 8.46Q309.83 8.62 311.01 10.27Q312.19 11.91 312.62 12.38L312.62 12.38Q313.15 13.03 313.91 13.03L313.91 13.03Q314.10 13.03 314.10 13.20L314.10 13.20Q314.10 13.41 313.94 13.48Q313.77 13.55 313.07 13.55L313.07 13.55Q312.41 13.55 311.86 13.23L311.86 13.23Q311.16 12.82 309.50 10.09L309.50 10.09Q309.40 9.94 309.36 9.87L309.36 9.87Q308.69 8.78 308.32 8.78L308.32 8.78L308.03 8.78L307.17 8.78Q307.01 8.78 306.97 8.92Q306.94 9.06 306.94 9.77L306.94 9.77Q306.94 10.44 306.94 10.88Q306.94 11.31 306.94 11.43Q306.95 11.55 306.95 11.63Q306.95 11.70 306.95 11.75L306.95 11.75Q306.95 12.32 307.22 12.63Q307.48 12.95 307.81 13.00Q308.14 13.05 308.41 13.11Q308.67 13.17 308.67 13.31L308.67 13.31Q308.67 13.54 308.42 13.54L308.42 13.54Q308.41 13.54 307.45 13.49Q306.50 13.44 306.42 13.44L306.42 13.44Q306.01 13.44 305.45 13.47Q304.89 13.50 304.88 13.50L304.88 13.50Q304.58 13.50 304.58 13.27L304.58 13.27Q304.58 13.12 304.77 13.05Q304.95 12.99 305.17 12.96Q305.40 12.94 305.58 12.66Q305.76 12.38 305.76 11.86L305.76 11.86Q305.76 11.49 305.77 9.90Q305.77 8.30 305.77 7.45L305.77 7.45Q305.77 6.58 305.77 5.86Q305.76 5.14 305.76 5.08L305.76 5.08Q305.76 4.56 305.55 4.29Q305.34 4.02 305.08 3.98Q304.82 3.95 304.61 3.89Q304.40 3.84 304.40 3.70ZM306.94 5.54L306.94 5.94Q306.94 7.38 306.95 7.72Q306.96 8.06 307.05 8.12L307.05 8.12Q307.26 8.25 307.65 8.25L307.65 8.25L307.79 8.25L308.20 8.25Q309.39 8.25 309.90 7.70Q310.41 7.15 310.41 6.30L310.41 6.30Q310.41 5.43 309.73 4.72Q309.05 4.00 307.68 4.00L307.68 4.00Q307.16 4.00 307.05 4.28Q306.94 4.55 306.94 5.54L306.94 5.54ZM331.44 3.68L331.44 3.68Q331.44 3.61 331.45 3.58Q331.46 3.56 331.53 3.53Q331.60 3.50 331.76 3.50Q331.91 3.50 332.40 3.53Q332.89 3.56 333.34 3.56L333.34 3.56Q333.62 3.56 333.85 3.54Q334.08 3.53 334.66 3.53L334.66 3.53Q334.95 3.53 334.95 3.72L334.95 3.72Q334.95 3.85 334.85 3.88Q334.75 3.91 334.61 3.92Q334.46 3.93 334.31 4.02Q334.17 4.10 334.07 4.43Q333.97 4.76 333.97 5.32L333.97 5.32L333.97 5.71Q333.97 6.37 333.96 7.37Q333.96 8.37 333.96 8.74L333.96 8.74Q333.96 9.17 333.96 9.39Q333.97 9.62 334.00 10.04Q334.03 10.47 334.08 10.72Q334.12 10.96 334.24 11.32Q334.35 11.68 334.51 11.89Q334.67 12.10 334.92 12.35Q335.16 12.60 335.48 12.73Q335.80 12.87 336.24 12.96Q336.67 13.05 337.20 13.05L337.20 13.05Q337.65 13.05 337.90 13.03Q338.16 13.02 338.60 12.94Q339.04 12.87 339.30 12.72Q339.56 12.57 339.89 12.27Q340.21 11.97 340.40 11.54Q340.58 11.10 340.70 10.43Q340.83 9.76 340.83 8.90L340.83 8.90Q340.83 7.49 340.82 6.75Q340.82 6.01 340.82 5.94L340.82 5.94Q340.82 5.45 340.80 5.17Q340.77 4.89 340.66 4.55Q340.54 4.21 340.31 4.06L340.31 4.06Q340.17 3.96 339.95 3.93Q339.72 3.89 339.58 3.87Q339.44 3.85 339.44 3.75L339.44 3.75Q339.44 3.53 339.72 3.53L339.72 3.53Q339.81 3.53 340.27 3.54Q340.73 3.56 340.80 3.56L340.80 3.56Q341.14 3.56 341.52 3.54Q341.89 3.51 341.99 3.51L341.99 3.51Q342.29 3.51 342.29 3.70L342.29 3.70Q342.29 3.81 341.99 3.98Q341.68 4.16 341.61 4.30L341.61 4.30Q341.46 4.59 341.46 5.22L341.46 5.22Q341.46 5.32 341.47 5.62Q341.47 5.92 341.47 6.16L341.47 6.16Q341.47 8.85 341.25 10.28Q341.03 11.70 340.57 12.36Q340.12 13.01 339.21 13.40L339.21 13.40Q338.46 13.71 337.20 13.71L337.20 13.71Q334.87 13.71 333.89 12.81L333.89 12.81Q333.12 12.10 332.93 11.09Q332.75 10.09 332.75 7.64L332.75 7.64L332.75 7.41Q332.75 6.86 332.77 6.20Q332.78 5.54 332.78 5.39L332.78 5.39Q332.78 4.62 332.60 4.33Q332.42 4.05 331.74 3.95L331.74 3.95Q331.44 3.91 331.44 3.68ZM349.85 3.77L349.85 3.77Q349.85 3.68 349.94 3.60Q350.04 3.53 350.20 3.53L350.20 3.53Q350.28 3.53 350.48 3.54Q350.67 3.54 350.73 3.54L350.73 3.54Q350.94 3.54 351.12 3.53Q351.30 3.51 351.41 3.51L351.41 3.51Q351.54 3.51 351.71 3.59Q351.88 3.67 351.90 3.75L351.90 3.75Q351.93 3.79 352.06 3.94Q352.18 4.09 352.39 4.33Q352.60 4.56 352.77 4.79L352.77 4.79Q354.68 7.27 357.87 10.77L357.87 10.77Q357.95 10.86 358.07 10.99Q358.19 11.12 358.24 11.18Q358.29 11.24 358.34 11.30Q358.40 11.35 358.44 11.38Q358.47 11.40 358.50 11.40L358.50 11.40Q358.64 11.40 358.64 10.53L358.64 10.53L358.64 8.89Q358.64 7.95 358.63 7.31Q358.62 6.66 358.62 6.38Q358.61 6.09 358.61 6.02L358.61 6.02L358.61 5.92Q358.61 5.45 358.55 5.11Q358.48 4.77 358.40 4.59Q358.32 4.41 358.16 4.28Q357.99 4.16 357.88 4.12Q357.77 4.09 357.56 4.05Q357.35 4.00 357.27 3.98L357.27 3.98Q356.99 3.89 356.99 3.74L356.99 3.74Q356.99 3.53 357.25 3.53L357.25 3.53Q357.34 3.53 357.92 3.54Q358.51 3.54 358.58 3.54L358.58 3.54Q358.92 3.54 359.33 3.53Q359.74 3.51 359.84 3.51L359.84 3.51Q360.08 3.51 360.17 3.56Q360.26 3.61 360.26 3.75L360.26 3.75Q360.26 3.81 360.19 3.86Q360.11 3.91 360.02 3.94Q359.94 3.98 359.86 4.00L359.86 4.00L359.77 4.03Q359.31 4.28 359.31 5.61L359.31 5.61L359.31 6.15Q359.31 7.21 359.23 9.83Q359.16 12.46 359.16 13.08L359.16 13.08L359.16 13.36Q359.16 13.68 358.96 13.68L358.96 13.68Q358.83 13.68 358.74 13.58L358.74 13.58Q354.09 8.19 353.19 7.17Q352.28 6.16 352.18 6.16L352.18 6.16Q352.04 6.16 352.04 7.11L352.04 7.11Q352.04 8.44 351.99 9.97Q351.93 11.51 351.93 11.65L351.93 11.65Q351.93 12.28 352.15 12.61Q352.37 12.94 352.62 12.98Q352.87 13.02 353.09 13.07Q353.30 13.12 353.30 13.26L353.30 13.26Q353.30 13.41 353.26 13.45Q353.21 13.50 353.08 13.50L353.08 13.50Q352.98 13.50 352.64 13.48Q352.30 13.47 351.58 13.47L351.58 13.47Q351.46 13.47 351.06 13.48Q350.67 13.50 350.39 13.50L350.39 13.50Q350.08 13.50 350.08 13.27L350.08 13.27Q350.08 13.15 350.27 13.11Q350.45 13.08 350.71 12.89Q350.98 12.71 351.12 12.21L351.12 12.21Q351.20 11.89 351.33 9.60Q351.46 7.32 351.46 6.45L351.46 6.45Q351.46 5.25 351.12 4.65Q350.78 4.06 350.03 3.98L350.03 3.98Q349.85 3.96 349.85 3.77ZM368.02 3.64L368.02 3.64Q368.02 3.51 368.14 3.49Q368.26 3.47 368.73 3.47L368.73 3.47L369.95 3.47Q370.30 3.47 371.24 3.44Q372.18 3.42 372.68 3.42L372.68 3.42Q373.65 3.42 374.61 3.71Q375.58 4.00 376.39 4.56Q377.20 5.11 377.71 6.00Q378.21 6.89 378.21 7.98L378.21 7.98Q378.21 8.96 378.08 9.68Q377.94 10.40 377.64 10.93Q377.33 11.45 377.02 11.78Q376.71 12.11 376.18 12.56L376.18 12.56Q375.76 12.89 374.96 13.19Q374.16 13.48 373.32 13.48L373.32 13.48Q373.24 13.48 371.90 13.45Q370.55 13.41 369.96 13.41L369.96 13.41Q369.47 13.41 369.05 13.45Q368.63 13.48 368.56 13.48L368.56 13.48Q368.23 13.48 368.23 13.30L368.23 13.30Q368.23 13.19 368.28 13.14Q368.33 13.09 368.49 13.05Q368.65 13.01 368.72 12.98L368.72 12.98Q368.94 12.88 369.13 12.61Q369.32 12.33 369.32 12.07L369.32 12.07Q369.32 11.28 369.33 10.07Q369.33 8.85 369.33 8.27L369.33 8.27Q369.33 7.77 369.33 6.70Q369.32 5.63 369.32 4.72L369.32 4.72Q369.32 4.48 369.09 4.23Q368.86 3.99 368.58 3.98L368.58 3.98Q368.38 3.96 368.29 3.95Q368.20 3.93 368.11 3.86Q368.02 3.78 368.02 3.64ZM370.50 11.47L370.50 11.47Q370.50 11.73 370.50 11.90Q370.51 12.07 370.56 12.21Q370.61 12.35 370.64 12.40Q370.66 12.46 370.80 12.53Q370.94 12.60 371.02 12.62Q371.10 12.64 371.35 12.71Q371.60 12.78 371.77 12.82L371.77 12.82Q372.26 12.96 372.79 12.96L372.79 12.96L373.07 12.96Q374.02 12.96 374.70 12.69Q375.37 12.42 375.98 11.83L375.98 11.83Q377.02 10.84 377.02 8.61L377.02 8.61Q377.02 7.49 376.58 6.58Q376.14 5.67 375.42 5.13Q374.71 4.59 373.88 4.30Q373.06 4.02 372.22 4.02L372.22 4.02Q371.84 4.02 371.67 4.02Q371.49 4.02 371.26 4.05Q371.03 4.09 370.95 4.11Q370.87 4.13 370.76 4.25Q370.65 4.37 370.63 4.45Q370.61 4.54 370.57 4.78Q370.54 5.03 370.54 5.21Q370.54 5.39 370.54 5.80L370.54 5.80Q370.54 6.10 370.52 7.24Q370.51 8.39 370.51 8.48L370.51 8.48Q370.51 9.32 370.50 10.30Q370.50 11.28 370.50 11.47ZM386.44 8.69L386.44 8.69Q386.44 6.34 387.86 4.84Q389.27 3.33 391.86 3.33L391.86 3.33Q393.06 3.33 394.03 3.68Q395.00 4.03 395.56 4.54Q396.12 5.05 396.49 5.71Q396.87 6.37 397.01 6.92Q397.15 7.48 397.15 7.95L397.15 7.95Q397.15 9.86 396.41 11.16Q395.67 12.47 394.46 13.07Q393.25 13.66 391.66 13.66L391.66 13.66Q390.00 13.66 388.79 12.94Q387.58 12.21 387.01 11.10Q386.44 10.00 386.44 8.69ZM387.67 7.98L387.67 7.98Q387.67 8.54 387.83 9.19Q387.98 9.84 388.33 10.54Q388.68 11.23 389.18 11.78Q389.68 12.33 390.44 12.69Q391.20 13.05 392.11 13.05L392.11 13.05Q392.59 13.05 393.11 12.90Q393.64 12.75 394.16 12.45Q394.67 12.14 395.08 11.70Q395.49 11.26 395.75 10.62Q396.00 9.98 396.00 9.24L396.00 9.24Q396.00 6.71 394.67 5.30Q393.34 3.89 391.38 3.89L391.38 3.89Q389.84 3.89 388.76 4.93Q387.67 5.96 387.67 7.98ZM405.38 8.90L405.38 8.90Q405.38 7.38 405.97 6.16Q406.56 4.94 407.79 4.19Q409.01 3.44 410.69 3.44L410.69 3.44Q411.54 3.44 412.41 3.70Q413.28 3.95 413.80 4.20L413.80 4.20L414.32 4.47Q414.36 4.47 414.46 4.40Q414.55 4.33 414.61 4.33L414.61 4.33Q414.68 4.33 414.75 4.38Q414.82 4.44 414.82 4.55L414.82 4.55Q414.83 4.96 414.88 5.41Q414.93 5.87 414.97 6.16Q415.02 6.45 415.02 6.51L415.02 6.51Q415.02 6.76 414.85 6.76L414.85 6.76Q414.72 6.76 414.61 6.57L414.61 6.57Q413.25 4.02 410.69 4.02L410.69 4.02Q408.94 4.02 407.82 5.14Q406.70 6.26 406.70 8.06L406.70 8.06Q406.70 9.06 406.96 9.93Q407.22 10.79 407.74 11.51Q408.27 12.24 409.19 12.66Q410.12 13.08 411.35 13.08L411.35 13.08Q413.36 13.08 414.74 10.98L414.74 10.98Q414.79 10.88 414.95 10.88L414.95 10.88Q415.07 10.88 415.07 11.07L415.07 11.07Q415.07 11.23 415.02 11.49Q414.97 11.75 414.90 12.06Q414.83 12.38 414.82 12.45L414.82 12.45Q414.79 12.60 414.60 12.70L414.60 12.70Q413.84 13.06 413.41 13.24Q412.99 13.43 412.33 13.57Q411.67 13.72 410.98 13.72L410.98 13.72Q409.77 13.72 408.79 13.43Q407.81 13.13 407.18 12.66Q406.56 12.18 406.14 11.54Q405.72 10.91 405.55 10.25Q405.38 9.60 405.38 8.90ZM423.35 3.68L423.35 3.68Q423.35 3.61 423.36 3.58Q423.37 3.56 423.44 3.53Q423.51 3.50 423.67 3.50Q423.82 3.50 424.31 3.53Q424.80 3.56 425.25 3.56L425.25 3.56Q425.53 3.56 425.76 3.54Q425.99 3.53 426.57 3.53L426.57 3.53Q426.86 3.53 426.86 3.72L426.86 3.72Q426.86 3.85 426.76 3.88Q426.66 3.91 426.52 3.92Q426.37 3.93 426.22 4.02Q426.08 4.10 425.98 4.43Q425.88 4.76 425.88 5.32L425.88 5.32L425.88 5.71Q425.88 6.37 425.87 7.37Q425.87 8.37 425.87 8.74L425.87 8.74Q425.87 9.17 425.87 9.39Q425.88 9.62 425.91 10.04Q425.94 10.47 425.99 10.72Q426.03 10.96 426.15 11.32Q426.26 11.68 426.42 11.89Q426.58 12.10 426.83 12.35Q427.07 12.60 427.39 12.73Q427.71 12.87 428.15 12.96Q428.58 13.05 429.11 13.05L429.11 13.05Q429.56 13.05 429.81 13.03Q430.07 13.02 430.51 12.94Q430.95 12.87 431.21 12.72Q431.47 12.57 431.80 12.27Q432.12 11.97 432.31 11.54Q432.49 11.10 432.61 10.43Q432.74 9.76 432.74 8.90L432.74 8.90Q432.74 7.49 432.73 6.75Q432.73 6.01 432.73 5.94L432.73 5.94Q432.73 5.45 432.71 5.17Q432.68 4.89 432.57 4.55Q432.45 4.21 432.22 4.06L432.22 4.06Q432.08 3.96 431.86 3.93Q431.63 3.89 431.49 3.87Q431.35 3.85 431.35 3.75L431.35 3.75Q431.35 3.53 431.63 3.53L431.63 3.53Q431.72 3.53 432.18 3.54Q432.64 3.56 432.71 3.56L432.71 3.56Q433.05 3.56 433.43 3.54Q433.80 3.51 433.90 3.51L433.90 3.51Q434.20 3.51 434.20 3.70L434.20 3.70Q434.20 3.81 433.90 3.98Q433.59 4.16 433.52 4.30L433.52 4.30Q433.37 4.59 433.37 5.22L433.37 5.22Q433.37 5.32 433.38 5.62Q433.38 5.92 433.38 6.16L433.38 6.16Q433.38 8.85 433.16 10.28Q432.94 11.70 432.48 12.36Q432.03 13.01 431.12 13.40L431.12 13.40Q430.37 13.71 429.11 13.71L429.11 13.71Q426.78 13.71 425.80 12.81L425.80 12.81Q425.03 12.10 424.84 11.09Q424.66 10.09 424.66 7.64L424.66 7.64L424.66 7.41Q424.66 6.86 424.68 6.20Q424.69 5.54 424.69 5.39L424.69 5.39Q424.69 4.62 424.51 4.33Q424.33 4.05 423.65 3.95L423.65 3.95Q423.35 3.91 423.35 3.68ZM441.76 3.71L441.76 3.71Q441.76 3.50 442.01 3.50L442.01 3.50Q442.09 3.50 442.39 3.53Q442.69 3.56 442.75 3.56L442.75 3.56Q442.96 3.56 443.32 3.54Q443.69 3.53 443.80 3.53L443.80 3.53Q444.07 3.53 444.14 3.72L444.14 3.72Q444.30 4.09 444.74 5.03Q445.17 5.98 445.43 6.54Q445.69 7.10 446.10 7.97Q446.50 8.83 446.75 9.37Q447.01 9.91 447.28 10.46Q447.55 11.00 447.70 11.26Q447.85 11.52 447.89 11.52Q447.93 11.52 447.98 11.47Q448.03 11.42 448.08 11.34Q448.13 11.26 448.16 11.17Q448.20 11.09 448.26 10.96Q448.32 10.82 448.35 10.75L448.35 10.75L450.16 7.03Q450.46 6.40 450.70 5.89Q450.94 5.39 451.08 5.08Q451.22 4.77 451.32 4.55Q451.42 4.33 451.47 4.21Q451.51 4.10 451.54 4.04Q451.56 3.98 451.57 3.94Q451.58 3.91 451.60 3.88Q451.61 3.85 451.65 3.75Q451.68 3.65 451.72 3.62Q451.75 3.58 451.86 3.54Q451.96 3.50 452.13 3.50L452.13 3.50Q452.40 3.50 452.63 3.51Q452.86 3.53 453.33 3.53L453.33 3.53Q453.57 3.53 453.57 3.71L453.57 3.71Q453.57 3.85 453.48 3.91Q453.39 3.98 453.11 4.02L453.11 4.02Q452.76 4.06 452.62 4.37Q452.48 4.68 452.48 5.54L452.48 5.54Q452.48 7.43 452.56 8.97Q452.65 10.50 452.65 10.89L452.65 10.89Q452.65 12.29 452.87 12.68Q453.10 13.06 453.81 13.06L453.81 13.06Q453.91 13.06 453.99 13.13Q454.06 13.20 454.06 13.26L454.06 13.26Q454.06 13.34 454.05 13.38Q454.03 13.43 453.99 13.45Q453.95 13.48 453.91 13.48Q453.87 13.48 453.75 13.48L453.75 13.48Q453.33 13.48 452.93 13.45Q452.52 13.43 452.33 13.43L452.33 13.43Q451.93 13.43 451.51 13.46Q451.09 13.50 450.87 13.50L450.87 13.50Q450.62 13.50 450.62 13.30L450.62 13.30Q450.62 13.17 450.73 13.12Q450.84 13.06 450.99 13.05Q451.14 13.03 451.30 12.87Q451.46 12.71 451.53 12.39L451.53 12.39Q451.58 12.11 451.58 11.49L451.58 11.49Q451.58 11.05 451.56 10.42Q451.54 9.79 451.51 9.19Q451.49 8.60 451.46 8.07Q451.43 7.55 451.42 7.21L451.42 7.21L451.39 6.87Q451.39 6.27 451.26 6.27L451.26 6.27Q451.25 6.27 451.22 6.29Q451.19 6.30 451.17 6.33Q451.15 6.36 451.12 6.38Q451.09 6.41 451.07 6.47Q451.04 6.54 451.01 6.58Q450.98 6.62 450.94 6.70Q450.90 6.78 450.87 6.83Q450.84 6.89 450.79 6.99Q450.74 7.08 450.72 7.15L450.72 7.15L448.77 11.09Q448.43 11.77 448.06 12.56L448.06 12.56Q447.80 13.09 447.75 13.18Q447.69 13.27 447.61 13.27L447.61 13.27Q447.48 13.27 447.40 13.15Q447.31 13.03 447.15 12.63Q446.98 12.22 446.85 11.96L446.85 11.96Q444.29 6.75 444.22 6.65L444.22 6.65Q444.18 6.59 444.14 6.59L444.14 6.59Q444.02 6.59 444.02 7.15L444.02 7.15Q444.01 8.25 443.95 9.31Q443.90 10.37 443.90 10.85L443.90 10.85L443.90 11.48Q443.90 11.84 443.92 12.04Q443.94 12.24 444.03 12.49Q444.12 12.75 444.36 12.89Q444.60 13.03 444.98 13.08L444.98 13.08Q445.05 13.08 445.11 13.13Q445.17 13.17 445.17 13.23L445.17 13.23Q445.17 13.38 445.13 13.43Q445.09 13.48 444.96 13.48L444.96 13.48Q444.68 13.48 444.12 13.45Q443.56 13.43 443.51 13.43L443.51 13.43Q443.48 13.43 443.10 13.45Q442.72 13.47 442.36 13.47L442.36 13.47Q442.25 13.47 442.20 13.45Q442.15 13.44 442.11 13.39Q442.06 13.34 442.06 13.24L442.06 13.24Q442.06 13.13 442.19 13.09Q442.32 13.05 442.48 13.04Q442.64 13.03 442.83 12.82Q443.03 12.60 443.13 12.18L443.13 12.18Q443.20 11.87 443.30 9.74Q443.39 7.62 443.39 6.59L443.39 6.59Q443.39 5.19 443.12 4.66Q442.85 4.13 441.94 3.92L441.94 3.92Q441.76 3.88 441.76 3.71ZM461.62 3.65L461.62 3.65Q461.62 3.46 462.01 3.46L462.01 3.46Q462.07 3.46 462.20 3.47Q462.32 3.49 462.39 3.49L462.39 3.49Q462.43 3.49 463.71 3.52Q464.98 3.56 465.81 3.56L465.81 3.56Q466.10 3.56 467.26 3.53Q468.41 3.50 468.61 3.50L468.61 3.50Q468.87 3.50 468.87 3.82L468.87 3.82Q468.87 3.91 468.79 4.38Q468.71 4.84 468.71 5.25L468.71 5.25Q468.71 5.38 468.64 5.47Q468.57 5.56 468.48 5.56L468.48 5.56Q468.27 5.56 468.27 5.26L468.27 5.26Q468.27 4.89 468.03 4.58Q467.80 4.27 467.45 4.26L467.45 4.26Q466.19 4.16 465.51 4.16L465.51 4.16L465.15 4.16Q464.42 4.16 464.30 4.26Q464.18 4.37 464.16 5.01L464.16 5.01Q464.10 6.02 464.10 7.35L464.10 7.35Q464.10 8.05 464.37 8.06L464.37 8.06L464.72 8.06L465.30 8.06L465.74 8.06Q466.58 8.06 466.86 8.01Q467.14 7.95 467.36 7.80L467.36 7.80Q467.63 7.62 467.68 7.28L467.68 7.28Q467.73 7.04 467.88 7.04L467.88 7.04Q468.01 7.04 468.03 7.08Q468.06 7.13 468.06 7.27L468.06 7.27Q468.06 7.36 468.01 7.91Q467.95 8.46 467.95 8.74L467.95 8.74Q467.95 9.00 467.97 9.24Q467.99 9.48 467.99 9.59L467.99 9.59Q467.99 9.94 467.89 9.94L467.89 9.94Q467.68 9.94 467.59 9.60L467.59 9.60Q467.39 9.02 467.24 8.92L467.24 8.92Q466.94 8.72 465.89 8.72L465.89 8.72Q465.47 8.72 465.21 8.72Q464.95 8.72 464.88 8.71Q464.80 8.71 464.75 8.71Q464.70 8.71 464.66 8.71L464.66 8.71Q464.09 8.71 464.09 8.97L464.09 8.97Q464.09 9.38 464.07 9.99Q464.06 10.60 464.06 10.99L464.06 10.99L464.06 11.55Q464.06 12.56 464.39 12.66L464.39 12.66Q464.74 12.77 465.00 12.77L465.00 12.77Q466.05 12.77 466.84 12.67Q467.63 12.57 468.03 12.42Q468.43 12.28 468.69 12.10Q468.96 11.93 469.04 11.78Q469.11 11.63 469.19 11.54Q469.27 11.44 469.35 11.44L469.35 11.44Q469.52 11.44 469.52 11.68L469.52 11.68Q469.52 12.28 468.92 12.89Q468.31 13.51 467.87 13.51L467.87 13.51Q466.86 13.51 465.59 13.44Q464.32 13.37 464.02 13.37L464.02 13.37Q463.62 13.37 463.04 13.43Q462.45 13.50 462.11 13.50L462.11 13.50Q461.82 13.50 461.82 13.36L461.82 13.36Q461.82 13.23 461.82 13.19Q461.82 13.15 461.86 13.12Q461.90 13.09 461.95 13.08Q462.00 13.08 462.13 13.03Q462.27 12.99 462.42 12.92L462.42 12.92Q462.76 12.75 462.86 12.26Q462.97 11.77 462.97 10.21L462.97 10.21L462.97 8.47Q462.97 8.09 462.99 7.29Q463.01 6.50 463.01 6.05L463.01 6.05Q463.01 5.67 462.98 4.77L462.98 4.77Q462.97 4.37 462.63 4.14Q462.29 3.92 461.85 3.91L461.85 3.91Q461.62 3.91 461.62 3.65ZM477.08 3.77L477.08 3.77Q477.08 3.68 477.18 3.60Q477.27 3.53 477.43 3.53L477.43 3.53Q477.51 3.53 477.71 3.54Q477.90 3.54 477.96 3.54L477.96 3.54Q478.17 3.54 478.35 3.53Q478.53 3.51 478.65 3.51L478.65 3.51Q478.77 3.51 478.94 3.59Q479.11 3.67 479.14 3.75L479.14 3.75Q479.16 3.79 479.29 3.94Q479.42 4.09 479.63 4.33Q479.84 4.56 480.00 4.79L480.00 4.79Q481.91 7.27 485.10 10.77L485.10 10.77Q485.18 10.86 485.30 10.99Q485.42 11.12 485.47 11.18Q485.52 11.24 485.58 11.30Q485.63 11.35 485.67 11.38Q485.70 11.40 485.73 11.40L485.73 11.40Q485.87 11.40 485.87 10.53L485.87 10.53L485.87 8.89Q485.87 7.95 485.86 7.31Q485.86 6.66 485.85 6.38Q485.84 6.09 485.84 6.02L485.84 6.02L485.84 5.92Q485.84 5.45 485.78 5.11Q485.72 4.77 485.63 4.59Q485.55 4.41 485.39 4.28Q485.23 4.16 485.11 4.12Q485.00 4.09 484.79 4.05Q484.58 4.00 484.50 3.98L484.50 3.98Q484.22 3.89 484.22 3.74L484.22 3.74Q484.22 3.53 484.48 3.53L484.48 3.53Q484.57 3.53 485.16 3.54Q485.74 3.54 485.81 3.54L485.81 3.54Q486.15 3.54 486.56 3.53Q486.98 3.51 487.07 3.51L487.07 3.51Q487.31 3.51 487.40 3.56Q487.49 3.61 487.49 3.75L487.49 3.75Q487.49 3.81 487.42 3.86Q487.34 3.91 487.26 3.94Q487.17 3.98 487.09 4.00L487.09 4.00L487.00 4.03Q486.54 4.28 486.54 5.61L486.54 5.61L486.54 6.15Q486.54 7.21 486.47 9.83Q486.39 12.46 486.39 13.08L486.39 13.08L486.39 13.36Q486.39 13.68 486.19 13.68L486.19 13.68Q486.07 13.68 485.97 13.58L485.97 13.58Q481.32 8.19 480.42 7.17Q479.51 6.16 479.42 6.16L479.42 6.16Q479.28 6.16 479.28 7.11L479.28 7.11Q479.28 8.44 479.22 9.97Q479.16 11.51 479.16 11.65L479.16 11.65Q479.16 12.28 479.38 12.61Q479.60 12.94 479.85 12.98Q480.10 13.02 480.32 13.07Q480.54 13.12 480.54 13.26L480.54 13.26Q480.54 13.41 480.49 13.45Q480.44 13.50 480.31 13.50L480.31 13.50Q480.21 13.50 479.87 13.48Q479.53 13.47 478.81 13.47L478.81 13.47Q478.69 13.47 478.30 13.48Q477.90 13.50 477.62 13.50L477.62 13.50Q477.32 13.50 477.32 13.27L477.32 13.27Q477.32 13.15 477.50 13.11Q477.68 13.08 477.95 12.89Q478.21 12.71 478.35 12.21L478.35 12.21Q478.44 11.89 478.56 9.60Q478.69 7.32 478.69 6.45L478.69 6.45Q478.69 5.25 478.35 4.65Q478.02 4.06 477.26 3.98L477.26 3.98Q477.08 3.96 477.08 3.77ZM495.25 5.32L495.25 5.32Q495.25 4.76 495.39 3.88L495.39 3.88Q495.39 3.85 495.40 3.78Q495.40 3.71 495.41 3.69Q495.42 3.67 495.43 3.62Q495.43 3.57 495.45 3.55Q495.46 3.53 495.48 3.49Q495.50 3.46 495.53 3.44Q495.56 3.43 495.60 3.42Q495.64 3.40 495.70 3.39Q495.75 3.39 495.82 3.39L495.82 3.39Q496.05 3.39 497.01 3.44Q497.97 3.50 499.77 3.50L499.77 3.50Q502.85 3.50 504.08 3.43L504.08 3.43Q504.10 3.43 504.13 3.42Q504.17 3.42 504.18 3.42L504.18 3.42Q504.34 3.42 504.39 3.50Q504.45 3.58 504.45 3.65L504.45 3.65Q504.45 3.75 504.49 4.24Q504.53 4.73 504.53 4.79L504.53 4.79Q504.53 5.14 504.49 5.23Q504.45 5.32 504.31 5.32L504.31 5.32Q504.20 5.32 504.15 5.15L504.15 5.15Q504.04 4.75 503.96 4.60Q503.87 4.45 503.59 4.34Q503.31 4.23 502.74 4.23L502.74 4.23L500.92 4.23Q500.58 4.23 500.51 4.36Q500.43 4.49 500.43 5.12L500.43 5.12L500.43 5.81Q500.43 7.69 500.41 9.11Q500.39 10.54 500.39 10.93L500.39 10.93Q500.39 11.13 500.38 11.43Q500.37 11.73 500.37 11.84L500.37 11.84Q500.37 12.45 500.57 12.64L500.57 12.64Q500.75 12.81 500.98 12.90Q501.20 12.99 501.36 13.01Q501.52 13.02 501.63 13.08Q501.75 13.13 501.75 13.26L501.75 13.26Q501.75 13.41 501.68 13.45Q501.61 13.50 501.41 13.50L501.41 13.50Q501.24 13.50 500.67 13.44Q500.09 13.38 499.86 13.38L499.86 13.38Q499.69 13.38 499.18 13.43Q498.67 13.48 498.43 13.48L498.43 13.48Q497.91 13.48 497.91 13.26L497.91 13.26Q497.91 13.12 497.99 13.07Q498.08 13.02 498.32 12.98Q498.57 12.95 498.64 12.94L498.64 12.94Q499.11 12.82 499.17 12.38L499.17 12.38Q499.31 11.14 499.31 7.08L499.31 7.08L499.30 4.58Q499.30 4.31 499.14 4.25Q498.99 4.19 498.23 4.19L498.23 4.19Q497.25 4.19 496.76 4.24Q496.26 4.30 496.17 4.35Q496.09 4.40 495.98 4.54L495.98 4.54Q495.85 4.70 495.78 4.91Q495.70 5.11 495.68 5.24Q495.66 5.38 495.59 5.47Q495.53 5.56 495.40 5.56L495.40 5.56Q495.25 5.56 495.25 5.32ZM512.09 3.65L512.09 3.65Q512.09 3.46 512.48 3.46L512.48 3.46Q512.54 3.46 512.67 3.47Q512.79 3.49 512.86 3.49L512.86 3.49Q512.90 3.49 514.18 3.52Q515.45 3.56 516.28 3.56L516.28 3.56Q516.57 3.56 517.73 3.53Q518.88 3.50 519.08 3.50L519.08 3.50Q519.34 3.50 519.34 3.82L519.34 3.82Q519.34 3.91 519.26 4.38Q519.18 4.84 519.18 5.25L519.18 5.25Q519.18 5.38 519.11 5.47Q519.04 5.56 518.95 5.56L518.95 5.56Q518.74 5.56 518.74 5.26L518.74 5.26Q518.74 4.89 518.50 4.58Q518.27 4.27 517.92 4.26L517.92 4.26Q516.66 4.16 515.98 4.16L515.98 4.16L515.62 4.16Q514.89 4.16 514.77 4.26Q514.65 4.37 514.63 5.01L514.63 5.01Q514.57 6.02 514.57 7.35L514.57 7.35Q514.57 8.05 514.84 8.06L514.84 8.06L515.19 8.06L515.77 8.06L516.21 8.06Q517.05 8.06 517.33 8.01Q517.61 7.95 517.83 7.80L517.83 7.80Q518.10 7.62 518.15 7.28L518.15 7.28Q518.20 7.04 518.35 7.04L518.35 7.04Q518.48 7.04 518.50 7.08Q518.53 7.13 518.53 7.27L518.53 7.27Q518.53 7.36 518.48 7.91Q518.42 8.46 518.42 8.74L518.42 8.74Q518.42 9.00 518.44 9.24Q518.46 9.48 518.46 9.59L518.46 9.59Q518.46 9.94 518.36 9.94L518.36 9.94Q518.15 9.94 518.06 9.60L518.06 9.60Q517.86 9.02 517.71 8.92L517.71 8.92Q517.41 8.72 516.36 8.72L516.36 8.72Q515.94 8.72 515.68 8.72Q515.42 8.72 515.35 8.71Q515.27 8.71 515.22 8.71Q515.17 8.71 515.13 8.71L515.13 8.71Q514.56 8.71 514.56 8.97L514.56 8.97Q514.56 9.38 514.54 9.99Q514.53 10.60 514.53 10.99L514.53 10.99L514.53 11.55Q514.53 12.56 514.86 12.66L514.86 12.66Q515.21 12.77 515.47 12.77L515.47 12.77Q516.52 12.77 517.31 12.67Q518.10 12.57 518.50 12.42Q518.90 12.28 519.16 12.10Q519.43 11.93 519.51 11.78Q519.58 11.63 519.66 11.54Q519.74 11.44 519.82 11.44L519.82 11.44Q519.99 11.44 519.99 11.68L519.99 11.68Q519.99 12.28 519.39 12.89Q518.78 13.51 518.34 13.51L518.34 13.51Q517.33 13.51 516.06 13.44Q514.79 13.37 514.49 13.37L514.49 13.37Q514.09 13.37 513.51 13.43Q512.92 13.50 512.58 13.50L512.58 13.50Q512.29 13.50 512.29 13.36L512.29 13.36Q512.29 13.23 512.29 13.19Q512.29 13.15 512.33 13.12Q512.37 13.09 512.42 13.08Q512.47 13.08 512.60 13.03Q512.74 12.99 512.89 12.92L512.89 12.92Q513.23 12.75 513.33 12.26Q513.44 11.77 513.44 10.21L513.44 10.21L513.44 8.47Q513.44 8.09 513.46 7.29Q513.48 6.50 513.48 6.05L513.48 6.05Q513.48 5.67 513.45 4.77L513.45 4.77Q513.44 4.37 513.10 4.14Q512.76 3.92 512.32 3.91L512.32 3.91Q512.09 3.91 512.09 3.65ZM527.55 3.64L527.55 3.64Q527.55 3.51 527.67 3.49Q527.79 3.47 528.26 3.47L528.26 3.47L529.48 3.47Q529.83 3.47 530.77 3.44Q531.71 3.42 532.21 3.42L532.21 3.42Q533.18 3.42 534.14 3.71Q535.11 4.00 535.92 4.56Q536.73 5.11 537.24 6.00Q537.74 6.89 537.74 7.98L537.74 7.98Q537.74 8.96 537.61 9.68Q537.47 10.40 537.17 10.93Q536.86 11.45 536.55 11.78Q536.24 12.11 535.71 12.56L535.71 12.56Q535.29 12.89 534.49 13.19Q533.69 13.48 532.85 13.48L532.85 13.48Q532.77 13.48 531.43 13.45Q530.08 13.41 529.49 13.41L529.49 13.41Q529.00 13.41 528.58 13.45Q528.16 13.48 528.09 13.48L528.09 13.48Q527.76 13.48 527.76 13.30L527.76 13.30Q527.76 13.19 527.81 13.14Q527.86 13.09 528.02 13.05Q528.18 13.01 528.25 12.98L528.25 12.98Q528.47 12.88 528.66 12.61Q528.85 12.33 528.85 12.07L528.85 12.07Q528.85 11.28 528.86 10.07Q528.86 8.85 528.86 8.27L528.86 8.27Q528.86 7.77 528.86 6.70Q528.85 5.63 528.85 4.72L528.85 4.72Q528.85 4.48 528.62 4.23Q528.39 3.99 528.11 3.98L528.11 3.98Q527.91 3.96 527.82 3.95Q527.73 3.93 527.64 3.86Q527.55 3.78 527.55 3.64ZM530.03 11.47L530.03 11.47Q530.03 11.73 530.03 11.90Q530.04 12.07 530.09 12.21Q530.14 12.35 530.17 12.40Q530.19 12.46 530.33 12.53Q530.47 12.60 530.55 12.62Q530.63 12.64 530.88 12.71Q531.13 12.78 531.30 12.82L531.30 12.82Q531.79 12.96 532.32 12.96L532.32 12.96L532.60 12.96Q533.55 12.96 534.23 12.69Q534.90 12.42 535.51 11.83L535.51 11.83Q536.55 10.84 536.55 8.61L536.55 8.61Q536.55 7.49 536.11 6.58Q535.67 5.67 534.95 5.13Q534.24 4.59 533.41 4.30Q532.59 4.02 531.75 4.02L531.75 4.02Q531.37 4.02 531.20 4.02Q531.02 4.02 530.79 4.05Q530.56 4.09 530.48 4.11Q530.40 4.13 530.29 4.25Q530.18 4.37 530.16 4.45Q530.14 4.54 530.10 4.78Q530.07 5.03 530.07 5.21Q530.07 5.39 530.07 5.80L530.07 5.80Q530.07 6.10 530.05 7.24Q530.04 8.39 530.04 8.48L530.04 8.48Q530.04 9.32 530.03 10.30Q530.03 11.28 530.03 11.47ZM555.62 5.32L555.62 5.32Q555.62 4.76 555.76 3.88L555.76 3.88Q555.76 3.85 555.77 3.78Q555.77 3.71 555.78 3.69Q555.79 3.67 555.79 3.62Q555.80 3.57 555.81 3.55Q555.83 3.53 555.85 3.49Q555.87 3.46 555.90 3.44Q555.93 3.43 555.97 3.42Q556.01 3.40 556.07 3.39Q556.12 3.39 556.19 3.39L556.19 3.39Q556.42 3.39 557.38 3.44Q558.33 3.50 560.14 3.50L560.14 3.50Q563.22 3.50 564.45 3.43L564.45 3.43Q564.47 3.43 564.50 3.42Q564.54 3.42 564.55 3.42L564.55 3.42Q564.70 3.42 564.76 3.50Q564.82 3.58 564.82 3.65L564.82 3.65Q564.82 3.75 564.86 4.24Q564.90 4.73 564.90 4.79L564.90 4.79Q564.90 5.14 564.86 5.23Q564.82 5.32 564.68 5.32L564.68 5.32Q564.56 5.32 564.52 5.15L564.52 5.15Q564.41 4.75 564.33 4.60Q564.24 4.45 563.96 4.34Q563.68 4.23 563.11 4.23L563.11 4.23L561.29 4.23Q560.95 4.23 560.88 4.36Q560.80 4.49 560.80 5.12L560.80 5.12L560.80 5.81Q560.80 7.69 560.78 9.11Q560.76 10.54 560.76 10.93L560.76 10.93Q560.76 11.13 560.75 11.43Q560.74 11.73 560.74 11.84L560.74 11.84Q560.74 12.45 560.94 12.64L560.94 12.64Q561.12 12.81 561.34 12.90Q561.57 12.99 561.73 13.01Q561.89 13.02 562.00 13.08Q562.11 13.13 562.11 13.26L562.11 13.26Q562.11 13.41 562.04 13.45Q561.97 13.50 561.78 13.50L561.78 13.50Q561.61 13.50 561.04 13.44Q560.46 13.38 560.22 13.38L560.22 13.38Q560.06 13.38 559.55 13.43Q559.03 13.48 558.80 13.48L558.80 13.48Q558.28 13.48 558.28 13.26L558.28 13.26Q558.28 13.12 558.36 13.07Q558.45 13.02 558.69 12.98Q558.94 12.95 559.01 12.94L559.01 12.94Q559.48 12.82 559.54 12.38L559.54 12.38Q559.68 11.14 559.68 7.08L559.68 7.08L559.66 4.58Q559.66 4.31 559.51 4.25Q559.36 4.19 558.60 4.19L558.60 4.19Q557.62 4.19 557.12 4.24Q556.63 4.30 556.54 4.35Q556.46 4.40 556.35 4.54L556.35 4.54Q556.22 4.70 556.14 4.91Q556.07 5.11 556.05 5.24Q556.02 5.38 555.96 5.47Q555.90 5.56 555.77 5.56L555.77 5.56Q555.62 5.56 555.62 5.32ZM572.46 3.65L572.46 3.65Q572.46 3.46 572.85 3.46L572.85 3.46Q572.91 3.46 573.03 3.47Q573.16 3.49 573.23 3.49L573.23 3.49Q573.27 3.49 574.55 3.52Q575.82 3.56 576.65 3.56L576.65 3.56Q576.94 3.56 578.10 3.53Q579.25 3.50 579.45 3.50L579.45 3.50Q579.71 3.50 579.71 3.82L579.71 3.82Q579.71 3.91 579.63 4.38Q579.54 4.84 579.54 5.25L579.54 5.25Q579.54 5.38 579.47 5.47Q579.40 5.56 579.32 5.56L579.32 5.56Q579.11 5.56 579.11 5.26L579.11 5.26Q579.11 4.89 578.87 4.58Q578.63 4.27 578.28 4.26L578.28 4.26Q577.02 4.16 576.35 4.16L576.35 4.16L575.99 4.16Q575.26 4.16 575.14 4.26Q575.02 4.37 574.99 5.01L574.99 5.01Q574.94 6.02 574.94 7.35L574.94 7.35Q574.94 8.05 575.20 8.06L575.20 8.06L575.55 8.06L576.14 8.06L576.58 8.06Q577.42 8.06 577.70 8.01Q577.98 7.95 578.20 7.80L578.20 7.80Q578.47 7.62 578.52 7.28L578.52 7.28Q578.56 7.04 578.72 7.04L578.72 7.04Q578.84 7.04 578.87 7.08Q578.90 7.13 578.90 7.27L578.90 7.27Q578.90 7.36 578.84 7.91Q578.79 8.46 578.79 8.74L578.79 8.74Q578.79 9.00 578.81 9.24Q578.83 9.48 578.83 9.59L578.83 9.59Q578.83 9.94 578.73 9.94L578.73 9.94Q578.52 9.94 578.42 9.60L578.42 9.60Q578.23 9.02 578.07 8.92L578.07 8.92Q577.78 8.72 576.73 8.72L576.73 8.72Q576.31 8.72 576.05 8.72Q575.79 8.72 575.72 8.71Q575.64 8.71 575.59 8.71Q575.54 8.71 575.50 8.71L575.50 8.71Q574.92 8.71 574.92 8.97L574.92 8.97Q574.92 9.38 574.91 9.99Q574.90 10.60 574.90 10.99L574.90 10.99L574.90 11.55Q574.90 12.56 575.23 12.66L575.23 12.66Q575.58 12.77 575.83 12.77L575.83 12.77Q576.88 12.77 577.68 12.67Q578.47 12.57 578.87 12.42Q579.26 12.28 579.53 12.10Q579.80 11.93 579.87 11.78Q579.95 11.63 580.03 11.54Q580.10 11.44 580.19 11.44L580.19 11.44Q580.36 11.44 580.36 11.68L580.36 11.68Q580.36 12.28 579.75 12.89Q579.15 13.51 578.70 13.51L578.70 13.51Q577.70 13.51 576.43 13.44Q575.16 13.37 574.85 13.37L574.85 13.37Q574.46 13.37 573.87 13.43Q573.29 13.50 572.95 13.50L572.95 13.50Q572.66 13.50 572.66 13.36L572.66 13.36Q572.66 13.23 572.66 13.19Q572.66 13.15 572.70 13.12Q572.74 13.09 572.79 13.08Q572.84 13.08 572.97 13.03Q573.10 12.99 573.26 12.92L573.26 12.92Q573.59 12.75 573.70 12.26Q573.80 11.77 573.80 10.21L573.80 10.21L573.80 8.47Q573.80 8.09 573.83 7.29Q573.85 6.50 573.85 6.05L573.85 6.05Q573.85 5.67 573.82 4.77L573.82 4.77Q573.80 4.37 573.47 4.14Q573.13 3.92 572.68 3.91L572.68 3.91Q572.46 3.91 572.46 3.65ZM588.25 8.90L588.25 8.90Q588.25 7.38 588.84 6.16Q589.43 4.94 590.65 4.19Q591.88 3.44 593.56 3.44L593.56 3.44Q594.41 3.44 595.28 3.70Q596.15 3.95 596.67 4.20L596.67 4.20L597.18 4.47Q597.23 4.47 597.32 4.40Q597.42 4.33 597.48 4.33L597.48 4.33Q597.55 4.33 597.62 4.38Q597.69 4.44 597.69 4.55L597.69 4.55Q597.70 4.96 597.75 5.41Q597.80 5.87 597.84 6.16Q597.88 6.45 597.88 6.51L597.88 6.51Q597.88 6.76 597.72 6.76L597.72 6.76Q597.59 6.76 597.48 6.57L597.48 6.57Q596.12 4.02 593.56 4.02L593.56 4.02Q591.81 4.02 590.69 5.14Q589.57 6.26 589.57 8.06L589.57 8.06Q589.57 9.06 589.83 9.93Q590.09 10.79 590.61 11.51Q591.14 12.24 592.06 12.66Q592.98 13.08 594.22 13.08L594.22 13.08Q596.23 13.08 597.60 10.98L597.60 10.98Q597.66 10.88 597.81 10.88L597.81 10.88Q597.94 10.88 597.94 11.07L597.94 11.07Q597.94 11.23 597.89 11.49Q597.84 11.75 597.77 12.06Q597.70 12.38 597.69 12.45L597.69 12.45Q597.66 12.60 597.46 12.70L597.46 12.70Q596.71 13.06 596.28 13.24Q595.85 13.43 595.20 13.57Q594.54 13.72 593.85 13.72L593.85 13.72Q592.63 13.72 591.65 13.43Q590.67 13.13 590.05 12.66Q589.43 12.18 589.01 11.54Q588.59 10.91 588.42 10.25Q588.25 9.60 588.25 8.90ZM606.21 3.65L606.21 3.65Q606.21 3.50 606.61 3.50L606.61 3.50Q606.75 3.50 607.25 3.53Q607.75 3.56 608.19 3.56L608.19 3.56Q608.45 3.56 608.70 3.54Q608.94 3.53 609.42 3.53L609.42 3.53Q609.73 3.53 609.73 3.72L609.73 3.72Q609.73 3.96 609.24 3.96L609.24 3.96Q608.96 3.96 608.83 4.54Q608.71 5.11 608.71 5.71L608.71 5.71L608.71 6.23Q608.71 6.57 608.69 6.99Q608.68 7.42 608.68 7.52L608.68 7.52Q608.68 7.87 608.76 7.97Q608.85 8.06 609.15 8.06L609.15 8.06Q609.18 8.06 609.70 8.06Q610.22 8.05 611.45 8.05L611.45 8.05Q611.56 8.05 611.83 8.06Q612.09 8.06 612.70 8.07Q613.31 8.08 614.10 8.08L614.10 8.08Q614.19 8.08 614.22 7.84L614.22 7.84Q614.25 7.56 614.25 6.13L614.25 6.13L614.25 5.38Q614.25 4.83 614.13 4.51Q614.01 4.19 613.84 4.09Q613.66 3.99 613.49 3.96Q613.31 3.93 613.19 3.88Q613.07 3.84 613.07 3.70Q613.07 3.56 613.62 3.56L613.62 3.56Q613.76 3.56 614.22 3.57Q614.68 3.58 614.98 3.58L614.98 3.58Q615.12 3.58 615.45 3.57Q615.79 3.56 616.07 3.56L616.07 3.56Q616.39 3.56 616.39 3.74Q616.39 3.92 616.20 3.92L616.20 3.92Q615.80 3.92 615.60 4.16Q615.40 4.40 615.40 4.79L615.40 4.79Q615.40 5.25 615.38 6.42Q615.36 7.59 615.36 8.19L615.36 8.19Q615.36 8.51 615.34 9.20Q615.33 9.90 615.33 10.29L615.33 10.29L615.33 10.81Q615.33 11.23 615.36 11.58Q615.38 11.94 615.38 12.10L615.38 12.10Q615.38 13.01 616.56 13.13L616.56 13.13Q616.73 13.13 616.73 13.29L616.73 13.29Q616.73 13.38 616.59 13.41Q616.45 13.44 616.04 13.44L616.04 13.44Q615.89 13.44 615.53 13.40Q615.17 13.37 614.96 13.37L614.96 13.37Q614.71 13.37 614.36 13.40Q614.00 13.44 613.65 13.44L613.65 13.44Q613.48 13.44 613.41 13.44Q613.34 13.44 613.26 13.42Q613.19 13.40 613.17 13.36Q613.14 13.33 613.14 13.26L613.14 13.26Q613.14 13.17 613.28 13.10Q613.42 13.03 613.59 12.99Q613.76 12.95 613.92 12.83Q614.08 12.71 614.11 12.53L614.11 12.53Q614.21 12.03 614.21 11.51L614.21 11.51Q614.21 11.37 614.22 11.12Q614.22 10.86 614.22 10.75L614.22 10.75Q614.22 10.50 614.24 9.93Q614.25 9.35 614.25 9.03L614.25 9.03Q614.25 8.82 614.08 8.74Q613.91 8.65 613.37 8.65L613.37 8.65Q613.16 8.65 612.40 8.68L612.40 8.68L611.65 8.69Q611.03 8.69 610.26 8.67Q609.49 8.65 609.07 8.65L609.07 8.65Q608.86 8.65 608.79 8.74Q608.72 8.82 608.72 9.17Q608.72 9.52 608.69 10.08Q608.66 10.64 608.66 10.89L608.66 10.89L608.66 11.49Q608.66 12.10 608.78 12.39Q608.89 12.68 609.32 12.96L609.32 12.96Q609.43 13.03 609.92 13.03L609.92 13.03Q610.02 13.03 610.11 13.08Q610.19 13.13 610.19 13.19L610.19 13.19Q610.19 13.44 609.74 13.44L609.74 13.44Q609.32 13.44 609.05 13.41Q608.78 13.38 608.58 13.38L608.58 13.38Q608.19 13.38 607.74 13.42Q607.29 13.45 607.07 13.45L607.07 13.45Q606.41 13.45 606.41 13.24L606.41 13.24Q606.41 13.12 606.54 13.07Q606.68 13.02 606.84 13.00Q607.01 12.98 607.19 12.82Q607.38 12.66 607.45 12.35L607.45 12.35Q607.49 12.11 607.56 10.91Q607.63 9.70 607.63 8.61L607.63 8.61L607.63 7.81Q607.63 7.63 607.64 7.12Q607.64 6.61 607.64 6.30L607.64 6.30Q607.64 5.24 607.56 4.63L607.56 4.63Q607.52 4.28 607.19 4.09Q606.86 3.89 606.51 3.89L606.51 3.89Q606.37 3.89 606.29 3.80Q606.21 3.71 606.21 3.65ZM634.27 3.72L634.27 3.72Q634.27 3.50 634.59 3.50L634.59 3.50Q634.63 3.50 634.75 3.49Q634.86 3.49 635.11 3.49L635.11 3.49Q635.18 3.49 635.50 3.51Q635.81 3.53 635.95 3.53L635.95 3.53Q636.26 3.53 637.14 3.51Q638.02 3.49 638.26 3.49L638.26 3.49Q639.58 3.49 640.53 4.15Q641.48 4.82 641.48 6.06L641.48 6.06Q641.48 6.75 641.23 7.29Q640.98 7.83 640.62 8.13Q640.26 8.44 639.82 8.64Q639.38 8.85 639.04 8.91Q638.69 8.97 638.43 8.97L638.43 8.97Q637.98 8.97 637.52 8.87Q637.06 8.76 637.06 8.65L637.06 8.65Q637.06 8.44 637.24 8.44L637.24 8.44Q637.31 8.44 637.52 8.50Q637.74 8.55 637.95 8.55L637.95 8.55Q638.27 8.55 638.64 8.46Q639.00 8.37 639.39 8.17Q639.79 7.97 640.04 7.55Q640.29 7.14 640.29 6.59L640.29 6.59Q640.29 5.66 639.53 4.85Q638.78 4.05 637.45 4.05L637.45 4.05Q637.01 4.05 636.86 4.30Q636.71 4.56 636.71 5.47L636.71 5.47Q636.71 8.39 636.69 8.80Q636.68 9.21 636.68 11.26L636.68 11.26Q636.68 12.49 637.25 12.87L637.25 12.87Q637.41 12.96 637.64 12.99Q637.87 13.02 638.02 13.01Q638.18 13.01 638.29 13.07Q638.41 13.13 638.41 13.30L638.41 13.30Q638.41 13.54 638.09 13.54Q637.77 13.54 636.96 13.50Q636.15 13.47 636.09 13.47L636.09 13.47Q635.95 13.47 635.54 13.50Q635.12 13.52 634.79 13.52L634.79 13.52Q634.35 13.52 634.35 13.37L634.35 13.37Q634.35 13.29 634.38 13.23Q634.40 13.17 634.42 13.14Q634.44 13.10 634.51 13.08Q634.58 13.05 634.61 13.03Q634.63 13.02 634.74 13.00Q634.84 12.98 634.89 12.96L634.89 12.96Q634.91 12.95 634.97 12.94Q635.03 12.94 635.05 12.93Q635.07 12.92 635.12 12.89Q635.17 12.85 635.19 12.79Q635.22 12.73 635.27 12.62Q635.32 12.52 635.38 12.35L635.38 12.35Q635.47 12.08 635.53 10.25Q635.59 8.41 635.59 7.41L635.59 7.41Q635.59 6.54 635.58 5.80Q635.57 5.07 635.57 5.03L635.57 5.03Q635.57 4.65 635.33 4.28Q635.10 3.91 634.55 3.91L634.55 3.91Q634.27 3.91 634.27 3.72ZM649.17 3.70L649.17 3.70Q649.17 3.47 649.57 3.47L649.57 3.47L651.90 3.47Q652.22 3.47 652.64 3.45Q653.06 3.43 653.30 3.43L653.30 3.43Q654.56 3.43 655.45 4.07Q656.35 4.70 656.35 5.78L656.35 5.78Q656.35 6.50 656.07 7.03Q655.80 7.57 655.47 7.81Q655.14 8.05 654.87 8.22Q654.60 8.40 654.60 8.46L654.60 8.46Q654.60 8.62 655.77 10.27Q656.95 11.91 657.38 12.38L657.38 12.38Q657.92 13.03 658.67 13.03L658.67 13.03Q658.87 13.03 658.87 13.20L658.87 13.20Q658.87 13.41 658.70 13.48Q658.53 13.55 657.83 13.55L657.83 13.55Q657.17 13.55 656.63 13.23L656.63 13.23Q655.93 12.82 654.26 10.09L654.26 10.09Q654.16 9.94 654.12 9.87L654.12 9.87Q653.45 8.78 653.09 8.78L653.09 8.78L652.79 8.78L651.94 8.78Q651.77 8.78 651.74 8.92Q651.70 9.06 651.70 9.77L651.70 9.77Q651.70 10.44 651.70 10.88Q651.70 11.31 651.71 11.43Q651.71 11.55 651.71 11.63Q651.71 11.70 651.71 11.75L651.71 11.75Q651.71 12.32 651.98 12.63Q652.25 12.95 652.57 13.00Q652.90 13.05 653.17 13.11Q653.44 13.17 653.44 13.31L653.44 13.31Q653.44 13.54 653.18 13.54L653.18 13.54Q653.17 13.54 652.22 13.49Q651.27 13.44 651.18 13.44L651.18 13.44Q650.78 13.44 650.22 13.47Q649.66 13.50 649.64 13.50L649.64 13.50Q649.35 13.50 649.35 13.27L649.35 13.27Q649.35 13.12 649.53 13.05Q649.71 12.99 649.94 12.96Q650.16 12.94 650.34 12.66Q650.52 12.38 650.52 11.86L650.52 11.86Q650.52 11.49 650.53 9.90Q650.54 8.30 650.54 7.45L650.54 7.45Q650.54 6.58 650.53 5.86Q650.52 5.14 650.52 5.08L650.52 5.08Q650.52 4.56 650.31 4.29Q650.10 4.02 649.84 3.98Q649.59 3.95 649.38 3.89Q649.17 3.84 649.17 3.70ZM651.70 5.54L651.70 5.94Q651.70 7.38 651.71 7.72Q651.73 8.06 651.81 8.12L651.81 8.12Q652.02 8.25 652.41 8.25L652.41 8.25L652.55 8.25L652.96 8.25Q654.15 8.25 654.66 7.70Q655.17 7.15 655.17 6.30L655.17 6.30Q655.17 5.43 654.49 4.72Q653.81 4.00 652.44 4.00L652.44 4.00Q651.92 4.00 651.81 4.28Q651.70 4.55 651.70 5.54L651.70 5.54ZM666.15 8.69L666.15 8.69Q666.15 6.34 667.56 4.84Q668.98 3.33 671.57 3.33L671.57 3.33Q672.77 3.33 673.74 3.68Q674.70 4.03 675.26 4.54Q675.82 5.05 676.20 5.71Q676.58 6.37 676.72 6.92Q676.86 7.48 676.86 7.95L676.86 7.95Q676.86 9.86 676.12 11.16Q675.37 12.47 674.16 13.07Q672.95 13.66 671.37 13.66L671.37 13.66Q669.70 13.66 668.49 12.94Q667.28 12.21 666.72 11.10Q666.15 10.00 666.15 8.69ZM667.38 7.98L667.38 7.98Q667.38 8.54 667.53 9.19Q667.69 9.84 668.04 10.54Q668.39 11.23 668.88 11.78Q669.38 12.33 670.15 12.69Q670.91 13.05 671.82 13.05L671.82 13.05Q672.29 13.05 672.82 12.90Q673.34 12.75 673.86 12.45Q674.38 12.14 674.79 11.70Q675.19 11.26 675.45 10.62Q675.71 9.98 675.71 9.24L675.71 9.24Q675.71 6.71 674.38 5.30Q673.05 3.89 671.09 3.89L671.09 3.89Q669.55 3.89 668.47 4.93Q667.38 5.96 667.38 7.98ZM684.75 3.72L684.75 3.72Q684.75 3.51 684.88 3.51L684.88 3.51Q684.92 3.51 685.06 3.52Q685.20 3.53 685.44 3.53L685.44 3.53Q685.72 3.53 686.55 3.52Q687.39 3.51 687.48 3.51L687.48 3.51Q687.81 3.51 688.30 3.49Q688.79 3.47 689.02 3.47L689.02 3.47Q690.30 3.47 691.15 4.08Q692.01 4.69 692.01 5.81L692.01 5.81Q692.01 6.22 691.86 6.57Q691.71 6.93 691.51 7.15Q691.31 7.38 691.10 7.54Q690.90 7.70 690.75 7.79Q690.61 7.88 690.61 7.90L690.61 7.90Q690.61 7.94 690.84 8.00Q691.08 8.06 691.42 8.21Q691.75 8.36 692.08 8.61Q692.41 8.86 692.65 9.36Q692.89 9.86 692.89 10.53L692.89 10.53Q692.89 11.13 692.54 11.82Q692.19 12.50 691.71 12.82L691.71 12.82Q691.10 13.26 690.56 13.40Q690.03 13.55 689.28 13.55L689.28 13.55Q688.72 13.55 687.79 13.47Q686.87 13.40 686.77 13.40L686.77 13.40Q686.62 13.40 686.22 13.43Q685.82 13.45 685.57 13.45L685.57 13.45L685.37 13.45Q685.08 13.45 685.08 13.24L685.08 13.24Q685.08 13.05 685.23 13.05L685.23 13.05Q685.31 13.05 685.41 13.04Q685.51 13.03 685.55 13.03L685.55 13.03Q685.68 13.03 685.80 12.94Q685.92 12.85 686.04 12.54Q686.17 12.22 686.18 11.73L686.18 11.73Q686.22 10.82 686.22 7.36L686.22 7.36L686.22 4.98Q686.22 4.89 686.19 4.75Q686.15 4.62 686.05 4.40Q685.94 4.19 685.67 4.04Q685.40 3.89 684.99 3.89L684.99 3.89Q684.75 3.89 684.75 3.72ZM687.29 12.15L687.29 12.15Q687.29 12.99 688.66 12.99L688.66 12.99L688.98 12.99Q689.74 12.99 690.19 12.92L690.19 12.92Q690.84 12.81 691.27 12.24Q691.70 11.66 691.70 10.86L691.70 10.86Q691.70 10.18 691.45 9.68Q691.19 9.18 690.87 8.93Q690.55 8.68 690.11 8.54Q689.67 8.40 689.42 8.37Q689.18 8.34 688.95 8.34L688.95 8.34Q688.51 8.34 688.22 8.34Q687.93 8.33 687.86 8.33Q687.78 8.33 687.73 8.32Q687.68 8.32 687.65 8.32L687.65 8.32Q687.53 8.32 687.47 8.35Q687.41 8.39 687.37 8.62Q687.32 8.85 687.31 9.28Q687.30 9.72 687.30 10.58L687.30 10.58L687.30 10.70Q687.30 11.21 687.30 11.54Q687.30 11.86 687.30 11.99Q687.29 12.12 687.29 12.15ZM687.37 5.40L687.37 5.81Q687.37 6.51 687.38 6.90Q687.39 7.29 687.41 7.50Q687.44 7.71 687.47 7.77Q687.50 7.83 687.55 7.83L687.55 7.83Q687.95 7.87 688.27 7.87L688.27 7.87L689.16 7.87Q690.05 7.87 690.49 7.41Q690.93 6.94 690.93 6.22L690.93 6.22Q690.93 5.43 690.19 4.70Q689.46 3.96 688.10 3.96L688.10 3.96Q687.67 3.96 687.52 4.22Q687.37 4.48 687.37 5.40L687.37 5.40ZM700.57 3.71L700.57 3.71Q700.57 3.46 700.95 3.46L700.95 3.46Q701.01 3.46 701.13 3.47Q701.26 3.49 701.33 3.49L701.33 3.49Q701.47 3.49 701.86 3.51Q702.24 3.54 702.55 3.54L702.55 3.54Q702.98 3.54 703.47 3.51Q703.96 3.49 704.02 3.49L704.02 3.49Q704.26 3.49 704.26 3.63L704.26 3.63Q704.26 3.82 704.09 3.88Q703.92 3.95 703.72 3.97Q703.51 3.99 703.33 4.28Q703.14 4.56 703.11 5.14L703.11 5.14Q703.08 5.68 703.04 8.19Q703.00 10.70 703.00 10.99L703.00 10.99L703.00 11.55Q703.00 12.56 703.33 12.66L703.33 12.66Q703.68 12.77 703.93 12.77L703.93 12.77Q704.98 12.77 705.78 12.67Q706.57 12.57 706.97 12.42Q707.36 12.28 707.63 12.10Q707.90 11.93 707.97 11.78Q708.05 11.63 708.13 11.54Q708.20 11.44 708.29 11.44L708.29 11.44Q708.46 11.44 708.46 11.68L708.46 11.68Q708.46 12.28 707.85 12.89Q707.25 13.51 706.80 13.51L706.80 13.51Q705.80 13.51 704.53 13.44Q703.26 13.37 702.95 13.37L702.95 13.37Q702.56 13.37 702.05 13.43Q701.54 13.48 701.20 13.48L701.20 13.48Q700.80 13.48 700.80 13.31L700.80 13.31Q700.80 13.22 700.88 13.15Q700.95 13.09 701.02 13.09L701.02 13.09Q701.23 13.09 701.43 12.95L701.43 12.95Q701.68 12.75 701.79 12.23Q701.90 11.70 701.90 10.21L701.90 10.21L701.90 8.47Q701.90 8.09 701.93 7.29Q701.95 6.50 701.95 6.05L701.95 6.05Q701.95 5.67 701.92 4.77L701.92 4.77Q701.90 4.37 701.57 4.14Q701.23 3.92 700.78 3.91L700.78 3.91Q700.64 3.91 700.61 3.86Q700.57 3.81 700.57 3.71ZM716.02 3.65L716.02 3.65Q716.02 3.46 716.41 3.46L716.41 3.46Q716.46 3.46 716.59 3.47Q716.72 3.49 716.79 3.49L716.79 3.49Q716.83 3.49 718.10 3.52Q719.38 3.56 720.20 3.56L720.20 3.56Q720.50 3.56 721.65 3.53Q722.81 3.50 723.00 3.50L723.00 3.50Q723.27 3.50 723.27 3.82L723.27 3.82Q723.27 3.91 723.18 4.38Q723.10 4.84 723.10 5.25L723.10 5.25Q723.10 5.38 723.03 5.47Q722.96 5.56 722.88 5.56L722.88 5.56Q722.67 5.56 722.67 5.26L722.67 5.26Q722.67 4.89 722.43 4.58Q722.19 4.27 721.84 4.26L721.84 4.26Q720.58 4.16 719.91 4.16L719.91 4.16L719.54 4.16Q718.82 4.16 718.70 4.26Q718.58 4.37 718.55 5.01L718.55 5.01Q718.49 6.02 718.49 7.35L718.49 7.35Q718.49 8.05 718.76 8.06L718.76 8.06L719.11 8.06L719.70 8.06L720.13 8.06Q720.97 8.06 721.25 8.01Q721.53 7.95 721.76 7.80L721.76 7.80Q722.02 7.62 722.08 7.28L722.08 7.28Q722.12 7.04 722.27 7.04L722.27 7.04Q722.40 7.04 722.43 7.08Q722.46 7.13 722.46 7.27L722.46 7.27Q722.46 7.36 722.40 7.91Q722.34 8.46 722.34 8.74L722.34 8.74Q722.34 9.00 722.37 9.24Q722.39 9.48 722.39 9.59L722.39 9.59Q722.39 9.94 722.29 9.94L722.29 9.94Q722.08 9.94 721.98 9.60L721.98 9.60Q721.78 9.02 721.63 8.92L721.63 8.92Q721.34 8.72 720.29 8.72L720.29 8.72Q719.87 8.72 719.61 8.72Q719.35 8.72 719.27 8.71Q719.19 8.71 719.15 8.71Q719.10 8.71 719.05 8.71L719.05 8.71Q718.48 8.71 718.48 8.97L718.48 8.97Q718.48 9.38 718.47 9.99Q718.45 10.60 718.45 10.99L718.45 10.99L718.45 11.55Q718.45 12.56 718.79 12.66L718.79 12.66Q719.14 12.77 719.39 12.77L719.39 12.77Q720.44 12.77 721.23 12.67Q722.02 12.57 722.42 12.42Q722.82 12.28 723.09 12.10Q723.35 11.93 723.43 11.78Q723.51 11.63 723.58 11.54Q723.66 11.44 723.74 11.44L723.74 11.44Q723.91 11.44 723.91 11.68L723.91 11.68Q723.91 12.28 723.31 12.89Q722.71 13.51 722.26 13.51L722.26 13.51Q721.25 13.51 719.99 13.44Q718.72 13.37 718.41 13.37L718.41 13.37Q718.02 13.37 717.43 13.43Q716.84 13.50 716.51 13.50L716.51 13.50Q716.21 13.50 716.21 13.36L716.21 13.36Q716.21 13.23 716.21 13.19Q716.21 13.15 716.25 13.12Q716.30 13.09 716.35 13.08Q716.39 13.08 716.53 13.03Q716.66 12.99 716.81 12.92L716.81 12.92Q717.15 12.75 717.26 12.26Q717.36 11.77 717.36 10.21L717.36 10.21L717.36 8.47Q717.36 8.09 717.38 7.29Q717.40 6.50 717.40 6.05L717.40 6.05Q717.40 5.67 717.37 4.77L717.37 4.77Q717.36 4.37 717.02 4.14Q716.69 3.92 716.24 3.91L716.24 3.91Q716.02 3.91 716.02 3.65ZM731.47 3.71L731.47 3.71Q731.47 3.50 731.72 3.50L731.72 3.50Q731.81 3.50 732.11 3.53Q732.41 3.56 732.47 3.56L732.47 3.56Q732.68 3.56 733.04 3.54Q733.40 3.53 733.52 3.53L733.52 3.53Q733.78 3.53 733.85 3.72L733.85 3.72Q734.02 4.09 734.45 5.03Q734.89 5.98 735.15 6.54Q735.41 7.10 735.81 7.97Q736.22 8.83 736.47 9.37Q736.72 9.91 737.00 10.46Q737.27 11.00 737.42 11.26Q737.56 11.52 737.60 11.52Q737.65 11.52 737.70 11.47Q737.74 11.42 737.79 11.34Q737.84 11.26 737.88 11.17Q737.91 11.09 737.98 10.96Q738.04 10.82 738.07 10.75L738.07 10.75L739.87 7.03Q740.18 6.40 740.42 5.89Q740.66 5.39 740.80 5.08Q740.94 4.77 741.03 4.55Q741.13 4.33 741.18 4.21Q741.23 4.10 741.25 4.04Q741.27 3.98 741.29 3.94Q741.30 3.91 741.31 3.88Q741.33 3.85 741.36 3.75Q741.40 3.65 741.43 3.62Q741.47 3.58 741.57 3.54Q741.68 3.50 741.85 3.50L741.85 3.50Q742.11 3.50 742.34 3.51Q742.57 3.53 743.05 3.53L743.05 3.53Q743.29 3.53 743.29 3.71L743.29 3.71Q743.29 3.85 743.20 3.91Q743.11 3.98 742.83 4.02L742.83 4.02Q742.48 4.06 742.34 4.37Q742.20 4.68 742.20 5.54L742.20 5.54Q742.20 7.43 742.28 8.97Q742.36 10.50 742.36 10.89L742.36 10.89Q742.36 12.29 742.59 12.68Q742.81 13.06 743.53 13.06L743.53 13.06Q743.62 13.06 743.70 13.13Q743.78 13.20 743.78 13.26L743.78 13.26Q743.78 13.34 743.76 13.38Q743.75 13.43 743.71 13.45Q743.67 13.48 743.62 13.48Q743.58 13.48 743.47 13.48L743.47 13.48Q743.05 13.48 742.64 13.45Q742.24 13.43 742.04 13.43L742.04 13.43Q741.65 13.43 741.23 13.46Q740.81 13.50 740.59 13.50L740.59 13.50Q740.33 13.50 740.33 13.30L740.33 13.30Q740.33 13.17 740.45 13.12Q740.56 13.06 740.71 13.05Q740.85 13.03 741.01 12.87Q741.17 12.71 741.24 12.39L741.24 12.39Q741.30 12.11 741.30 11.49L741.30 11.49Q741.30 11.05 741.28 10.42Q741.26 9.79 741.23 9.19Q741.20 8.60 741.17 8.07Q741.15 7.55 741.13 7.21L741.13 7.21L741.10 6.87Q741.10 6.27 740.98 6.27L740.98 6.27Q740.96 6.27 740.94 6.29Q740.91 6.30 740.89 6.33Q740.87 6.36 740.84 6.38Q740.81 6.41 740.78 6.47Q740.75 6.54 740.73 6.58Q740.70 6.62 740.66 6.70Q740.61 6.78 740.59 6.83Q740.56 6.89 740.51 6.99Q740.46 7.08 740.43 7.15L740.43 7.15L738.49 11.09Q738.15 11.77 737.77 12.56L737.77 12.56Q737.52 13.09 737.46 13.18Q737.41 13.27 737.32 13.27L737.32 13.27Q737.20 13.27 737.11 13.15Q737.03 13.03 736.86 12.63Q736.69 12.22 736.57 11.96L736.57 11.96Q734.01 6.75 733.94 6.65L733.94 6.65Q733.89 6.59 733.85 6.59L733.85 6.59Q733.74 6.59 733.74 7.15L733.74 7.15Q733.73 8.25 733.67 9.31Q733.61 10.37 733.61 10.85L733.61 10.85L733.61 11.48Q733.61 11.84 733.64 12.04Q733.66 12.24 733.75 12.49Q733.84 12.75 734.08 12.89Q734.31 13.03 734.69 13.08L734.69 13.08Q734.76 13.08 734.83 13.13Q734.89 13.17 734.89 13.23L734.89 13.23Q734.89 13.38 734.85 13.43Q734.80 13.48 734.68 13.48L734.68 13.48Q734.40 13.48 733.84 13.45Q733.28 13.43 733.22 13.43L733.22 13.43Q733.19 13.43 732.82 13.45Q732.44 13.47 732.07 13.47L732.07 13.47Q731.96 13.47 731.91 13.45Q731.86 13.44 731.82 13.39Q731.78 13.34 731.78 13.24L731.78 13.24Q731.78 13.13 731.91 13.09Q732.03 13.05 732.19 13.04Q732.35 13.03 732.55 12.82Q732.75 12.60 732.84 12.18L732.84 12.18Q732.91 11.87 733.01 9.74Q733.11 7.62 733.11 6.59L733.11 6.59Q733.11 5.19 732.84 4.66Q732.56 4.13 731.65 3.92L731.65 3.92Q731.47 3.88 731.47 3.71ZM751.67 10.82L751.67 10.82Q751.67 10.53 751.87 10.53L751.87 10.53Q752.05 10.53 752.09 10.67L752.09 10.67Q752.23 11.00 752.35 11.25Q752.47 11.49 752.74 11.85Q753.00 12.21 753.31 12.44Q753.62 12.67 754.10 12.84Q754.59 13.01 755.16 13.01L755.16 13.01Q756.21 13.01 756.85 12.45Q757.48 11.90 757.48 11.00L757.48 11.00Q757.48 10.35 757.05 9.90Q756.62 9.46 756.06 9.27Q755.50 9.09 754.64 8.77Q753.77 8.46 753.23 8.13L753.23 8.13Q751.95 7.38 751.95 6.08L751.95 6.08Q751.95 4.83 752.86 4.08Q753.76 3.33 755.20 3.33L755.20 3.33Q755.73 3.33 756.47 3.56Q757.20 3.79 757.22 3.79L757.22 3.79Q757.26 3.79 757.37 3.74Q757.48 3.68 757.54 3.68L757.54 3.68Q757.72 3.68 757.75 3.79L757.75 3.79Q758.04 5.49 758.04 5.70L758.04 5.70Q758.04 6.09 757.85 6.09L757.85 6.09Q757.72 6.09 757.65 5.89L757.65 5.89Q757.48 5.49 757.32 5.24Q757.16 4.98 757.09 4.91Q757.02 4.84 756.73 4.58L756.73 4.58Q755.97 3.91 754.89 3.91L754.89 3.91Q754.03 3.91 753.44 4.33Q752.85 4.75 752.85 5.46L752.85 5.46Q752.85 6.09 753.19 6.50Q753.54 6.90 754.11 7.13Q754.68 7.35 755.31 7.55Q755.94 7.74 756.65 8.09Q757.36 8.44 757.82 8.93L757.82 8.93Q758.38 9.53 758.38 10.43L758.38 10.43Q758.38 11.90 757.44 12.76Q756.50 13.62 755.12 13.62L755.12 13.62Q754.15 13.62 753.56 13.52Q752.98 13.41 752.36 13.09L752.36 13.09Q752.18 12.98 751.93 12.00Q751.67 11.02 751.67 10.82Z"></path></g></svg>