<svg data-v-423bf9ae="" xmlns="http://www.w3.org/2000/svg" viewBox="0 0 669.5428902762277 60" class="font"><!----><!----><!----><g data-v-423bf9ae="" id="36c5de4f-2e84-46c4-ba26-dee47351d789" fill="white" transform="matrix(5.714285714285714,0,0,5.714285714285714,-5.82857070650374,-1.1999991238117218)"><path d="M7.42 6.15C7.42 8.08 6.69 8.93 5.22 8.93C3.75 8.93 2.98 8.08 2.98 6.15L2.98 0.42L1.02 0.42L1.02 6.27C1.02 8.96 2.48 10.71 5.21 10.71C7.97 10.71 9.39 8.96 9.39 6.27L9.39 0.42L7.42 0.42ZM13.08 10.50L13.08 6.54C13.08 5.24 13.73 4.56 14.59 4.56C15.48 4.56 15.82 5.12 15.82 6.09L15.82 10.50L17.67 10.50L17.67 6.03C17.67 4.30 17.08 3.01 15.06 3.01C14.15 3.01 13.48 3.37 12.95 4.27L12.95 3.22L11.23 3.22L11.23 10.50ZM21.14 10.50L21.14 7.06C21.14 5.64 21.74 4.75 22.95 4.75C23.38 4.75 23.67 4.87 23.95 5.03L24.29 3.39C23.95 3.12 23.56 3.01 23.00 3.01C21.99 3.01 21.48 3.50 21.01 4.48L21.01 3.22L19.29 3.22L19.29 10.50ZM31.61 7.38C31.61 7.34 31.63 6.93 31.63 6.61C31.63 4.27 30.13 3.01 28.18 3.01C26.28 3.01 24.65 4.26 24.65 6.86C24.65 9.46 26.26 10.71 28.18 10.71C29.88 10.71 31.00 9.95 31.50 8.46L29.78 8.09C29.58 8.75 29.02 9.17 28.29 9.17C27.33 9.17 26.57 8.61 26.50 7.38ZM28.14 4.55C29.06 4.55 29.68 5.17 29.74 6.08L26.53 6.08C26.66 5.07 27.40 4.55 28.14 4.55ZM32.41 8.40C32.54 9.77 33.66 10.71 35.43 10.71C37.09 10.71 38.43 9.98 38.43 8.37C38.43 6.92 37.38 6.41 36.55 6.22L34.79 5.81C34.41 5.73 34.16 5.52 34.16 5.21C34.16 4.69 34.65 4.45 35.36 4.45C36.01 4.45 36.53 4.72 36.64 5.38L38.23 5.11C38.16 3.96 37.16 3.01 35.42 3.01C33.92 3.01 32.56 3.65 32.56 5.28C32.56 6.48 33.39 7.10 34.34 7.32L36.09 7.73C36.51 7.84 36.78 8.04 36.78 8.44C36.78 9.10 36.09 9.27 35.48 9.27C34.57 9.27 34.09 8.81 34.01 8.13L32.41 8.40ZM39.21 6.86C39.21 9.46 40.80 10.71 42.76 10.71C44.73 10.71 46.31 9.46 46.31 6.86C46.31 4.26 44.73 3.01 42.76 3.01C40.80 3.01 39.21 4.26 39.21 6.86ZM41.06 6.86C41.06 5.32 41.75 4.55 42.76 4.55C43.76 4.55 44.46 5.32 44.46 6.86C44.46 8.41 43.76 9.17 42.76 9.17C41.75 9.17 41.06 8.41 41.06 6.86ZM49.36 10.50L49.36 0.21L47.52 0.77L47.52 10.50ZM54.85 10.50L57.75 3.22L55.90 3.22L54.03 8.26L52.19 3.22L50.32 3.22L53.21 10.50ZM65.14 7.38C65.14 7.34 65.16 6.93 65.16 6.61C65.16 4.27 63.66 3.01 61.71 3.01C59.81 3.01 58.18 4.26 58.18 6.86C58.18 9.46 59.79 10.71 61.71 10.71C63.41 10.71 64.53 9.95 65.03 8.46L63.31 8.09C63.11 8.75 62.55 9.17 61.82 9.17C60.86 9.17 60.10 8.61 60.03 7.38ZM61.67 4.55C62.59 4.55 63.21 5.17 63.27 6.08L60.06 6.08C60.19 5.07 60.93 4.55 61.67 4.55ZM70.88 0.42L70.88 3.89C70.46 3.26 69.79 3.01 69.12 3.01C67.30 3.01 65.94 4.40 65.94 6.86C65.94 9.32 67.26 10.71 69.08 10.71C69.94 10.71 70.60 10.30 71.02 9.60L71.02 10.50L72.73 10.50L72.73 0.42ZM71.04 6.86C71.04 8.41 70.27 9.17 69.40 9.17C68.49 9.17 67.79 8.41 67.79 6.86C67.79 5.31 68.45 4.55 69.41 4.55C70.36 4.55 71.04 5.31 71.04 6.86ZM80.42 10.50L80.42 6.24L84.55 6.24L84.55 4.47L80.42 4.47L80.42 2.20L85.54 2.20L85.54 0.42L78.46 0.42L78.46 10.50ZM85.58 6.86C85.58 9.46 87.16 10.71 89.12 10.71C91.10 10.71 92.68 9.46 92.68 6.86C92.68 4.26 91.10 3.01 89.12 3.01C87.16 3.01 85.58 4.26 85.58 6.86ZM87.43 6.86C87.43 5.32 88.12 4.55 89.12 4.55C90.13 4.55 90.83 5.32 90.83 6.86C90.83 8.41 90.13 9.17 89.12 9.17C88.12 9.17 87.43 8.41 87.43 6.86ZM95.73 10.50L95.73 7.06C95.73 5.64 96.33 4.75 97.54 4.75C97.97 4.75 98.27 4.87 98.55 5.03L98.88 3.39C98.55 3.12 98.15 3.01 97.59 3.01C96.59 3.01 96.07 3.50 95.61 4.48L95.61 3.22L93.88 3.22L93.88 10.50ZM104.40 3.22L104.40 7.18C104.40 8.48 103.74 9.16 102.89 9.16C101.99 9.16 101.65 8.60 101.65 7.63L101.65 3.22L99.81 3.22L99.81 7.69C99.81 9.42 100.39 10.71 102.41 10.71C103.32 10.71 103.99 10.32 104.52 9.45L104.52 10.50L106.25 10.50L106.25 3.22ZM109.72 10.50L109.72 6.73C109.72 5.50 110.11 4.56 111.12 4.56C111.72 4.56 112.11 4.98 112.11 5.98L112.11 10.50L113.96 10.50L113.96 6.38C113.96 5.29 114.46 4.56 115.35 4.56C116.13 4.56 116.34 5.21 116.34 6.02L116.34 10.50L118.19 10.50L118.19 5.52C118.19 3.89 117.31 3.01 115.91 3.01C115.00 3.01 114.23 3.39 113.76 4.35C113.47 3.50 112.76 3.01 111.69 3.01C110.73 3.01 110.10 3.36 109.59 4.26L109.59 3.22L107.87 3.22L107.87 10.50Z"></path></g><!----><!----></svg>