<svg data-v-423bf9ae="" xmlns="http://www.w3.org/2000/svg" viewBox="0 0 544.6543348231747 60" class="font"><!----><!----><!----><g data-v-423bf9ae="" id="f8a758d0-d486-4c2a-b47b-7a6f915563b1" fill="black" transform="matrix(4.608294768854844,0,0,4.608294768854844,-5.668205892048832,0)"><path d="M5.16 13.02C7.46 13.02 9.12 11.50 9.12 9.43L9.12 2.38L8.00 2.38L8.00 9.26C8.00 10.78 6.79 11.90 5.16 11.90C3.54 11.90 2.35 10.78 2.35 9.26L2.35 2.38L1.23 2.38L1.23 9.43C1.23 11.50 2.89 13.02 5.16 13.02ZM14.40 5.74C13.76 5.74 13.16 6.00 12.71 6.44L12.71 5.88L11.62 5.88L11.62 12.88L12.71 12.88L12.71 8.42C12.71 7.53 13.42 6.83 14.32 6.83C15.21 6.83 15.91 7.53 15.91 8.42L15.91 12.88L16.99 12.88L16.99 8.42C16.99 6.93 15.75 5.74 14.40 5.74ZM22.87 5.74C21.88 5.74 21.07 6.18 20.55 6.88L20.55 5.88L19.46 5.88L19.46 12.88L20.55 12.88L20.55 9.08C20.55 7.81 21.60 6.83 22.87 6.83C23.08 6.83 23.26 6.84 23.42 6.90L23.42 5.79C23.26 5.76 23.08 5.74 22.87 5.74ZM31.57 9.31C31.52 7.30 29.93 5.74 27.93 5.74C25.92 5.74 24.29 7.37 24.29 9.38C24.29 11.39 25.92 13.02 27.93 13.02C29.59 13.02 30.98 11.92 31.43 10.41L30.28 10.41C29.89 11.32 28.98 11.94 27.93 11.94C26.55 11.94 25.45 10.89 25.38 9.54L31.55 9.54ZM27.93 6.83C29.05 6.83 30.00 7.54 30.33 8.56L25.52 8.56C25.87 7.54 26.81 6.83 27.93 6.83ZM35.30 13.02C36.52 13.02 37.54 12.20 37.54 10.99C37.54 9.73 36.49 9.24 35.58 8.87C34.72 8.51 34.28 8.31 34.28 7.70C34.28 7.11 34.69 6.83 35.26 6.83C35.72 6.83 36.12 7.02 36.31 7.39L37.26 6.90C37.00 6.27 36.10 5.74 35.21 5.74C34.18 5.74 33.18 6.46 33.18 7.74C33.18 8.84 33.91 9.40 35.16 9.87C36.00 10.20 36.45 10.43 36.45 10.99C36.45 11.60 35.93 11.95 35.30 11.95C34.65 11.95 34.02 11.59 33.91 11.08L32.87 11.50C33.13 12.34 34.18 13.02 35.30 13.02ZM42.51 13.02C44.52 13.02 46.15 11.39 46.15 9.38C46.15 7.37 44.52 5.74 42.51 5.74C40.49 5.74 38.87 7.37 38.87 9.38C38.87 11.39 40.49 13.02 42.51 13.02ZM42.51 11.94C41.09 11.94 39.95 10.80 39.95 9.38C39.95 7.96 41.09 6.83 42.51 6.83C43.91 6.83 45.06 7.96 45.06 9.38C45.06 10.80 43.91 11.94 42.51 11.94ZM48.21 12.88L49.30 12.88L49.30 0L48.21 0ZM56.23 5.88L54.08 11.62L51.91 5.88L50.73 5.88L53.53 12.88L54.58 12.88L57.40 5.88ZM65.63 9.31C65.57 7.30 63.98 5.74 61.99 5.74C59.97 5.74 58.35 7.37 58.35 9.38C58.35 11.39 59.97 13.02 61.99 13.02C63.65 13.02 65.03 11.92 65.48 10.41L64.33 10.41C63.95 11.32 63.04 11.94 61.99 11.94C60.60 11.94 59.50 10.89 59.43 9.54L65.61 9.54ZM61.99 6.83C63.11 6.83 64.05 7.54 64.38 8.56L59.57 8.56C59.92 7.54 60.87 6.83 61.99 6.83ZM73.33 0L73.33 6.79C72.66 6.14 71.77 5.74 70.77 5.74C68.76 5.74 67.13 7.37 67.13 9.38C67.13 11.39 68.76 13.02 70.77 13.02C71.77 13.02 72.66 12.62 73.33 11.97L73.33 12.88L74.41 12.88L74.41 0ZM70.77 11.94C69.35 11.94 68.22 10.80 68.22 9.38C68.22 7.96 69.35 6.83 70.77 6.83C72.17 6.83 73.33 7.96 73.33 9.38C73.33 10.80 72.17 11.94 70.77 11.94ZM87.01 3.46L87.01 2.38L81.27 2.38L81.27 12.88L82.39 12.88L82.39 8.17L86.42 8.17L86.42 7.09L82.39 7.09L82.39 3.46ZM91.75 13.02C93.77 13.02 95.39 11.39 95.39 9.38C95.39 7.37 93.77 5.74 91.75 5.74C89.74 5.74 88.11 7.37 88.11 9.38C88.11 11.39 89.74 13.02 91.75 13.02ZM91.75 11.94C90.34 11.94 89.20 10.80 89.20 9.38C89.20 7.96 90.34 6.83 91.75 6.83C93.15 6.83 94.31 7.96 94.31 9.38C94.31 10.80 93.15 11.94 91.75 11.94ZM100.87 5.74C99.87 5.74 99.07 6.18 98.54 6.88L98.54 5.88L97.46 5.88L97.46 12.88L98.54 12.88L98.54 9.08C98.54 7.81 99.59 6.83 100.87 6.83C101.08 6.83 101.26 6.84 101.41 6.90L101.41 5.79C101.26 5.76 101.08 5.74 100.87 5.74ZM105.17 13.02C106.73 13.02 107.80 11.99 107.80 10.36L107.80 5.88L106.73 5.88L106.73 10.24C106.73 11.29 106.09 11.94 105.17 11.94C104.28 11.94 103.62 11.29 103.62 10.24L103.62 5.88L102.55 5.88L102.55 10.36C102.55 11.99 103.60 13.02 105.17 13.02ZM116.81 5.74C115.97 5.74 115.24 6.14 114.77 6.79C114.29 6.14 113.56 5.74 112.82 5.74C112.19 5.74 111.61 6.05 111.19 6.53L111.19 5.88L110.11 5.88L110.11 12.88L111.19 12.88L111.19 8.40C111.19 7.53 111.86 6.83 112.72 6.83C113.54 6.83 114.22 7.53 114.22 8.40L114.22 12.88L115.31 12.88L115.31 8.40C115.31 7.53 115.99 6.83 116.81 6.83C117.65 6.83 118.33 7.53 118.33 8.40L118.33 12.88L119.42 12.88L119.42 8.40C119.42 6.93 118.27 5.74 116.81 5.74Z"></path></g><!----><!----></svg>